EncodeSansSemiCondensed-SemiBold.ufo
<glyph name="exclam" format="2">
  <advance width="531.5454545454545"/>
  <unicode hex="0021"/>
  <outline>
    <contour>
      <point x="188.86363636363637" y="433.8181818181818" type="line"/>
      <point x="345.1363636363636" y="433.8181818181818" type="line"/>
      <point x="400.5" y="947.8181818181818" type="line"/>
      <point x="400.5" y="1480.0" type="line"/>
      <point x="131.04545454545456" y="1480.0" type="line"/>
      <point x="131.04545454545456" y="947.8181818181818" type="line"/>
    </contour>
    <contour>
      <point x="265.77272727272725" y="-15.454545454545453" type="curve" smooth="yes"/>
      <point x="365.8636363636364" y="-15.454545454545453"/>
      <point x="434.1363636363636" y="47.54545454545454"/>
      <point x="434.1363636363636" y="141.45454545454544" type="curve" smooth="yes"/>
      <point x="434.1363636363636" y="235.36363636363637"/>
      <point x="368.0454545454545" y="299.27272727272725"/>
      <point x="265.77272727272725" y="299.27272727272725" type="curve" smooth="yes"/>
      <point x="163.5" y="299.27272727272725"/>
      <point x="97.4090909090909" y="237.54545454545453"/>
      <point x="97.4090909090909" y="141.45454545454544" type="curve" smooth="yes"/>
      <point x="97.4090909090909" y="45.36363636363636"/>
      <point x="165.6818181818182" y="-15.454545454545453"/>
    </contour>
  </outline>
</glyph>
<glyph name="dollar" format="2">
  <advance width="1043.8181818181818"/>
  <unicode hex="0024"/>
  <outline>
    <contour>
      <point x="443.0" y="-19.09090909090909" type="curve" smooth="yes"/>
      <point x="793.0909090909091" y="-19.09090909090909"/>
      <point x="992.1363636363636" y="146.22727272727272"/>
      <point x="992.1363636363636" y="421.9090909090909" type="curve" smooth="yes"/>
      <point x="992.1363636363636" y="646.1363636363636"/>
      <point x="863.3181818181818" y="773.2727272727273"/>
      <point x="614.0454545454545" y="844.8181818181818" type="curve" smooth="yes"/>
      <point x="519.4090909090909" y="872.7272727272727" type="line" smooth="yes"/>
      <point x="360.4090909090909" y="921.0454545454545"/>
      <point x="309.1363636363636" y="974.1363636363636"/>
      <point x="309.1363636363636" y="1081.5454545454545" type="curve" smooth="yes"/>
      <point x="309.1363636363636" y="1205.9545454545455"/>
      <point x="394.9090909090909" y="1285.5454545454545"/>
      <point x="632.9545454545455" y="1285.5454545454545" type="curve" smooth="yes"/>
      <point x="726.4090909090909" y="1285.5454545454545"/>
      <point x="831.6363636363636" y="1272.4545454545455"/>
      <point x="921.4090909090909" y="1246.590909090909" type="curve"/>
      <point x="921.4090909090909" y="1461.0454545454545" type="line"/>
      <point x="836.4545454545455" y="1484.7727272727273"/>
      <point x="723.4090909090909" y="1499.090909090909"/>
      <point x="615.9545454545455" y="1499.090909090909" type="curve" smooth="yes"/>
      <point x="237.13636363636363" y="1499.090909090909"/>
      <point x="51.68181818181819" y="1335.2727272727273"/>
      <point x="51.68181818181819" y="1065.2727272727273" type="curve" smooth="yes"/>
      <point x="51.68181818181819" y="844.3636363636364"/>
      <point x="181.6818181818182" y="715.4545454545455"/>
      <point x="409.0" y="649.3636363636364" type="curve" smooth="yes"/>
      <point x="503.6363636363636" y="621.4545454545455" type="line" smooth="yes"/>
      <point x="677.0" y="569.2272727272727"/>
      <point x="734.6818181818182" y="515.1363636363636"/>
      <point x="734.6818181818182" y="402.3181818181818" type="curve" smooth="yes"/>
      <point x="734.6818181818182" y="268.72727272727275"/>
      <point x="647.0909090909091" y="194.45454545454544"/>
      <point x="439.8181818181818" y="194.45454545454544" type="curve" smooth="yes"/>
      <point x="331.3181818181818" y="194.45454545454544"/>
      <point x="198.95454545454547" y="215.31818181818178"/>
      <point x="83.04545454545455" y="252.13636363636363" type="curve"/>
      <point x="83.04545454545455" y="37.68181818181818" type="line"/>
      <point x="193.1818181818182" y="0.3636363636363633"/>
      <point x="329.5909090909091" y="-19.09090909090909"/>
    </contour>
    <contour>
      <point x="404.45454545454544" y="-240.0" type="line"/>
      <point x="640.8181818181818" y="-240.0" type="line"/>
      <point x="640.8181818181818" y="55.90909090909091" type="line"/>
      <point x="404.45454545454544" y="49.090909090909086" type="line"/>
    </contour>
    <contour>
      <point x="404.45454545454544" y="1447.2727272727273" type="line"/>
      <point x="640.8181818181818" y="1447.2727272727273" type="line"/>
      <point x="640.8181818181818" y="1720.0" type="line"/>
      <point x="404.45454545454544" y="1720.0" type="line"/>
    </contour>
  </outline>
</glyph>
<glyph name="ampersand" format="2">
  <advance width="1475.7272727272727"/>
  <unicode hex="0026"/>
  <outline>
    <contour>
      <point x="1347.1363636363635" y="-20.0" type="line"/>
      <point x="1475.7272727272727" y="170.90909090909088" type="line"/>
      <point x="674.6363636363636" y="773.0454545454545" type="line" smooth="yes"/>
      <point x="539.1818181818182" y="883.4090909090909"/>
      <point x="498.5" y="953.6363636363636"/>
      <point x="498.5" y="1055.2272727272727" type="curve" smooth="yes"/>
      <point x="498.5" y="1202.2272727272727"/>
      <point x="587.7272727272727" y="1285.5454545454545"/>
      <point x="818.1363636363636" y="1285.5454545454545" type="curve" smooth="yes"/>
      <point x="889.5" y="1285.5454545454545"/>
      <point x="967.1363636363636" y="1276.8636363636365"/>
      <point x="1036.909090909091" y="1260.5" type="curve"/>
      <point x="1036.909090909091" y="1474.9545454545455" type="line"/>
      <point x="966.1818181818182" y="1489.590909090909"/>
      <point x="888.3181818181818" y="1499.090909090909"/>
      <point x="799.8181818181818" y="1499.090909090909" type="curve" smooth="yes"/>
      <point x="423.40909090909093" y="1499.090909090909"/>
      <point x="241.04545454545456" y="1334.8181818181818"/>
      <point x="241.04545454545456" y="1056.7272727272727" type="curve" smooth="yes"/>
      <point x="241.04545454545456" y="893.0"/>
      <point x="309.0" y="761.3181818181819"/>
      <point x="546.0454545454545" y="582.1363636363636" type="curve" smooth="yes"/>
    </contour>
    <contour>
      <point x="644.6818181818181" y="-18.0" type="curve" smooth="yes"/>
      <point x="1017.0454545454545" y="-18.0"/>
      <point x="1247.6363636363635" y="184.5"/>
      <point x="1247.6363636363635" y="583.0454545454545" type="curve" smooth="yes"/>
      <point x="1247.6363636363635" y="662.0909090909091"/>
      <point x="1236.6818181818182" y="755.0909090909091"/>
      <point x="1214.5454545454545" y="839.6363636363636" type="curve"/>
      <point x="1005.4545454545455" y="839.6363636363636" type="line"/>
      <point x="1028.2727272727273" y="755.0909090909091"/>
      <point x="1040.6363636363637" y="660.5454545454545"/>
      <point x="1040.6363636363637" y="580.4090909090909" type="curve" smooth="yes"/>
      <point x="1040.6363636363637" y="281.77272727272725"/>
      <point x="890.2272727272727" y="171.8181818181818"/>
      <point x="672.0454545454545" y="171.8181818181818" type="curve" smooth="yes"/>
      <point x="470.8181818181818" y="171.8181818181818"/>
      <point x="362.3181818181818" y="271.95454545454544"/>
      <point x="362.3181818181818" y="433.54545454545456" type="curve" smooth="yes"/>
      <point x="362.3181818181818" y="548.5909090909091"/>
      <point x="412.6363636363636" y="632.5909090909091"/>
      <point x="505.27272727272725" y="691.3181818181819" type="curve"/>
      <point x="374.09090909090907" y="801.0" type="line"/>
      <point x="216.63636363636363" y="737.0454545454545"/>
      <point x="106.5" y="596.0909090909091"/>
      <point x="106.5" y="404.6363636363636" type="curve" smooth="yes"/>
      <point x="106.5" y="149.36363636363637"/>
      <point x="293.3181818181818" y="-18.0"/>
    </contour>
  </outline>
</glyph>
<glyph name="parenleft" format="2">
  <advance width="655.8181818181818"/>
  <unicode hex="0028"/>
  <outline>
    <contour>
      <point x="414.95454545454544" y="-440.0" type="curve"/>
      <point x="673.8181818181818" y="-440.0" type="line"/>
      <point x="458.9090909090909" y="-136.9090909090909"/>
      <point x="363.6363636363636" y="203.54545454545456"/>
      <point x="363.6363636363636" y="588.0" type="curve" smooth="yes"/>
      <point x="363.6363636363636" y="972.4545454545455"/>
      <point x="458.9090909090909" y="1312.909090909091"/>
      <point x="673.8181818181818" y="1616.0" type="curve"/>
      <point x="414.95454545454544" y="1616.0" type="line"/>
      <point x="196.27272727272728" y="1328.090909090909"/>
      <point x="102.63636363636364" y="979.0"/>
      <point x="102.63636363636364" y="588.0" type="curve" smooth="yes"/>
      <point x="102.63636363636364" y="197.0"/>
      <point x="196.27272727272728" y="-152.0909090909091"/>
    </contour>
  </outline>
</glyph>
<glyph name="parenright" format="2">
  <advance width="655.8181818181818"/>
  <unicode hex="0029"/>
  <outline>
    <contour>
      <point x="-18.0" y="-440.0" type="curve"/>
      <point x="240.86363636363637" y="-440.0" type="line"/>
      <point x="459.5454545454545" y="-152.0909090909091"/>
      <point x="553.1818181818181" y="197.0"/>
      <point x="553.1818181818181" y="588.0" type="curve" smooth="yes"/>
      <point x="553.1818181818181" y="979.0"/>
      <point x="459.5454545454545" y="1328.090909090909"/>
      <point x="240.86363636363637" y="1616.0" type="curve"/>
      <point x="-18.0" y="1616.0" type="line"/>
      <point x="196.90909090909093" y="1312.909090909091"/>
      <point x="292.1818181818182" y="972.4545454545455"/>
      <point x="292.1818181818182" y="588.0" type="curve" smooth="yes"/>
      <point x="292.1818181818182" y="203.54545454545456"/>
      <point x="196.90909090909093" y="-136.9090909090909"/>
    </contour>
  </outline>
</glyph>
<glyph name="asterisk" format="2">
  <advance width="951.6363636363636"/>
  <unicode hex="002A"/>
  <outline>
    <contour>
      <point x="568.9090909090909" y="1156.1818181818182" type="line"/>
      <point x="763.3636363636364" y="1187.2727272727273" type="line"/>
      <point x="921.6363636363636" y="1238.4545454545455" type="line"/>
      <point x="867.0" y="1405.6363636363637" type="line"/>
      <point x="709.6363636363636" y="1353.6363636363637" type="line"/>
      <point x="531.9090909090909" y="1262.5454545454545" type="line"/>
      <point x="563.7272727272727" y="1459.7272727272727" type="line"/>
      <point x="563.7272727272727" y="1616.0" type="line"/>
      <point x="387.90909090909093" y="1616.0" type="line"/>
      <point x="387.90909090909093" y="1459.7272727272727" type="line"/>
      <point x="419.72727272727275" y="1262.5454545454545" type="line"/>
      <point x="242.0" y="1353.6363636363637" type="line"/>
      <point x="84.63636363636363" y="1405.6363636363637" type="line"/>
      <point x="30.0" y="1238.4545454545455" type="line"/>
      <point x="188.27272727272728" y="1187.2727272727273" type="line"/>
      <point x="382.72727272727275" y="1156.1818181818182" type="line"/>
      <point x="242.54545454545456" y="1016.5454545454545" type="line"/>
      <point x="149.13636363636363" y="888.3181818181818" type="line"/>
      <point x="291.6818181818182" y="784.5909090909091" type="line"/>
      <point x="385.0909090909091" y="912.5454545454545" type="line"/>
      <point x="475.8181818181818" y="1094.1818181818182" type="line"/>
      <point x="566.5454545454545" y="912.5454545454545" type="line"/>
      <point x="659.9545454545455" y="784.5909090909091" type="line"/>
      <point x="802.5" y="888.3181818181818" type="line"/>
      <point x="709.090909090909" y="1016.5454545454545" type="line"/>
    </contour>
  </outline>
</glyph>
<glyph name="plus" format="2">
  <advance width="1059.1818181818182"/>
  <unicode hex="002B"/>
  <outline>
    <contour>
      <point x="426.04545454545456" y="338.72727272727275" type="line"/>
      <point x="633.1363636363636" y="338.72727272727275" type="line"/>
      <point x="633.1363636363636" y="660.9090909090909" type="line"/>
      <point x="941.0454545454545" y="660.9090909090909" type="line"/>
      <point x="941.0454545454545" y="859.0909090909091" type="line"/>
      <point x="633.1363636363636" y="859.0909090909091" type="line"/>
      <point x="633.1363636363636" y="1181.2727272727273" type="line"/>
      <point x="426.04545454545456" y="1181.2727272727273" type="line"/>
      <point x="426.04545454545456" y="859.0909090909091" type="line"/>
      <point x="118.13636363636364" y="859.0909090909091" type="line"/>
      <point x="118.13636363636364" y="660.9090909090909" type="line"/>
      <point x="426.04545454545456" y="660.9090909090909" type="line"/>
    </contour>
  </outline>
</glyph>
<glyph name="comma" format="2">
  <advance width="491.5454545454545"/>
  <unicode hex="002C"/>
  <outline>
    <contour>
      <point x="134.6818181818182" y="-332.72727272727275" type="curve"/>
      <point x="280.6818181818182" y="-332.72727272727275" type="line"/>
      <point x="359.59090909090907" y="-212.54545454545453"/>
      <point x="413.59090909090907" y="-54.909090909090914"/>
      <point x="413.59090909090907" y="97.72727272727272" type="curve" smooth="yes"/>
      <point x="413.59090909090907" y="240.0909090909091"/>
      <point x="352.1363636363636" y="309.6363636363636"/>
      <point x="241.5909090909091" y="309.6363636363636" type="curve" smooth="yes"/>
      <point x="142.5909090909091" y="309.6363636363636"/>
      <point x="77.4090909090909" y="249.27272727272725"/>
      <point x="77.4090909090909" y="147.54545454545453" type="curve" smooth="yes"/>
      <point x="77.4090909090909" y="47.36363636363636"/>
      <point x="147.3181818181818" y="-15.454545454545453"/>
      <point x="245.77272727272725" y="-15.454545454545453" type="curve" smooth="yes"/>
      <point x="278.5" y="-15.454545454545453" type="line"/>
      <point x="225.6818181818182" y="33.81818181818181" type="line"/>
      <point x="225.6818181818182" y="-85.63636363636364"/>
      <point x="191.95454545454544" y="-196.9090909090909"/>
    </contour>
  </outline>
</glyph>
<glyph name="hyphen" format="2">
  <advance width="803.5454545454545"/>
  <unicode hex="002D"/>
  <outline>
    <contour>
      <point x="118.13636363636364" y="461.72727272727275" type="line"/>
      <point x="685.4090909090909" y="461.72727272727275" type="line"/>
      <point x="685.4090909090909" y="669.1818181818181" type="line"/>
      <point x="118.13636363636364" y="669.1818181818181" type="line"/>
    </contour>
  </outline>
</glyph>
<glyph name="period" format="2">
  <advance width="491.5454545454545"/>
  <unicode hex="002E"/>
  <outline>
    <contour>
      <point x="245.77272727272725" y="-15.454545454545453" type="curve" smooth="yes"/>
      <point x="345.8636363636364" y="-15.454545454545453"/>
      <point x="414.1363636363636" y="48.63636363636363"/>
      <point x="414.1363636363636" y="146.63636363636363" type="curve" smooth="yes"/>
      <point x="414.1363636363636" y="244.63636363636363"/>
      <point x="348.0454545454545" y="309.6363636363636"/>
      <point x="245.77272727272725" y="309.6363636363636" type="curve" smooth="yes"/>
      <point x="143.5" y="309.6363636363636"/>
      <point x="77.4090909090909" y="246.8181818181818"/>
      <point x="77.4090909090909" y="146.63636363636363" type="curve" smooth="yes"/>
      <point x="77.4090909090909" y="46.45454545454545"/>
      <point x="145.6818181818182" y="-15.454545454545453"/>
    </contour>
  </outline>
</glyph>
<glyph name="slash" format="2">
  <advance width="662.7727272727273"/>
  <unicode hex="002F"/>
  <outline>
    <contour>
      <point x="0.0" y="-240.0" type="line"/>
      <point x="246.5" y="-240.0" type="line"/>
      <point x="662.7727272727273" y="1616.0" type="line"/>
      <point x="416.27272727272725" y="1616.0" type="line"/>
    </contour>
  </outline>
</glyph>
<glyph name="zero" format="2">
  <advance width="1221.4545454545455"/>
  <unicode hex="0030"/>
  <note>
600
</note>
  <outline>
    <contour>
      <point x="610.5909090909091" y="-19.09090909090909" type="curve" smooth="yes"/>
      <point x="934.5454545454545" y="-19.09090909090909"/>
      <point x="1128.8181818181818" y="198.36363636363637"/>
      <point x="1128.8181818181818" y="740.0" type="curve" smooth="yes"/>
      <point x="1128.8181818181818" y="1281.6363636363637"/>
      <point x="935.9090909090909" y="1499.090909090909"/>
      <point x="610.5909090909091" y="1499.090909090909" type="curve" smooth="yes"/>
      <point x="285.27272727272725" y="1499.090909090909"/>
      <point x="92.63636363636364" y="1281.6363636363637"/>
      <point x="92.63636363636364" y="740.0" type="curve" smooth="yes"/>
      <point x="92.63636363636364" y="198.36363636363637"/>
      <point x="286.6363636363636" y="-19.09090909090909"/>
    </contour>
    <contour>
      <point x="610.8636363636364" y="195.0" type="curve" smooth="yes"/>
      <point x="443.95454545454544" y="195.0"/>
      <point x="346.27272727272725" y="321.09090909090907"/>
      <point x="346.27272727272725" y="741.8181818181819" type="curve" smooth="yes"/>
      <point x="346.27272727272725" y="1158.909090909091"/>
      <point x="444.5" y="1285.0"/>
      <point x="610.8636363636364" y="1285.0" type="curve" smooth="yes"/>
      <point x="776.9545454545455" y="1285.0"/>
      <point x="875.1818181818182" y="1158.909090909091"/>
      <point x="875.1818181818182" y="738.1818181818181" type="curve" smooth="yes"/>
      <point x="875.1818181818182" y="321.09090909090907"/>
      <point x="776.9545454545455" y="195.0"/>
    </contour>
  </outline>
</glyph>
<glyph name="one" format="2">
  <advance width="720.7727272727273"/>
  <unicode hex="0031"/>
  <outline>
    <contour>
      <point x="320.40909090909093" y="0.0" type="line"/>
      <point x="576.590909090909" y="0.0" type="line"/>
      <point x="576.590909090909" y="1485.090909090909" type="line"/>
      <point x="416.5909090909091" y="1485.090909090909" type="line"/>
      <point x="19.863636363636363" y="1210.3181818181818" type="line"/>
      <point x="19.863636363636363" y="968.1818181818182" type="line"/>
      <point x="416.5909090909091" y="1242.5" type="line"/>
      <point x="320.40909090909093" y="1314.0" type="line"/>
    </contour>
  </outline>
</glyph>
<glyph name="two" format="2">
  <advance width="972.0"/>
  <unicode hex="0032"/>
  <outline>
    <contour>
      <point x="46.68181818181818" y="0.0" type="line"/>
      <point x="919.5454545454545" y="0.0" type="line"/>
      <point x="919.5454545454545" y="219.18181818181816" type="line"/>
      <point x="319.1818181818182" y="219.18181818181816" type="line"/>
      <point x="331.5454545454545" y="153.45454545454544" type="line"/>
      <point x="652.9545454545455" y="594.4090909090909" type="line" smooth="yes"/>
      <point x="802.0909090909091" y="796.5"/>
      <point x="851.0" y="938.8181818181819"/>
      <point x="851.6818181818181" y="1085.7727272727273" type="curve" smooth="yes"/>
      <point x="853.0454545454545" y="1377.0"/>
      <point x="671.5454545454545" y="1499.090909090909"/>
      <point x="356.0" y="1499.090909090909" type="curve" smooth="yes"/>
      <point x="244.5" y="1499.090909090909"/>
      <point x="111.0909090909091" y="1477.5"/>
      <point x="28.545454545454547" y="1445.2272727272727" type="curve"/>
      <point x="28.545454545454547" y="1230.7727272727273" type="line"/>
      <point x="116.63636363636364" y="1266.2272727272727"/>
      <point x="220.27272727272728" y="1285.5454545454545"/>
      <point x="325.72727272727275" y="1285.5454545454545" type="curve" smooth="yes"/>
      <point x="511.04545454545456" y="1285.5454545454545"/>
      <point x="597.5909090909091" y="1219.2727272727273"/>
      <point x="597.5909090909091" y="1064.0454545454545" type="curve" smooth="yes"/>
      <point x="597.5909090909091" y="955.1363636363636"/>
      <point x="550.6363636363636" y="843.2272727272727"/>
      <point x="427.77272727272725" y="671.8636363636364" type="curve" smooth="yes"/>
      <point x="46.68181818181818" y="141.1818181818182" type="line"/>
    </contour>
  </outline>
</glyph>
<glyph name="three" format="2">
  <advance width="993.6818181818182"/>
  <unicode hex="0033"/>
  <outline>
    <contour>
      <point x="386.27272727272725" y="-19.09090909090909" type="curve" smooth="yes"/>
      <point x="741.8636363636364" y="-19.09090909090909"/>
      <point x="934.4090909090909" y="135.3181818181818"/>
      <point x="934.4090909090909" y="403.3181818181818" type="curve" smooth="yes"/>
      <point x="934.4090909090909" y="609.7272727272727"/>
      <point x="815.8181818181818" y="740.4090909090909"/>
      <point x="593.1363636363636" y="773.9090909090909" type="curve"/>
      <point x="592.4545454545455" y="756.4545454545455" type="line"/>
      <point x="778.6818181818181" y="796.1363636363636"/>
      <point x="888.2727272727273" y="929.6818181818181"/>
      <point x="888.2727272727273" y="1114.1363636363637" type="curve" smooth="yes"/>
      <point x="888.2727272727273" y="1360.409090909091"/>
      <point x="720.8636363636364" y="1499.090909090909"/>
      <point x="398.1818181818182" y="1499.090909090909" type="curve" smooth="yes"/>
      <point x="283.3181818181818" y="1499.090909090909"/>
      <point x="151.22727272727272" y="1478.5"/>
      <point x="64.13636363636364" y="1445.909090909091" type="curve"/>
      <point x="64.13636363636364" y="1245.6363636363637" type="line"/>
      <point x="156.86363636363637" y="1280.590909090909"/>
      <point x="265.0909090909091" y="1299.1818181818182"/>
      <point x="369.72727272727275" y="1299.1818181818182" type="curve" smooth="yes"/>
      <point x="555.3181818181819" y="1299.1818181818182"/>
      <point x="641.8181818181819" y="1228.909090909091"/>
      <point x="641.8181818181819" y="1090.8636363636363" type="curve" smooth="yes"/>
      <point x="641.8181818181819" y="946.5"/>
      <point x="541.0" y="859.4545454545455"/>
      <point x="320.0909090909091" y="859.4545454545455" type="curve" smooth="yes"/>
      <point x="193.5" y="859.4545454545455" type="line"/>
      <point x="193.5" y="656.0" type="line"/>
      <point x="368.59090909090907" y="656.0" type="line" smooth="yes"/>
      <point x="595.9090909090909" y="656.0"/>
      <point x="689.8636363636364" y="568.6363636363636"/>
      <point x="689.8636363636364" y="418.1363636363636" type="curve" smooth="yes"/>
      <point x="689.8636363636364" y="260.9090909090909"/>
      <point x="587.5454545454545" y="180.8181818181818"/>
      <point x="378.1363636363636" y="180.8181818181818" type="curve" smooth="yes"/>
      <point x="272.8636363636364" y="180.8181818181818"/>
      <point x="146.36363636363637" y="198.72727272727272"/>
      <point x="39.86363636363636" y="231.40909090909088" type="curve"/>
      <point x="39.86363636363636" y="31.136363636363637" type="line"/>
      <point x="146.54545454545453" y="-1.727272727272727"/>
      <point x="264.1818181818182" y="-19.09090909090909"/>
    </contour>
  </outline>
</glyph>
<glyph name="four" format="2">
  <advance width="1166.8181818181818"/>
  <unicode hex="0034"/>
  <outline>
    <contour>
      <point x="38.90909090909091" y="326.45454545454544" type="line"/>
      <point x="1133.4545454545455" y="326.45454545454544" type="line"/>
      <point x="1133.4545454545455" y="527.3636363636364" type="line"/>
      <point x="258.6363636363636" y="527.3636363636364" type="line"/>
      <point x="291.6363636363636" y="467.8181818181818" type="line"/>
      <point x="791.4545454545455" y="1480.0" type="line"/>
      <point x="544.0909090909091" y="1480.0" type="line"/>
      <point x="38.90909090909091" y="468.72727272727275" type="line"/>
    </contour>
    <contour>
      <point x="715.0" y="0.0" type="line"/>
      <point x="945.5454545454545" y="0.0" type="line"/>
      <point x="945.5454545454545" y="980.0" type="line"/>
      <point x="743.1818181818182" y="980.0" type="line"/>
      <point x="715.0" y="527.3636363636364" type="line"/>
    </contour>
  </outline>
</glyph>
<glyph name="five" format="2">
  <advance width="1003.9090909090909"/>
  <unicode hex="0035"/>
  <outline>
    <contour>
      <point x="413.8636363636364" y="-19.09090909090909" type="curve" smooth="yes"/>
      <point x="767.0909090909091" y="-19.09090909090909"/>
      <point x="958.8636363636364" y="135.54545454545453"/>
      <point x="959.1363636363636" y="431.5" type="curve" smooth="yes"/>
      <point x="959.4090909090909" y="712.4090909090909"/>
      <point x="785.090909090909" y="854.2272727272727"/>
      <point x="381.95454545454544" y="878.9545454545455" type="curve" smooth="yes"/>
      <point x="218.45454545454544" y="888.6363636363636" type="line"/>
      <point x="358.5454545454545" y="791.7272727272727" type="line"/>
      <point x="397.3181818181818" y="1386.3636363636365" type="line"/>
      <point x="283.9090909090909" y="1273.3636363636365" type="line"/>
      <point x="900.6818181818182" y="1273.3636363636365" type="line"/>
      <point x="900.6818181818182" y="1480.0" type="line"/>
      <point x="161.0909090909091" y="1480.0" type="line"/>
      <point x="112.77272727272728" y="691.7272727272727" type="line"/>
      <point x="276.27272727272725" y="682.0454545454545" type="line" smooth="yes"/>
      <point x="615.0" y="661.5"/>
      <point x="714.3181818181819" y="584.8181818181819"/>
      <point x="714.3181818181819" y="423.72727272727275" type="curve" smooth="yes"/>
      <point x="714.3181818181819" y="263.59090909090907"/>
      <point x="616.7727272727273" y="181.9090909090909"/>
      <point x="406.40909090909093" y="181.9090909090909" type="curve" smooth="yes"/>
      <point x="298.6363636363636" y="181.9090909090909"/>
      <point x="172.13636363636363" y="201.3181818181818"/>
      <point x="66.77272727272728" y="234.13636363636363" type="curve"/>
      <point x="66.77272727272728" y="33.86363636363637" type="line"/>
      <point x="171.86363636363637" y="-0.13636363636363624"/>
      <point x="290.8636363636364" y="-19.09090909090909"/>
    </contour>
  </outline>
</glyph>
<glyph name="six" format="2">
  <advance width="1140.8636363636363"/>
  <unicode hex="0036"/>
  <outline>
    <contour>
      <point x="625.9090909090909" y="-19.09090909090909" type="curve" smooth="yes"/>
      <point x="900.590909090909" y="-19.09090909090909"/>
      <point x="1091.7727272727273" y="142.3181818181818"/>
      <point x="1091.7727272727273" y="437.04545454545456" type="curve" smooth="yes"/>
      <point x="1091.7727272727273" y="739.2272727272727"/>
      <point x="897.3181818181818" y="874.9090909090909"/>
      <point x="651.6363636363636" y="874.9090909090909" type="curve" smooth="yes"/>
      <point x="513.6818181818181" y="874.9090909090909"/>
      <point x="378.9545454545455" y="823.8181818181818"/>
      <point x="307.4090909090909" y="736.0909090909091" type="curve"/>
      <point x="307.4090909090909" y="541.6818181818182" type="line"/>
      <point x="379.27272727272725" y="642.1363636363636"/>
      <point x="497.1818181818182" y="682.3636363636364"/>
      <point x="603.7272727272727" y="682.3636363636364" type="curve" smooth="yes"/>
      <point x="752.8636363636364" y="682.3636363636364"/>
      <point x="857.3181818181819" y="607.0454545454545"/>
      <point x="857.3181818181819" y="428.3636363636364" type="curve" smooth="yes"/>
      <point x="857.3181818181819" y="250.3181818181818"/>
      <point x="756.9090909090909" y="175.0909090909091"/>
      <point x="628.2272727272727" y="175.0909090909091" type="curve" smooth="yes"/>
      <point x="465.0909090909091" y="175.0909090909091"/>
      <point x="354.5" y="276.3636363636364"/>
      <point x="354.5" y="655.4545454545455" type="curve" smooth="yes"/>
      <point x="354.5" y="756.9090909090909" type="line" smooth="yes"/>
      <point x="354.5" y="1140.3181818181818"/>
      <point x="492.45454545454544" y="1294.8181818181818"/>
      <point x="763.5" y="1294.8181818181818" type="curve" smooth="yes"/>
      <point x="856.3181818181818" y="1294.8181818181818"/>
      <point x="941.6363636363636" y="1281.8636363636365"/>
      <point x="1021.3181818181818" y="1253.2272727272727" type="curve"/>
      <point x="1021.3181818181818" y="1457.8636363636363" type="line"/>
      <point x="945.9545454545455" y="1487.6363636363637"/>
      <point x="850.7727272727273" y="1499.090909090909"/>
      <point x="755.0909090909091" y="1499.090909090909" type="curve" smooth="yes"/>
      <point x="343.6363636363636" y="1499.090909090909"/>
      <point x="103.4090909090909" y="1254.7272727272727"/>
      <point x="103.4090909090909" y="694.2727272727273" type="curve" smooth="yes"/>
      <point x="103.4090909090909" y="172.0909090909091"/>
      <point x="318.1818181818182" y="-19.09090909090909"/>
    </contour>
  </outline>
</glyph>
<glyph name="seven" format="2">
  <advance width="929.0909090909091"/>
  <unicode hex="0037"/>
  <outline>
    <contour>
      <point x="138.72727272727272" y="0.0" type="line"/>
      <point x="403.0454545454545" y="0.0" type="line"/>
      <point x="872.1363636363636" y="1338.8181818181818" type="line"/>
      <point x="872.1363636363636" y="1480.0" type="line"/>
      <point x="10.272727272727273" y="1480.0" type="line"/>
      <point x="10.272727272727273" y="1260.8181818181818" type="line"/>
      <point x="709.9545454545455" y="1260.8181818181818" type="line"/>
      <point x="625.9090909090909" y="1339.7272727272727" type="line"/>
    </contour>
  </outline>
</glyph>
<glyph name="eight" format="2">
  <advance width="1221.4545454545455"/>
  <unicode hex="0038"/>
  <outline>
    <contour>
      <point x="616.9090909090909" y="-19.09090909090909" type="curve" smooth="yes"/>
      <point x="953.4545454545455" y="-19.09090909090909"/>
      <point x="1141.090909090909" y="150.0"/>
      <point x="1141.090909090909" y="392.22727272727275" type="curve" smooth="yes"/>
      <point x="1141.090909090909" y="608.0"/>
      <point x="1030.1363636363635" y="734.1363636363636"/>
      <point x="689.590909090909" y="836.2727272727273" type="curve" smooth="yes"/>
      <point x="426.22727272727275" y="913.9545454545455"/>
      <point x="363.5" y="980.5909090909091"/>
      <point x="363.5" y="1108.8636363636363" type="curve" smooth="yes"/>
      <point x="363.5" y="1232.1363636363637"/>
      <point x="450.1818181818182" y="1313.909090909091"/>
      <point x="620.0454545454545" y="1313.909090909091" type="curve" smooth="yes"/>
      <point x="784.0909090909091" y="1313.909090909091"/>
      <point x="877.5454545454545" y="1239.6818181818182"/>
      <point x="877.5454545454545" y="1103.3181818181818" type="curve" smooth="yes"/>
      <point x="877.5454545454545" y="975.6363636363636"/>
      <point x="814.6818181818182" y="891.9545454545455"/>
      <point x="664.7727272727273" y="817.8181818181818" type="curve"/>
      <point x="826.5" y="746.0454545454545" type="line"/>
      <point x="1018.1363636363636" y="830.1818181818181"/>
      <point x="1099.909090909091" y="964.5909090909091"/>
      <point x="1099.909090909091" y="1123.7272727272727" type="curve" smooth="yes"/>
      <point x="1099.909090909091" y="1355.5454545454545"/>
      <point x="918.2272727272727" y="1499.090909090909"/>
      <point x="620.5454545454545" y="1499.090909090909" type="curve" smooth="yes"/>
      <point x="299.0909090909091" y="1499.090909090909"/>
      <point x="119.13636363636364" y="1340.5454545454545"/>
      <point x="119.13636363636364" y="1100.3181818181818" type="curve" smooth="yes"/>
      <point x="119.13636363636364" y="887.1818181818182"/>
      <point x="236.6818181818182" y="743.4545454545455"/>
      <point x="574.0909090909091" y="647.9545454545455" type="curve" smooth="yes"/>
      <point x="827.1818181818181" y="576.8181818181819"/>
      <point x="900.0" y="512.6363636363636"/>
      <point x="900.0" y="378.27272727272725" type="curve" smooth="yes"/>
      <point x="900.0" y="244.77272727272725"/>
      <point x="804.0454545454545" y="166.09090909090907"/>
      <point x="617.4090909090909" y="166.09090909090907" type="curve" smooth="yes"/>
      <point x="418.1818181818182" y="166.09090909090907"/>
      <point x="320.1363636363636" y="248.86363636363637"/>
      <point x="320.1363636363636" y="394.8181818181818" type="curve" smooth="yes"/>
      <point x="320.1363636363636" y="522.1363636363636"/>
      <point x="400.0909090909091" y="634.2727272727273"/>
      <point x="555.0909090909091" y="684.7727272727273" type="curve"/>
      <point x="384.04545454545456" y="757.0909090909091" type="line"/>
      <point x="188.45454545454547" y="688.0"/>
      <point x="78.72727272727273" y="547.0"/>
      <point x="78.72727272727273" y="371.1818181818182" type="curve" smooth="yes"/>
      <point x="78.72727272727273" y="136.4090909090909"/>
      <point x="258.0" y="-19.09090909090909"/>
    </contour>
  </outline>
</glyph>
<glyph name="nine" format="2">
  <advance width="1140.8636363636363"/>
  <unicode hex="0039"/>
  <outline>
    <contour>
      <point x="514.9545454545455" y="1499.090909090909" type="curve" smooth="yes"/>
      <point x="240.27272727272728" y="1499.090909090909"/>
      <point x="49.09090909090909" y="1337.6818181818182"/>
      <point x="49.09090909090909" y="1042.9545454545455" type="curve" smooth="yes"/>
      <point x="49.09090909090909" y="740.7727272727273"/>
      <point x="243.54545454545453" y="605.0909090909091"/>
      <point x="489.22727272727275" y="605.0909090909091" type="curve" smooth="yes"/>
      <point x="627.1818181818181" y="605.0909090909091"/>
      <point x="761.9090909090909" y="656.1818181818182"/>
      <point x="833.4545454545455" y="743.9090909090909" type="curve"/>
      <point x="833.4545454545455" y="938.3181818181818" type="line"/>
      <point x="761.5909090909091" y="837.8636363636364"/>
      <point x="643.6818181818181" y="797.6363636363636"/>
      <point x="537.1363636363636" y="797.6363636363636" type="curve" smooth="yes"/>
      <point x="388.0" y="797.6363636363636"/>
      <point x="283.5454545454545" y="872.9545454545455"/>
      <point x="283.5454545454545" y="1051.6363636363637" type="curve" smooth="yes"/>
      <point x="283.5454545454545" y="1229.6818181818182"/>
      <point x="383.95454545454544" y="1304.909090909091"/>
      <point x="512.6363636363636" y="1304.909090909091" type="curve" smooth="yes"/>
      <point x="675.7727272727273" y="1304.909090909091"/>
      <point x="786.3636363636364" y="1203.6363636363637"/>
      <point x="786.3636363636364" y="824.5454545454545" type="curve" smooth="yes"/>
      <point x="786.3636363636364" y="723.0909090909091" type="line" smooth="yes"/>
      <point x="786.3636363636364" y="339.6818181818182"/>
      <point x="648.4090909090909" y="185.18181818181816"/>
      <point x="377.3636363636364" y="185.18181818181816" type="curve" smooth="yes"/>
      <point x="284.54545454545456" y="185.18181818181816"/>
      <point x="199.22727272727272" y="198.13636363636363"/>
      <point x="119.54545454545455" y="226.77272727272728" type="curve"/>
      <point x="119.54545454545455" y="22.136363636363637" type="line"/>
      <point x="194.9090909090909" y="-7.636363636363637"/>
      <point x="290.09090909090907" y="-19.09090909090909"/>
      <point x="385.77272727272725" y="-19.09090909090909" type="curve" smooth="yes"/>
      <point x="797.2272727272727" y="-19.09090909090909"/>
      <point x="1037.4545454545455" y="225.27272727272728"/>
      <point x="1037.4545454545455" y="785.7272727272727" type="curve" smooth="yes"/>
      <point x="1037.4545454545455" y="1307.909090909091"/>
      <point x="822.6818181818182" y="1499.090909090909"/>
    </contour>
  </outline>
</glyph>
<glyph name="colon" format="2">
  <advance width="491.5454545454545"/>
  <unicode hex="003A"/>
  <outline>
    <contour>
      <point x="245.77272727272725" y="-15.454545454545453" type="curve" smooth="yes"/>
      <point x="345.8636363636364" y="-15.454545454545453"/>
      <point x="414.1363636363636" y="48.63636363636363"/>
      <point x="414.1363636363636" y="146.63636363636363" type="curve" smooth="yes"/>
      <point x="414.1363636363636" y="244.63636363636363"/>
      <point x="348.0454545454545" y="309.6363636363636"/>
      <point x="245.77272727272725" y="309.6363636363636" type="curve" smooth="yes"/>
      <point x="143.5" y="309.6363636363636"/>
      <point x="77.4090909090909" y="246.8181818181818"/>
      <point x="77.4090909090909" y="146.63636363636363" type="curve" smooth="yes"/>
      <point x="77.4090909090909" y="46.45454545454545"/>
      <point x="145.6818181818182" y="-15.454545454545453"/>
    </contour>
    <contour>
      <point x="245.77272727272725" y="781.2727272727273" type="curve" smooth="yes"/>
      <point x="345.8636363636364" y="781.2727272727273"/>
      <point x="414.1363636363636" y="845.3636363636364"/>
      <point x="414.1363636363636" y="943.3636363636364" type="curve" smooth="yes"/>
      <point x="414.1363636363636" y="1041.3636363636363"/>
      <point x="348.0454545454545" y="1106.3636363636363"/>
      <point x="245.77272727272725" y="1106.3636363636363" type="curve" smooth="yes"/>
      <point x="143.5" y="1106.3636363636363"/>
      <point x="77.4090909090909" y="1043.5454545454545"/>
      <point x="77.4090909090909" y="943.3636363636364" type="curve" smooth="yes"/>
      <point x="77.4090909090909" y="843.1818181818182"/>
      <point x="145.6818181818182" y="781.2727272727273"/>
    </contour>
  </outline>
</glyph>
<glyph name="semicolon" format="2">
  <advance width="491.5454545454545"/>
  <unicode hex="003B"/>
  <outline>
    <contour>
      <point x="134.6818181818182" y="-332.72727272727275" type="curve"/>
      <point x="280.6818181818182" y="-332.72727272727275" type="line"/>
      <point x="359.59090909090907" y="-212.54545454545453"/>
      <point x="413.59090909090907" y="-54.909090909090914"/>
      <point x="413.59090909090907" y="97.72727272727272" type="curve" smooth="yes"/>
      <point x="413.59090909090907" y="240.0909090909091"/>
      <point x="352.1363636363636" y="309.6363636363636"/>
      <point x="241.5909090909091" y="309.6363636363636" type="curve" smooth="yes"/>
      <point x="142.5909090909091" y="309.6363636363636"/>
      <point x="77.4090909090909" y="249.27272727272725"/>
      <point x="77.4090909090909" y="147.54545454545453" type="curve" smooth="yes"/>
      <point x="77.4090909090909" y="47.36363636363636"/>
      <point x="147.3181818181818" y="-15.454545454545453"/>
      <point x="245.77272727272725" y="-15.454545454545453" type="curve" smooth="yes"/>
      <point x="278.5" y="-15.454545454545453" type="line"/>
      <point x="225.6818181818182" y="33.81818181818181" type="line"/>
      <point x="225.6818181818182" y="-85.63636363636364"/>
      <point x="191.95454545454544" y="-196.9090909090909"/>
    </contour>
    <contour>
      <point x="245.77272727272725" y="781.2727272727273" type="curve" smooth="yes"/>
      <point x="345.8636363636364" y="781.2727272727273"/>
      <point x="414.1363636363636" y="845.3636363636364"/>
      <point x="414.1363636363636" y="943.3636363636364" type="curve" smooth="yes"/>
      <point x="414.1363636363636" y="1041.3636363636363"/>
      <point x="348.0454545454545" y="1106.3636363636363"/>
      <point x="245.77272727272725" y="1106.3636363636363" type="curve" smooth="yes"/>
      <point x="143.5" y="1106.3636363636363"/>
      <point x="77.4090909090909" y="1043.5454545454545"/>
      <point x="77.4090909090909" y="943.3636363636364" type="curve" smooth="yes"/>
      <point x="77.4090909090909" y="843.1818181818182"/>
      <point x="145.6818181818182" y="781.2727272727273"/>
    </contour>
  </outline>
</glyph>
<glyph name="less" format="2">
  <advance width="1059.1818181818182"/>
  <unicode hex="003C"/>
  <outline>
    <contour>
      <point x="941.0454545454545" y="309.45454545454544" type="line"/>
      <point x="941.0454545454545" y="511.27272727272725" type="line"/>
      <point x="268.04545454545456" y="775.0" type="line"/>
      <point x="268.04545454545456" y="746.3636363636364" type="line"/>
      <point x="941.0454545454545" y="1008.7272727272727" type="line"/>
      <point x="941.0454545454545" y="1210.5454545454545" type="line"/>
      <point x="118.13636363636364" y="880.3636363636364" type="line"/>
      <point x="118.13636363636364" y="639.6363636363636" type="line"/>
    </contour>
  </outline>
</glyph>
<glyph name="equal" format="2">
  <advance width="1059.1818181818182"/>
  <unicode hex="003D"/>
  <outline>
    <contour>
      <point x="118.13636363636364" y="871.8181818181819" type="line"/>
      <point x="941.0454545454545" y="871.8181818181819" type="line"/>
      <point x="941.0454545454545" y="1070.0" type="line"/>
      <point x="118.13636363636364" y="1070.0" type="line"/>
    </contour>
    <contour>
      <point x="118.13636363636364" y="450.0" type="line"/>
      <point x="941.0454545454545" y="450.0" type="line"/>
      <point x="941.0454545454545" y="648.1818181818181" type="line"/>
      <point x="118.13636363636364" y="648.1818181818181" type="line"/>
    </contour>
  </outline>
</glyph>
<glyph name="greater" format="2">
  <advance width="1059.1818181818182"/>
  <unicode hex="003E"/>
  <outline>
    <contour>
      <point x="118.13636363636364" y="309.45454545454544" type="line"/>
      <point x="941.0454545454545" y="639.6363636363636" type="line"/>
      <point x="941.0454545454545" y="880.3636363636364" type="line"/>
      <point x="118.13636363636364" y="1210.5454545454545" type="line"/>
      <point x="118.13636363636364" y="1008.7272727272727" type="line"/>
      <point x="791.1363636363636" y="746.3636363636364" type="line"/>
      <point x="791.1363636363636" y="775.0" type="line"/>
      <point x="118.13636363636364" y="511.27272727272725" type="line"/>
    </contour>
  </outline>
</glyph>
<glyph name="question" format="2">
  <advance width="901.6818181818182"/>
  <unicode hex="003F"/>
  <outline>
    <contour>
      <point x="318.8181818181818" y="426.5454545454545" type="line"/>
      <point x="475.09090909090907" y="426.5454545454545" type="line"/>
      <point x="495.72727272727275" y="686.2272727272727" type="line"/>
      <point x="736.5" y="772.0909090909091"/>
      <point x="853.0454545454545" y="903.4090909090909"/>
      <point x="853.0454545454545" y="1112.7727272727273" type="curve" smooth="yes"/>
      <point x="853.0454545454545" y="1360.409090909091"/>
      <point x="685.6363636363636" y="1499.090909090909"/>
      <point x="362.95454545454544" y="1499.090909090909" type="curve" smooth="yes"/>
      <point x="248.0909090909091" y="1499.090909090909"/>
      <point x="116.0" y="1478.5"/>
      <point x="28.90909090909091" y="1445.909090909091" type="curve"/>
      <point x="28.90909090909091" y="1242.909090909091" type="line"/>
      <point x="121.63636363636364" y="1277.8636363636365"/>
      <point x="229.3181818181818" y="1296.4545454545455"/>
      <point x="333.27272727272725" y="1296.4545454545455" type="curve" smooth="yes"/>
      <point x="520.0909090909091" y="1296.4545454545455"/>
      <point x="606.5909090909091" y="1227.0"/>
      <point x="606.5909090909091" y="1090.3181818181818" type="curve" smooth="yes"/>
      <point x="606.5909090909091" y="959.2727272727273"/>
      <point x="531.5454545454545" y="875.6818181818181"/>
      <point x="275.45454545454544" y="808.0" type="curve"/>
    </contour>
    <contour>
      <point x="397.09090909090907" y="-15.454545454545453" type="curve" smooth="yes"/>
      <point x="498.09090909090907" y="-15.454545454545453"/>
      <point x="565.4545454545455" y="48.45454545454545"/>
      <point x="565.4545454545455" y="141.45454545454544" type="curve" smooth="yes"/>
      <point x="565.4545454545455" y="235.36363636363637"/>
      <point x="499.3636363636364" y="299.27272727272725"/>
      <point x="397.09090909090907" y="299.27272727272725" type="curve" smooth="yes"/>
      <point x="294.8181818181818" y="299.27272727272725"/>
      <point x="228.72727272727272" y="237.54545454545453"/>
      <point x="228.72727272727272" y="141.45454545454544" type="curve" smooth="yes"/>
      <point x="228.72727272727272" y="46.272727272727266"/>
      <point x="297.0" y="-15.454545454545453"/>
    </contour>
  </outline>
</glyph>
<glyph name="at" format="2">
  <advance width="1907.1363636363635"/>
  <unicode hex="0040"/>
  <outline>
    <contour>
      <point x="997.6818181818182" y="-460.0" type="curve" smooth="yes"/>
      <point x="1139.6818181818182" y="-460.0"/>
      <point x="1276.5" y="-439.72727272727275"/>
      <point x="1401.5454545454545" y="-405.09090909090907" type="curve"/>
      <point x="1401.5454545454545" y="-231.8181818181818" type="line"/>
      <point x="1266.090909090909" y="-268.9545454545455"/>
      <point x="1136.7272727272727" y="-287.6363636363636"/>
      <point x="997.6818181818182" y="-287.6363636363636" type="curve" smooth="yes"/>
      <point x="511.5" y="-287.6363636363636"/>
      <point x="282.8181818181818" y="-77.22727272727273"/>
      <point x="282.8181818181818" y="521.8181818181819" type="curve" smooth="yes"/>
      <point x="282.8181818181818" y="1115.409090909091"/>
      <point x="511.0454545454545" y="1325.6363636363637"/>
      <point x="961.1363636363636" y="1325.6363636363637" type="curve" smooth="yes"/>
      <point x="1411.2727272727273" y="1325.6363636363637"/>
      <point x="1637.590909090909" y="1120.6818181818182"/>
      <point x="1639.2272727272727" y="568.1818181818181" type="curve" smooth="yes"/>
      <point x="1640.590909090909" y="242.95454545454544"/>
      <point x="1565.1363636363635" y="156.0"/>
      <point x="1474.7727272727273" y="156.0" type="curve" smooth="yes"/>
      <point x="1409.8181818181818" y="156.0"/>
      <point x="1377.3181818181818" y="195.13636363636363"/>
      <point x="1377.3181818181818" y="285.8181818181818" type="curve" smooth="yes"/>
      <point x="1377.3181818181818" y="681.4090909090909" type="line" smooth="yes"/>
      <point x="1377.3181818181818" y="990.7272727272727"/>
      <point x="1236.0454545454545" y="1097.090909090909"/>
      <point x="940.3636363636364" y="1097.090909090909" type="curve" smooth="yes"/>
      <point x="839.5454545454545" y="1097.090909090909"/>
      <point x="717.8636363636364" y="1079.2272727272727"/>
      <point x="624.8181818181818" y="1047.0454545454545" type="curve"/>
      <point x="623.1818181818181" y="847.8636363636364" type="line"/>
      <point x="714.7272727272727" y="881.2727272727273"/>
      <point x="817.0454545454545" y="897.1818181818182"/>
      <point x="897.3636363636364" y="897.1818181818182" type="curve" smooth="yes"/>
      <point x="1060.7727272727273" y="897.1818181818182"/>
      <point x="1131.5" y="847.9090909090909"/>
      <point x="1131.5" y="691.9545454545455" type="curve" smooth="yes"/>
      <point x="1131.5" y="259.72727272727275" type="line"/>
      <point x="1078.909090909091" y="192.1818181818182"/>
      <point x="1005.0909090909091" y="168.36363636363637"/>
      <point x="943.6818181818181" y="168.36363636363637" type="curve" smooth="yes"/>
      <point x="847.4090909090909" y="168.36363636363637"/>
      <point x="788.9090909090909" y="216.5"/>
      <point x="788.9090909090909" y="317.4090909090909" type="curve" smooth="yes"/>
      <point x="788.9090909090909" y="415.27272727272725"/>
      <point x="846.7727272727273" y="467.6363636363636"/>
      <point x="972.0" y="479.8636363636364" type="curve" smooth="yes"/>
      <point x="1204.0" y="501.6363636363636" type="line"/>
      <point x="1174.4545454545455" y="647.2727272727273" type="line"/>
      <point x="947.5909090909091" y="625.5" type="line" smooth="yes"/>
      <point x="661.5" y="601.8181818181819"/>
      <point x="539.8181818181818" y="489.95454545454544"/>
      <point x="539.8181818181818" y="288.8636363636364" type="curve" smooth="yes"/>
      <point x="539.8181818181818" y="98.31818181818181"/>
      <point x="665.6363636363636" y="-19.272727272727273"/>
      <point x="862.8181818181818" y="-19.272727272727273" type="curve" smooth="yes"/>
      <point x="978.9545454545455" y="-19.272727272727273"/>
      <point x="1086.6818181818182" y="23.090909090909093"/>
      <point x="1139.5454545454545" y="128.36363636363637" type="curve"/>
      <point x="1154.0454545454545" y="128.36363636363637" type="line"/>
      <point x="1200.2727272727273" y="32.59090909090909"/>
      <point x="1290.3181818181818" y="-19.272727272727273"/>
      <point x="1424.6818181818182" y="-19.272727272727273" type="curve" smooth="yes"/>
      <point x="1654.5454545454545" y="-19.272727272727273"/>
      <point x="1824.2727272727273" y="143.1818181818182"/>
      <point x="1824.5" y="575.2727272727273" type="curve" smooth="yes"/>
      <point x="1824.7272727272727" y="1206.9545454545455"/>
      <point x="1512.2272727272727" y="1498.0"/>
      <point x="961.1363636363636" y="1498.0" type="curve" smooth="yes"/>
      <point x="409.8636363636364" y="1498.0"/>
      <point x="82.63636363636364" y="1206.9545454545455"/>
      <point x="82.63636363636364" y="520.0" type="curve" smooth="yes"/>
      <point x="82.63636363636364" y="-170.13636363636363"/>
      <point x="411.45454545454544" y="-459.77272727272725"/>
    </contour>
  </outline>
</glyph>
<glyph name="B" format="2">
  <advance width="1239.7272727272727"/>
  <unicode hex="0042"/>
  <anchor x="630.2727272727273" y="0.0" name="bottom"/>
  <anchor x="630.2727272727273" y="1480.0" name="top"/>
  <outline>
    <contour>
      <point x="510.5" y="-15.454545454545453" type="curve" smooth="yes"/>
      <point x="994.6818181818182" y="-15.454545454545453"/>
      <point x="1185.3636363636365" y="132.4090909090909"/>
      <point x="1185.3636363636365" y="408.04545454545456" type="curve" smooth="yes"/>
      <point x="1185.3636363636365" y="616.4090909090909"/>
      <point x="1068.909090909091" y="741.2727272727273"/>
      <point x="868.4545454545455" y="769.5909090909091" type="curve"/>
      <point x="867.7727272727273" y="756.4545454545455" type="line"/>
      <point x="1054.2272727272727" y="790.7727272727273"/>
      <point x="1143.6818181818182" y="928.8636363636364"/>
      <point x="1143.6818181818182" y="1094.0" type="curve" smooth="yes"/>
      <point x="1143.6818181818182" y="1368.7727272727273"/>
      <point x="964.2272727272727" y="1497.2727272727273"/>
      <point x="556.3181818181818" y="1497.2727272727273" type="curve" smooth="yes"/>
      <point x="407.1818181818182" y="1497.2727272727273"/>
      <point x="256.5909090909091" y="1479.5454545454545"/>
      <point x="134.1818181818182" y="1453.4545454545455" type="curve"/>
      <point x="134.1818181818182" y="10.545454545454543" type="line"/>
      <point x="252.45454545454547" y="-5.7727272727272725"/>
      <point x="395.3181818181818" y="-15.454545454545453"/>
    </contour>
    <contour>
      <point x="575.2272727272727" y="180.9090909090909" type="curve" smooth="yes"/>
      <point x="511.0909090909091" y="180.9090909090909"/>
      <point x="451.81818181818176" y="183.09090909090907"/>
      <point x="384.6363636363636" y="190.09090909090907" type="curve"/>
      <point x="384.6363636363636" y="1284.2272727272727" type="line"/>
      <point x="446.6818181818182" y="1295.0"/>
      <point x="509.27272727272725" y="1300.909090909091"/>
      <point x="589.5454545454545" y="1300.909090909091" type="curve" smooth="yes"/>
      <point x="816.7272727272727" y="1300.909090909091"/>
      <point x="901.2727272727273" y="1236.590909090909"/>
      <point x="901.2727272727273" y="1079.8181818181818" type="curve" smooth="yes"/>
      <point x="901.2727272727273" y="932.7727272727273"/>
      <point x="824.4090909090909" y="858.3636363636364"/>
      <point x="598.6818181818181" y="858.3636363636364" type="curve" smooth="yes"/>
      <point x="357.18181818181813" y="858.3636363636364" type="line"/>
      <point x="357.18181818181813" y="656.2727272727273" type="line"/>
      <point x="630.0" y="656.2727272727273" type="line" smooth="yes"/>
      <point x="849.9090909090909" y="656.2727272727273"/>
      <point x="944.6363636363636" y="580.5"/>
      <point x="944.6363636363636" y="418.8636363636364" type="curve" smooth="yes"/>
      <point x="944.6363636363636" y="255.6818181818182"/>
      <point x="850.6818181818181" y="180.9090909090909"/>
    </contour>
  </outline>
</glyph>
<glyph name="F" format="2">
  <advance width="1089.6363636363635"/>
  <unicode hex="0046"/>
  <outline>
    <contour>
      <point x="134.1818181818182" y="0.0" type="line"/>
      <point x="390.3636363636364" y="0.0" type="line"/>
      <point x="390.3636363636364" y="1262.6363636363637" type="line"/>
      <point x="1060.2727272727273" y="1262.6363636363637" type="line"/>
      <point x="1060.2727272727273" y="1480.0" type="line"/>
      <point x="134.1818181818182" y="1480.0" type="line"/>
    </contour>
    <contour>
      <point x="310.6363636363636" y="622.7272727272727" type="line"/>
      <point x="962.8636363636364" y="622.7272727272727" type="line"/>
      <point x="962.8636363636364" y="840.0909090909091" type="line"/>
      <point x="310.6363636363636" y="840.0909090909091" type="line"/>
    </contour>
  </outline>
</glyph>
<glyph name="H" format="2">
  <advance width="1398.4545454545455"/>
  <unicode hex="0048"/>
  <anchor x="699.7727272727273" y="0.0" name="bottom"/>
  <anchor x="699.7727272727273" y="1175.7272727272727" name="center"/>
  <anchor x="699.7727272727273" y="1520.0" name="top"/>
  <anchor x="34.95454545454545" y="1480.0" name="topleft"/>
  <outline>
    <contour>
      <point x="134.1818181818182" y="0.0" type="line"/>
      <point x="390.3636363636364" y="0.0" type="line"/>
      <point x="390.3636363636364" y="642.0909090909091" type="line"/>
      <point x="1008.0909090909091" y="642.0909090909091" type="line"/>
      <point x="1008.0909090909091" y="0.0" type="line"/>
      <point x="1264.2727272727273" y="0.0" type="line"/>
      <point x="1264.2727272727273" y="1480.0" type="line"/>
      <point x="1008.0909090909091" y="1480.0" type="line"/>
      <point x="1008.0909090909091" y="873.3636363636364" type="line"/>
      <point x="390.3636363636364" y="873.3636363636364" type="line"/>
      <point x="390.3636363636364" y="1480.0" type="line"/>
      <point x="134.1818181818182" y="1480.0" type="line"/>
    </contour>
  </outline>
</glyph>
<glyph name="I" format="2">
  <advance width="524.5454545454545"/>
  <unicode hex="0049"/>
  <anchor x="262.0" y="0.0" name="bottom"/>
  <anchor x="390.3636363636364" y="0.0" name="ogonek"/>
  <anchor x="262.27272727272725" y="1520.0" name="top"/>
  <outline>
    <contour>
      <point x="134.1818181818182" y="0.0" type="line"/>
      <point x="390.3636363636364" y="0.0" type="line"/>
      <point x="390.3636363636364" y="1480.0" type="line"/>
      <point x="134.1818181818182" y="1480.0" type="line"/>
    </contour>
  </outline>
</glyph>
<glyph name="J" format="2">
  <advance width="524.5454545454545"/>
  <unicode hex="004A"/>
  <anchor x="411.27272727272725" y="0.0" name="bottom"/>
  <anchor x="262.54545454545456" y="1520.0" name="top"/>
  <outline>
    <contour>
      <point x="143.36363636363637" y="-346.54545454545456" type="line"/>
      <point x="322.5909090909091" y="-136.27272727272728"/>
      <point x="386.0454545454545" y="48.72727272727272"/>
      <point x="390.3636363636364" y="290.77272727272725" type="curve"/>
      <point x="390.3636363636364" y="1480.0" type="line"/>
      <point x="134.72727272727272" y="1480.0" type="line"/>
      <point x="134.72727272727272" y="296.3636363636364" type="line" smooth="yes"/>
      <point x="134.72727272727272" y="72.63636363636363"/>
      <point x="93.0" y="-68.81818181818181"/>
      <point x="-23.681818181818183" y="-235.40909090909093" type="curve"/>
    </contour>
  </outline>
</glyph>
<glyph name="K" format="2">
  <advance width="1222.5"/>
  <unicode hex="004B"/>
  <anchor x="641.9090909090909" y="0.0" name="bottom"/>
  <anchor x="636.1818181818181" y="1480.0" name="top"/>
  <outline>
    <contour>
      <point x="989.8181818181819" y="0.0" type="line"/>
      <point x="1269.1363636363635" y="0.0" type="line"/>
      <point x="723.2272727272727" y="796.3636363636364" type="line"/>
      <point x="719.9545454545455" y="725.4545454545455" type="line"/>
      <point x="1228.5" y="1480.0" type="line"/>
      <point x="957.4545454545455" y="1480.0" type="line"/>
      <point x="468.72727272727275" y="754.1818181818181" type="line"/>
    </contour>
    <contour>
      <point x="134.1818181818182" y="0.0" type="line"/>
      <point x="390.3636363636364" y="0.0" type="line"/>
      <point x="390.3636363636364" y="1480.0" type="line"/>
      <point x="134.1818181818182" y="1480.0" type="line"/>
    </contour>
    <contour>
      <point x="353.09090909090907" y="642.0909090909091" type="line"/>
      <point x="570.6363636363636" y="642.0909090909091" type="line"/>
      <point x="570.6363636363636" y="872.6818181818182" type="line"/>
      <point x="353.09090909090907" y="872.6818181818182" type="line"/>
    </contour>
  </outline>
</glyph>
<glyph name="L" format="2">
  <advance width="1045.2272727272727"/>
  <unicode hex="004C"/>
  <anchor x="586.5909090909091" y="0.0" name="bottom"/>
  <anchor x="684.1818181818182" y="1616.0" name="caronalt"/>
  <anchor x="777.8636363636364" y="844.3636363636364" name="periodcentered"/>
  <anchor x="265.5454545454545" y="817.6363636363636" name="slash"/>
  <anchor x="265.5454545454545" y="1520.0" name="top"/>
  <outline>
    <contour>
      <point x="134.1818181818182" y="0.0" type="line"/>
      <point x="1038.090909090909" y="0.0" type="line"/>
      <point x="1038.090909090909" y="221.72727272727272" type="line"/>
      <point x="390.3636363636364" y="221.72727272727272" type="line"/>
      <point x="390.3636363636364" y="1480.0" type="line"/>
      <point x="134.1818181818182" y="1480.0" type="line"/>
    </contour>
  </outline>
</glyph>
<glyph name="P" format="2">
  <advance width="1215.2727272727273"/>
  <unicode hex="0050"/>
  <outline>
    <contour>
      <point x="134.1818181818182" y="0.0" type="line"/>
      <point x="390.3636363636364" y="0.0" type="line"/>
      <point x="390.3636363636364" y="454.95454545454544" type="line"/>
      <point x="440.5909090909091" y="451.77272727272725"/>
      <point x="483.3181818181818" y="449.54545454545456"/>
      <point x="536.6363636363636" y="449.54545454545456" type="curve" smooth="yes"/>
      <point x="940.0" y="449.54545454545456"/>
      <point x="1142.409090909091" y="630.1363636363636"/>
      <point x="1142.409090909091" y="972.7727272727273" type="curve" smooth="yes"/>
      <point x="1142.409090909091" y="1335.2272727272727"/>
      <point x="936.4545454545455" y="1497.2727272727273"/>
      <point x="531.7272727272727" y="1497.2727272727273" type="curve" smooth="yes"/>
      <point x="387.54545454545456" y="1497.2727272727273"/>
      <point x="257.40909090909093" y="1480.909090909091"/>
      <point x="134.1818181818182" y="1456.590909090909" type="curve"/>
    </contour>
    <contour>
      <point x="540.8636363636364" y="652.4545454545455" type="curve" smooth="yes"/>
      <point x="485.0" y="652.4545454545455"/>
      <point x="439.1363636363636" y="654.9090909090909"/>
      <point x="390.3636363636364" y="661.4545454545455" type="curve"/>
      <point x="390.3636363636364" y="1281.3636363636365" type="line"/>
      <point x="440.95454545454544" y="1290.090909090909"/>
      <point x="490.72727272727275" y="1294.3636363636365"/>
      <point x="553.5454545454545" y="1294.3636363636365" type="curve" smooth="yes"/>
      <point x="783.1818181818182" y="1294.3636363636365"/>
      <point x="891.7727272727273" y="1197.4545454545455"/>
      <point x="891.7727272727273" y="969.5454545454545" type="curve" smooth="yes"/>
      <point x="891.7727272727273" y="748.0"/>
      <point x="781.8181818181819" y="652.4545454545455"/>
    </contour>
  </outline>
</glyph>
<glyph name="Q" format="2">
  <advance width="1404.5454545454545"/>
  <unicode hex="0051"/>
  <outline>
    <contour>
      <point x="1255.0454545454545" y="-280.3636363636364" type="curve"/>
      <point x="1299.8636363636363" y="-72.54545454545456" type="line"/>
      <point x="1097.9545454545455" y="-49.59090909090909"/>
      <point x="887.090909090909" y="-6.681818181818187"/>
      <point x="676.5909090909091" y="80.9090909090909" type="curve"/>
      <point x="607.8181818181818" y="14.09090909090909" type="line"/>
      <point x="1076.6818181818182" y="-48.90909090909091"/>
      <point x="1321.909090909091" y="220.13636363636363"/>
      <point x="1321.909090909091" y="740.0" type="curve" smooth="yes"/>
      <point x="1321.909090909091" y="1274.8636363636363"/>
      <point x="1074.4545454545455" y="1499.090909090909"/>
      <point x="702.2727272727273" y="1499.090909090909" type="curve" smooth="yes"/>
      <point x="330.0909090909091" y="1499.090909090909"/>
      <point x="82.63636363636364" y="1274.0454545454545"/>
      <point x="82.63636363636364" y="737.2727272727273" type="curve" smooth="yes"/>
      <point x="82.63636363636364" y="159.22727272727272"/>
      <point x="353.22727272727275" y="-143.27272727272725"/>
    </contour>
    <contour>
      <point x="702.2727272727273" y="193.86363636363635" type="curve" smooth="yes"/>
      <point x="482.0" y="193.86363636363635"/>
      <point x="346.6363636363636" y="332.0"/>
      <point x="346.6363636363636" y="746.1818181818181" type="curve" smooth="yes"/>
      <point x="346.6363636363636" y="1147.4545454545455"/>
      <point x="483.3636363636364" y="1286.1363636363637"/>
      <point x="702.2727272727273" y="1286.1363636363637" type="curve" smooth="yes"/>
      <point x="921.1818181818182" y="1286.1363636363637"/>
      <point x="1057.909090909091" y="1146.6363636363637"/>
      <point x="1057.909090909091" y="733.8181818181819" type="curve" smooth="yes"/>
      <point x="1057.909090909091" y="333.3636363636364"/>
      <point x="922.0" y="193.86363636363635"/>
    </contour>
  </outline>
</glyph>
<glyph name="V" format="2">
  <advance width="1293.6363636363635"/>
  <unicode hex="0056"/>
  <outline>
    <contour>
      <point x="455.8181818181818" y="0.0" type="line"/>
      <point x="837.8181818181818" y="0.0" type="line"/>
      <point x="1294.0454545454545" y="1480.0" type="line"/>
      <point x="1045.1818181818182" y="1480.0" type="line"/>
      <point x="626.4090909090909" y="106.27272727272727" type="line"/>
      <point x="680.0454545454545" y="106.27272727272727" type="line"/>
      <point x="266.3636363636364" y="1480.0" type="line"/>
      <point x="-0.4090909090909083" y="1480.0" type="line"/>
    </contour>
  </outline>
</glyph>
<glyph name="X" format="2">
  <advance width="1267.090909090909"/>
  <unicode hex="0058"/>
  <outline>
    <contour>
      <point x="995.5454545454545" y="0.0" type="line"/>
      <point x="1278.3636363636363" y="0.0" type="line"/>
      <point x="782.4545454545455" y="764.9090909090909" type="line"/>
      <point x="633.4090909090909" y="963.7272727272727" type="line"/>
      <point x="298.9090909090909" y="1480.0" type="line"/>
      <point x="14.31818181818182" y="1480.0" type="line"/>
      <point x="482.77272727272725" y="762.7727272727273" type="line"/>
      <point x="631.8181818181818" y="565.7272727272727" type="line"/>
    </contour>
    <contour>
      <point x="-15.318181818181813" y="0.0" type="line"/>
      <point x="266.8636363636364" y="0.0" type="line"/>
      <point x="631.8181818181818" y="565.7272727272727" type="line"/>
      <point x="782.4545454545455" y="764.9090909090909" type="line"/>
      <point x="1246.2727272727273" y="1480.0" type="line"/>
      <point x="967.8636363636364" y="1480.0" type="line"/>
      <point x="633.4090909090909" y="963.7272727272727" type="line"/>
      <point x="482.77272727272725" y="762.7727272727273" type="line"/>
    </contour>
  </outline>
</glyph>
<glyph name="Z" format="2">
  <advance width="1123.590909090909"/>
  <unicode hex="005A"/>
  <anchor x="559.8181818181818" y="0.0" name="bottom"/>
  <anchor x="563.0909090909091" y="1520.0" name="top"/>
  <outline>
    <contour>
      <point x="51.59090909090909" y="0.0" type="line"/>
      <point x="1072.0" y="0.0" type="line"/>
      <point x="1072.0" y="220.8181818181818" type="line"/>
      <point x="345.77272727272725" y="220.8181818181818" type="line"/>
      <point x="352.5909090909091" y="170.22727272727272" type="line"/>
      <point x="1061.5454545454545" y="1337.1818181818182" type="line"/>
      <point x="1061.5454545454545" y="1480.0" type="line"/>
      <point x="62.04545454545455" y="1480.0" type="line"/>
      <point x="62.04545454545455" y="1259.1818181818182" type="line"/>
      <point x="767.3636363636364" y="1259.1818181818182" type="line"/>
      <point x="760.5454545454545" y="1309.7727272727273" type="line"/>
      <point x="51.59090909090909" y="142.8181818181818" type="line"/>
    </contour>
  </outline>
</glyph>
<glyph name="bracketleft" format="2">
  <advance width="655.8181818181818"/>
  <unicode hex="005B"/>
  <outline>
    <contour>
      <point x="154.1818181818182" y="-440.0" type="line"/>
      <point x="686.5454545454545" y="-440.0" type="line"/>
      <point x="686.5454545454545" y="-239.0909090909091" type="line"/>
      <point x="406.27272727272725" y="-239.0909090909091" type="line"/>
      <point x="406.27272727272725" y="1415.090909090909" type="line"/>
      <point x="689.2727272727273" y="1415.090909090909" type="line"/>
      <point x="689.2727272727273" y="1616.0" type="line"/>
      <point x="154.1818181818182" y="1616.0" type="line"/>
    </contour>
  </outline>
</glyph>
<glyph name="backslash" format="2">
  <advance width="663.6818181818182"/>
  <unicode hex="005C"/>
  <outline>
    <contour>
      <point x="416.72727272727275" y="-240.0" type="line"/>
      <point x="663.6818181818182" y="-240.0" type="line"/>
      <point x="246.95454545454544" y="1616.0" type="line"/>
      <point x="0.0" y="1616.0" type="line"/>
    </contour>
  </outline>
</glyph>
<glyph name="bracketright" format="2">
  <advance width="655.8181818181818"/>
  <unicode hex="005D"/>
  <outline>
    <contour>
      <point x="-30.727272727272727" y="-440.0" type="line"/>
      <point x="501.6363636363636" y="-440.0" type="line"/>
      <point x="501.6363636363636" y="1616.0" type="line"/>
      <point x="-33.45454545454545" y="1616.0" type="line"/>
      <point x="-33.45454545454545" y="1415.090909090909" type="line"/>
      <point x="249.54545454545456" y="1415.090909090909" type="line"/>
      <point x="249.54545454545456" y="-239.0909090909091" type="line"/>
      <point x="-30.727272727272727" y="-239.0909090909091" type="line"/>
    </contour>
  </outline>
</glyph>
<glyph name="asciicircum" format="2">
  <advance width="1164.5454545454545"/>
  <unicode hex="005E"/>
  <outline>
    <contour>
      <point x="78.54545454545455" y="740.0" type="line"/>
      <point x="321.5909090909091" y="740.0" type="line"/>
      <point x="628.5454545454545" y="1347.8181818181818" type="line"/>
      <point x="536.0" y="1347.8181818181818" type="line"/>
      <point x="842.9545454545455" y="740.0" type="line"/>
      <point x="1086.0" y="740.0" type="line"/>
      <point x="699.4545454545455" y="1480.0" type="line"/>
      <point x="464.1818181818182" y="1480.0" type="line"/>
    </contour>
  </outline>
</glyph>
<glyph name="underscore" format="2">
  <advance width="1095.7272727272727"/>
  <unicode hex="005F"/>
  <outline>
    <contour>
      <point x="87.04545454545455" y="-201.1818181818182" type="line"/>
      <point x="1008.6818181818182" y="-201.1818181818182" type="line"/>
      <point x="1008.6818181818182" y="-0.2727272727272727" type="line"/>
      <point x="87.04545454545455" y="-0.2727272727272727" type="line"/>
    </contour>
  </outline>
</glyph>
<glyph name="grave" format="2">
  <advance width="1063.6363636363635"/>
  <unicode hex="0060"/>
  <anchor x="531.8181818181818" y="1200.0" name="_top"/>
  <anchor x="531.8181818181818" y="1610.5454545454545" name="top"/>
  <outline>
    <contour>
      <point x="419.45454545454544" y="1240.0" type="line"/>
      <point x="644.1818181818181" y="1240.0" type="line"/>
      <point x="443.0" y="1616.0" type="line"/>
      <point x="180.9090909090909" y="1616.0" type="line"/>
    </contour>
  </outline>
</glyph>
<glyph name="b" format="2">
  <advance width="1105.9545454545455"/>
  <unicode hex="0062"/>
  <anchor x="558.4545454545455" y="0.0" name="bottom"/>
  <anchor x="245.54545454545453" y="1616.0" name="top"/>
  <outline>
    <contour>
      <point x="476.0" y="-19.363636363636363" type="curve" smooth="yes"/>
      <point x="851.2727272727273" y="-20.18181818181818"/>
      <point x="1036.0454545454545" y="176.22727272727272"/>
      <point x="1036.0454545454545" y="565.1818181818181" type="curve" smooth="yes"/>
      <point x="1036.0454545454545" y="956.4545454545455"/>
      <point x="855.590909090909" y="1108.0"/>
      <point x="645.8181818181818" y="1108.0" type="curve" smooth="yes"/>
      <point x="528.6363636363636" y="1108.0"/>
      <point x="438.5" y="1057.8636363636363"/>
      <point x="384.0" y="982.9545454545455" type="curve"/>
      <point x="371.18181818181813" y="982.9545454545455" type="line"/>
      <point x="371.18181818181813" y="1616.0" type="line"/>
      <point x="119.0909090909091" y="1616.0" type="line"/>
      <point x="119.0909090909091" y="35.18181818181819" type="line"/>
      <point x="223.72727272727272" y="-1.0454545454545459"/>
      <point x="356.77272727272725" y="-19.363636363636363"/>
    </contour>
    <contour>
      <point x="495.72727272727275" y="176.45454545454544" type="curve" smooth="yes"/>
      <point x="450.95454545454544" y="176.45454545454544"/>
      <point x="404.4545454545455" y="183.3181818181818"/>
      <point x="371.18181818181813" y="192.63636363636363" type="curve"/>
      <point x="371.18181818181813" y="813.6818181818182" type="line"/>
      <point x="414.27272727272725" y="868.6818181818182"/>
      <point x="483.5" y="895.8181818181818"/>
      <point x="550.4545454545455" y="895.8181818181818" type="curve" smooth="yes"/>
      <point x="685.3636363636364" y="895.8181818181818"/>
      <point x="779.6818181818182" y="825.2272727272727"/>
      <point x="779.6818181818182" y="543.2727272727273" type="curve" smooth="yes"/>
      <point x="779.6818181818182" y="273.9090909090909"/>
      <point x="681.0" y="176.45454545454544"/>
    </contour>
  </outline>
</glyph>
<glyph name="c" format="2">
  <advance width="855.3636363636364"/>
  <unicode hex="0063"/>
  <anchor x="497.5" y="0.0" name="bottom"/>
  <anchor x="486.1818181818182" y="1200.0" name="top"/>
  <outline>
    <contour>
      <point x="568.1818181818182" y="-20.18181818181818" type="curve" smooth="yes"/>
      <point x="653.1363636363636" y="-20.18181818181818"/>
      <point x="740.4545454545455" y="-6.681818181818182"/>
      <point x="819.4090909090909" y="20.045454545454547" type="curve"/>
      <point x="819.4090909090909" y="226.04545454545453" type="line"/>
      <point x="738.2272727272727" y="200.63636363636363"/>
      <point x="674.3181818181818" y="189.27272727272725"/>
      <point x="614.1363636363636" y="189.27272727272725" type="curve" smooth="yes"/>
      <point x="427.4090909090909" y="189.27272727272725"/>
      <point x="331.45454545454544" y="279.4090909090909"/>
      <point x="331.45454545454544" y="548.3636363636364" type="curve" smooth="yes"/>
      <point x="331.45454545454544" y="807.1363636363636"/>
      <point x="429.6818181818182" y="898.5454545454545"/>
      <point x="645.3181818181818" y="898.5454545454545" type="curve" smooth="yes"/>
      <point x="698.4545454545455" y="898.5454545454545"/>
      <point x="758.3181818181818" y="892.1818181818182"/>
      <point x="819.4090909090909" y="878.9545454545455" type="curve"/>
      <point x="819.4090909090909" y="1084.9545454545455" type="line"/>
      <point x="752.5" y="1100.7727272727273"/>
      <point x="680.2272727272727" y="1108.0"/>
      <point x="606.3181818181818" y="1108.0" type="curve" smooth="yes"/>
      <point x="267.5" y="1108.0"/>
      <point x="69.9090909090909" y="943.0"/>
      <point x="69.9090909090909" y="544.0909090909091" type="curve" smooth="yes"/>
      <point x="69.9090909090909" y="150.6818181818182"/>
      <point x="248.36363636363637" y="-20.18181818181818"/>
    </contour>
  </outline>
</glyph>
<glyph name="f" format="2">
  <advance width="715.6818181818181"/>
  <unicode hex="0066"/>
  <outline>
    <contour>
      <point x="192.5909090909091" y="0.0" type="line"/>
      <point x="442.22727272727275" y="0.0" type="line"/>
      <point x="442.22727272727275" y="1231.090909090909" type="line" smooth="yes"/>
      <point x="442.22727272727275" y="1371.3636363636365"/>
      <point x="508.72727272727275" y="1430.909090909091"/>
      <point x="657.590909090909" y="1430.909090909091" type="curve" smooth="yes"/>
      <point x="695.4545454545455" y="1430.909090909091"/>
      <point x="728.8636363636364" y="1427.7727272727273"/>
      <point x="767.8636363636364" y="1421.7272727272727" type="curve"/>
      <point x="767.8636363636364" y="1624.4545454545455" type="line"/>
      <point x="721.5454545454545" y="1632.4545454545455"/>
      <point x="670.9090909090909" y="1636.0"/>
      <point x="623.1363636363636" y="1636.0" type="curve" smooth="yes"/>
      <point x="339.09090909090907" y="1636.0"/>
      <point x="192.5909090909091" y="1485.3636363636363"/>
      <point x="192.5909090909091" y="1218.3181818181818" type="curve" smooth="yes"/>
    </contour>
    <contour>
      <point x="15.318181818181818" y="890.0" type="line"/>
      <point x="726.4545454545455" y="890.0" type="line"/>
      <point x="726.4545454545455" y="1090.909090909091" type="line"/>
      <point x="15.318181818181818" y="1090.909090909091" type="line"/>
    </contour>
  </outline>
</glyph>
<glyph name="i" format="2">
  <advance width="491.09090909090907"/>
  <unicode hex="0069"/>
  <anchor x="245.54545454545453" y="1200.0" name="_top"/>
  <anchor x="245.54545454545453" y="0.0" name="bottom"/>
  <anchor x="372.0" y="0.0" name="ogonek"/>
  <anchor x="245.54545454545453" y="1200.0" name="top"/>
  <outline>
    <contour>
      <point x="119.0909090909091" y="0.0" type="line"/>
      <point x="372.0" y="0.0" type="line"/>
      <point x="372.0" y="1090.909090909091" type="line"/>
      <point x="119.0909090909091" y="1090.909090909091" type="line"/>
    </contour>
    <contour>
      <point x="245.54545454545453" y="1277.6363636363637" type="curve" smooth="yes"/>
      <point x="354.0909090909091" y="1277.6363636363637"/>
      <point x="406.8181818181818" y="1330.5454545454545"/>
      <point x="406.8181818181818" y="1419.8181818181818" type="curve" smooth="yes"/>
      <point x="406.8181818181818" y="1509.090909090909"/>
      <point x="354.0909090909091" y="1562.909090909091"/>
      <point x="245.54545454545453" y="1562.909090909091" type="curve" smooth="yes"/>
      <point x="137.0" y="1562.909090909091"/>
      <point x="84.27272727272728" y="1509.090909090909"/>
      <point x="84.27272727272728" y="1419.8181818181818" type="curve" smooth="yes"/>
      <point x="84.27272727272728" y="1330.5454545454545"/>
      <point x="137.0" y="1277.6363636363637"/>
    </contour>
  </outline>
</glyph>
<glyph name="j" format="2">
  <advance width="491.09090909090907"/>
  <unicode hex="006A"/>
  <anchor x="244.1818181818182" y="1201.3636363636363" name="_top"/>
  <anchor x="244.1818181818182" y="1201.3636363636363" name="top"/>
  <outline>
    <contour>
      <point x="127.18181818181817" y="-468.72727272727275" type="line"/>
      <point x="305.04545454545456" y="-258.45454545454544"/>
      <point x="372.0" y="-71.72727272727272"/>
      <point x="372.0" y="186.22727272727272" type="curve" smooth="yes"/>
      <point x="372.0" y="1090.909090909091" type="line"/>
      <point x="119.0909090909091" y="1090.909090909091" type="line"/>
      <point x="119.0909090909091" y="173.63636363636363" type="line" smooth="yes"/>
      <point x="119.0909090909091" y="-50.09090909090909"/>
      <point x="77.36363636363636" y="-191.54545454545456"/>
      <point x="-39.31818181818181" y="-358.1363636363636" type="curve"/>
    </contour>
    <contour>
      <point x="244.1818181818182" y="1279.0" type="curve" smooth="yes"/>
      <point x="352.72727272727275" y="1279.0"/>
      <point x="405.4545454545455" y="1331.909090909091"/>
      <point x="405.4545454545455" y="1421.1818181818182" type="curve" smooth="yes"/>
      <point x="405.4545454545455" y="1510.4545454545455"/>
      <point x="352.72727272727275" y="1564.2727272727273"/>
      <point x="244.1818181818182" y="1564.2727272727273" type="curve" smooth="yes"/>
      <point x="135.63636363636363" y="1564.2727272727273"/>
      <point x="82.9090909090909" y="1510.4545454545455"/>
      <point x="82.9090909090909" y="1421.1818181818182" type="curve" smooth="yes"/>
      <point x="82.9090909090909" y="1331.909090909091"/>
      <point x="135.63636363636363" y="1279.0"/>
    </contour>
  </outline>
</glyph>
<glyph name="m" format="2">
  <advance width="1656.3636363636363"/>
  <unicode hex="006D"/>
  <anchor x="835.4545454545455" y="0.0" name="bottom"/>
  <anchor x="835.4545454545455" y="1200.0" name="top"/>
  <outline>
    <contour>
      <point x="119.0909090909091" y="0.0" type="line"/>
      <point x="371.18181818181813" y="0.0" type="line"/>
      <point x="371.18181818181813" y="776.7727272727273" type="line"/>
      <point x="419.4090909090909" y="854.5"/>
      <point x="500.27272727272725" y="885.7272727272727"/>
      <point x="565.1363636363636" y="885.7272727272727" type="curve" smooth="yes"/>
      <point x="652.1363636363636" y="885.7272727272727"/>
      <point x="711.1818181818181" y="841.1363636363636"/>
      <point x="711.1818181818181" y="701.0909090909091" type="curve" smooth="yes"/>
      <point x="711.1818181818181" y="0.0" type="line"/>
      <point x="958.6363636363636" y="0.0" type="line"/>
      <point x="958.6363636363636" y="724.5" type="line" smooth="yes"/>
      <point x="958.6363636363636" y="1006.8181818181819"/>
      <point x="824.7727272727273" y="1108.0"/>
      <point x="652.0" y="1108.0" type="curve" smooth="yes"/>
      <point x="534.1818181818182" y="1108.0"/>
      <point x="434.9090909090909" y="1063.3636363636363"/>
      <point x="359.72727272727275" y="973.8181818181819" type="curve"/>
      <point x="346.8181818181818" y="973.8181818181819" type="line"/>
      <point x="328.8181818181818" y="1090.909090909091" type="line"/>
      <point x="119.0909090909091" y="1090.909090909091" type="line"/>
    </contour>
    <contour>
      <point x="1293.6363636363637" y="0.0" type="line"/>
      <point x="1545.4545454545455" y="0.0" type="line"/>
      <point x="1545.4545454545455" y="713.8636363636364" type="line" smooth="yes"/>
      <point x="1545.4545454545455" y="1005.1818181818181"/>
      <point x="1405.0" y="1108.0"/>
      <point x="1220.090909090909" y="1108.0" type="curve" smooth="yes"/>
      <point x="1102.7272727272727" y="1108.0"/>
      <point x="977.9090909090909" y="1058.1363636363637"/>
      <point x="888.4090909090909" y="933.3181818181818" type="curve"/>
      <point x="939.4090909090909" y="764.5" type="line"/>
      <point x="989.5" y="854.5"/>
      <point x="1076.3181818181818" y="885.7272727272727"/>
      <point x="1142.8181818181818" y="885.7272727272727" type="curve" smooth="yes"/>
      <point x="1229.7727272727273" y="885.7272727272727"/>
      <point x="1293.6363636363637" y="841.1363636363636"/>
      <point x="1293.6363636363637" y="701.0909090909091" type="curve" smooth="yes"/>
    </contour>
  </outline>
</glyph>
<glyph name="p" format="2">
  <advance width="1105.9545454545455"/>
  <unicode hex="0070"/>
  <outline>
    <contour>
      <point x="119.0909090909091" y="-440.0" type="line"/>
      <point x="371.18181818181813" y="-440.0" type="line"/>
      <point x="371.18181818181813" y="-12.136363636363637" type="line"/>
      <point x="405.0" y="-16.09090909090909"/>
      <point x="445.0454545454545" y="-19.363636363636363"/>
      <point x="482.72727272727275" y="-19.363636363636363" type="curve" smooth="yes"/>
      <point x="851.1363636363636" y="-19.363636363636363"/>
      <point x="1036.0454545454545" y="177.86363636363637"/>
      <point x="1036.0454545454545" y="565.1818181818181" type="curve" smooth="yes"/>
      <point x="1036.0454545454545" y="959.7272727272727"/>
      <point x="846.6363636363636" y="1108.0"/>
      <point x="627.7272727272727" y="1108.0" type="curve" smooth="yes"/>
      <point x="506.5454545454545" y="1108.0"/>
      <point x="415.3636363636364" y="1052.9545454545455"/>
      <point x="361.9090909090909" y="973.6818181818181" type="curve"/>
      <point x="349.22727272727275" y="973.6818181818181" type="line"/>
      <point x="332.3636363636364" y="1090.909090909091" type="line"/>
      <point x="119.0909090909091" y="1090.909090909091" type="line"/>
    </contour>
    <contour>
      <point x="492.3181818181818" y="176.72727272727272" type="curve" smooth="yes"/>
      <point x="453.4090909090909" y="176.72727272727272"/>
      <point x="404.4545454545455" y="181.77272727272725"/>
      <point x="371.18181818181813" y="188.4090909090909" type="curve"/>
      <point x="371.18181818181813" y="807.1363636363636" type="line"/>
      <point x="414.5454545454545" y="867.5909090909091"/>
      <point x="485.72727272727275" y="896.6363636363636"/>
      <point x="554.0454545454545" y="896.6363636363636" type="curve" smooth="yes"/>
      <point x="685.0909090909091" y="896.6363636363636"/>
      <point x="779.6818181818182" y="826.0454545454545"/>
      <point x="779.6818181818182" y="543.5454545454545" type="curve" smooth="yes"/>
      <point x="779.6818181818182" y="274.1818181818182"/>
      <point x="681.0" y="176.72727272727272"/>
    </contour>
  </outline>
</glyph>
<glyph name="q" format="2">
  <advance width="1105.9545454545455"/>
  <unicode hex="0071"/>
  <outline>
    <contour>
      <point x="734.7727272727273" y="-440.0" type="line"/>
      <point x="986.8636363636364" y="-440.0" type="line"/>
      <point x="986.8636363636364" y="1053.4545454545455" type="line"/>
      <point x="886.0454545454545" y="1088.1818181818182"/>
      <point x="749.1818181818182" y="1108.0"/>
      <point x="629.9545454545455" y="1108.0" type="curve" smooth="yes"/>
      <point x="254.6818181818182" y="1108.0"/>
      <point x="69.9090909090909" y="912.4090909090909"/>
      <point x="69.9090909090909" y="523.4545454545455" type="curve" smooth="yes"/>
      <point x="69.9090909090909" y="132.1818181818182"/>
      <point x="250.36363636363637" y="-19.363636363636363"/>
      <point x="460.1363636363636" y="-19.363636363636363" type="curve" smooth="yes"/>
      <point x="577.3181818181819" y="-19.363636363636363"/>
      <point x="667.4545454545455" y="30.772727272727273"/>
      <point x="721.9545454545455" y="105.68181818181819" type="curve"/>
      <point x="734.7727272727273" y="105.68181818181819" type="line"/>
    </contour>
    <contour>
      <point x="555.5" y="192.8181818181818" type="curve" smooth="yes"/>
      <point x="420.5909090909091" y="192.8181818181818"/>
      <point x="326.27272727272725" y="263.4090909090909"/>
      <point x="326.27272727272725" y="545.3636363636364" type="curve" smooth="yes"/>
      <point x="326.27272727272725" y="814.7272727272727"/>
      <point x="427.6818181818182" y="912.1818181818182"/>
      <point x="609.4090909090909" y="912.1818181818182" type="curve" smooth="yes"/>
      <point x="654.4545454545455" y="912.1818181818182"/>
      <point x="701.5" y="905.5454545454545"/>
      <point x="734.7727272727273" y="897.9545454545455" type="curve"/>
      <point x="734.7727272727273" y="274.95454545454544" type="line"/>
      <point x="691.6818181818181" y="219.95454545454544"/>
      <point x="622.0" y="192.8181818181818"/>
    </contour>
  </outline>
</glyph>
<glyph name="v" format="2">
  <advance width="1045.6818181818182"/>
  <unicode hex="0076"/>
  <anchor x="523.4090909090909" y="0.0" name="bottom"/>
  <anchor x="523.4090909090909" y="1200.0" name="top"/>
  <outline>
    <contour>
      <point x="361.1363636363636" y="0.0" type="line"/>
      <point x="684.2727272727273" y="0.0" type="line"/>
      <point x="1043.2727272727273" y="1090.909090909091" type="line"/>
      <point x="792.3181818181819" y="1090.909090909091" type="line"/>
      <point x="517.0" y="196.45454545454544" type="line"/>
      <point x="540.8181818181818" y="196.45454545454544" type="line"/>
      <point x="265.5" y="1090.909090909091" type="line"/>
      <point x="2.40909090909091" y="1090.909090909091" type="line"/>
    </contour>
  </outline>
</glyph>
<glyph name="w" format="2">
  <advance width="1657.2727272727273"/>
  <unicode hex="0077"/>
  <anchor x="829.4090909090909" y="0.0" name="bottom"/>
  <anchor x="830.0909090909091" y="1200.0" name="top"/>
  <outline>
    <contour>
      <point x="322.40909090909093" y="0.0" type="line"/>
      <point x="602.9545454545455" y="0.0" type="line"/>
      <point x="840.4090909090909" y="872.7272727272727" type="line"/>
      <point x="822.1818181818182" y="872.7272727272727" type="line"/>
      <point x="1055.6363636363637" y="0.0" type="line"/>
      <point x="1336.1818181818182" y="0.0" type="line"/>
      <point x="1619.7272727272727" y="1090.909090909091" type="line"/>
      <point x="1390.7727272727273" y="1090.909090909091" type="line"/>
      <point x="1177.1818181818182" y="248.63636363636363" type="line"/>
      <point x="1197.0" y="248.63636363636363" type="line"/>
      <point x="974.8181818181818" y="1090.909090909091" type="line"/>
      <point x="694.2727272727273" y="1090.909090909091" type="line"/>
      <point x="469.3181818181818" y="248.09090909090907" type="line"/>
      <point x="484.5" y="248.09090909090907" type="line"/>
      <point x="275.8636363636364" y="1090.909090909091" type="line"/>
      <point x="37.54545454545455" y="1090.909090909091" type="line"/>
    </contour>
  </outline>
</glyph>
<glyph name="x" format="2">
  <advance width="1007.7727272727273"/>
  <unicode hex="0078"/>
  <anchor x="504.45454545454544" y="0.0" name="bottom"/>
  <anchor x="505.27272727272725" y="1200.0" name="top"/>
  <outline>
    <contour>
      <point x="738.1363636363636" y="0.0" type="line"/>
      <point x="1015.590909090909" y="0.0" type="line"/>
      <point x="652.5" y="552.8181818181819" type="line"/>
      <point x="506.9090909090909" y="736.3181818181818" type="line"/>
      <point x="278.18181818181813" y="1090.909090909091" type="line"/>
      <point x="0.7272727272727302" y="1090.909090909091" type="line"/>
      <point x="354.1363636363636" y="549.4545454545455" type="line"/>
      <point x="502.1818181818182" y="368.27272727272725" type="line"/>
    </contour>
    <contour>
      <point x="-5.318181818181817" y="0.0" type="line"/>
      <point x="264.6363636363636" y="0.0" type="line"/>
      <point x="502.1818181818182" y="368.27272727272725" type="line"/>
      <point x="652.5" y="552.8181818181819" type="line"/>
      <point x="1004.5454545454545" y="1090.909090909091" type="line"/>
      <point x="735.0454545454545" y="1090.909090909091" type="line"/>
      <point x="506.9090909090909" y="736.3181818181818" type="line"/>
      <point x="354.1363636363636" y="549.4545454545455" type="line"/>
    </contour>
  </outline>
</glyph>
<glyph name="braceleft" format="2">
  <advance width="695.8181818181818"/>
  <unicode hex="007B"/>
  <outline>
    <contour>
      <point x="571.9090909090909" y="-460.0" type="curve" smooth="yes"/>
      <point x="632.0" y="-460.0"/>
      <point x="685.9090909090909" y="-454.90909090909093"/>
      <point x="729.2727272727273" y="-447.8181818181818" type="curve"/>
      <point x="729.2727272727273" y="-254.9090909090909" type="line"/>
      <point x="609.9090909090909" y="-254.9090909090909" type="line" smooth="yes"/>
      <point x="500.8636363636364" y="-254.9090909090909"/>
      <point x="446.27272727272725" y="-208.22727272727275"/>
      <point x="446.27272727272725" y="-101.13636363636363" type="curve" smooth="yes"/>
      <point x="446.27272727272725" y="375.6363636363636" type="line" smooth="yes"/>
      <point x="446.27272727272725" y="539.8181818181819"/>
      <point x="369.72727272727275" y="631.4545454545455"/>
      <point x="171.72727272727272" y="643.2727272727273" type="curve"/>
      <point x="171.72727272727272" y="611.6363636363636" type="line"/>
      <point x="369.72727272727275" y="623.4545454545455"/>
      <point x="446.27272727272725" y="715.0909090909091"/>
      <point x="446.27272727272725" y="879.2727272727273" type="curve" smooth="yes"/>
      <point x="446.27272727272725" y="1277.1363636363635" type="line" smooth="yes"/>
      <point x="446.27272727272725" y="1384.2272727272727"/>
      <point x="500.8636363636364" y="1430.909090909091"/>
      <point x="609.9090909090909" y="1430.909090909091" type="curve" smooth="yes"/>
      <point x="729.2727272727273" y="1430.909090909091" type="line"/>
      <point x="729.2727272727273" y="1623.8181818181818" type="line"/>
      <point x="685.9090909090909" y="1630.909090909091"/>
      <point x="632.0" y="1636.0"/>
      <point x="571.9090909090909" y="1636.0" type="curve" smooth="yes"/>
      <point x="321.8181818181818" y="1636.0"/>
      <point x="194.1818181818182" y="1512.9545454545455"/>
      <point x="194.1818181818182" y="1277.0" type="curve" smooth="yes"/>
      <point x="194.1818181818182" y="867.1818181818181" type="line" smooth="yes"/>
      <point x="194.1818181818182" y="775.3636363636364"/>
      <point x="143.0909090909091" y="727.9090909090909"/>
      <point x="55.81818181818182" y="727.9090909090909" type="curve" smooth="yes"/>
      <point x="16.045454545454547" y="727.9090909090909" type="line"/>
      <point x="16.045454545454547" y="527.0" type="line"/>
      <point x="55.81818181818182" y="527.0" type="line" smooth="yes"/>
      <point x="143.0909090909091" y="527.0"/>
      <point x="194.1818181818182" y="479.54545454545456"/>
      <point x="194.1818181818182" y="387.72727272727275" type="curve" smooth="yes"/>
      <point x="194.1818181818182" y="-101.0" type="line" smooth="yes"/>
      <point x="194.1818181818182" y="-336.95454545454544"/>
      <point x="321.8181818181818" y="-460.0"/>
    </contour>
  </outline>
</glyph>
<glyph name="bar" format="2">
  <advance width="495.6363636363636"/>
  <unicode hex="007C"/>
  <outline>
    <contour>
      <point x="134.1818181818182" y="-440.0" type="line"/>
      <point x="361.45454545454544" y="-440.0" type="line"/>
      <point x="361.45454545454544" y="1616.0" type="line"/>
      <point x="134.1818181818182" y="1616.0" type="line"/>
    </contour>
  </outline>
</glyph>
<glyph name="braceright" format="2">
  <advance width="695.8181818181818"/>
  <unicode hex="007D"/>
  <outline>
    <contour>
      <point x="123.9090909090909" y="-460.0" type="curve" smooth="yes"/>
      <point x="374.0" y="-460.0"/>
      <point x="501.6363636363636" y="-336.95454545454544"/>
      <point x="501.6363636363636" y="-101.0" type="curve" smooth="yes"/>
      <point x="501.6363636363636" y="387.72727272727275" type="line" smooth="yes"/>
      <point x="501.6363636363636" y="479.54545454545456"/>
      <point x="552.7272727272727" y="527.0"/>
      <point x="640.0" y="527.0" type="curve" smooth="yes"/>
      <point x="679.7727272727273" y="527.0" type="line"/>
      <point x="679.7727272727273" y="727.9090909090909" type="line"/>
      <point x="640.0" y="727.9090909090909" type="line" smooth="yes"/>
      <point x="552.7272727272727" y="727.9090909090909"/>
      <point x="501.6363636363636" y="775.3636363636364"/>
      <point x="501.6363636363636" y="867.1818181818181" type="curve" smooth="yes"/>
      <point x="501.6363636363636" y="1277.0" type="line" smooth="yes"/>
      <point x="501.6363636363636" y="1512.9545454545455"/>
      <point x="374.0" y="1636.0"/>
      <point x="123.9090909090909" y="1636.0" type="curve" smooth="yes"/>
      <point x="63.81818181818181" y="1636.0"/>
      <point x="9.909090909090907" y="1630.909090909091"/>
      <point x="-33.45454545454545" y="1623.8181818181818" type="curve"/>
      <point x="-33.45454545454545" y="1430.909090909091" type="line"/>
      <point x="85.9090909090909" y="1430.909090909091" type="line" smooth="yes"/>
      <point x="194.95454545454547" y="1430.909090909091"/>
      <point x="249.54545454545456" y="1384.2272727272727"/>
      <point x="249.54545454545456" y="1277.1363636363635" type="curve" smooth="yes"/>
      <point x="249.54545454545456" y="879.2727272727273" type="line" smooth="yes"/>
      <point x="249.54545454545456" y="715.0909090909091"/>
      <point x="328.54545454545456" y="623.4545454545455"/>
      <point x="524.0909090909091" y="611.6363636363636" type="curve"/>
      <point x="524.0909090909091" y="643.2727272727273" type="line"/>
      <point x="328.54545454545456" y="631.4545454545455"/>
      <point x="249.54545454545456" y="539.8181818181819"/>
      <point x="249.54545454545456" y="375.6363636363636" type="curve" smooth="yes"/>
      <point x="249.54545454545456" y="-101.13636363636363" type="line" smooth="yes"/>
      <point x="249.54545454545456" y="-208.22727272727275"/>
      <point x="194.95454545454547" y="-254.9090909090909"/>
      <point x="85.9090909090909" y="-254.9090909090909" type="curve" smooth="yes"/>
      <point x="-33.45454545454545" y="-254.9090909090909" type="line"/>
      <point x="-33.45454545454545" y="-447.8181818181818" type="line"/>
      <point x="9.909090909090907" y="-454.90909090909093"/>
      <point x="63.81818181818181" y="-460.0"/>
    </contour>
  </outline>
</glyph>
<glyph name="asciitilde" format="2">
  <advance width="1059.1818181818182"/>
  <unicode hex="007E"/>
  <outline>
    <contour>
      <point x="717.4090909090909" y="601.2727272727273" type="curve" smooth="yes"/>
      <point x="812.0454545454545" y="601.2727272727273"/>
      <point x="884.2272727272727" y="632.1818181818182"/>
      <point x="941.0454545454545" y="697.8181818181819" type="curve"/>
      <point x="941.0454545454545" y="905.2727272727273" type="line"/>
      <point x="872.8636363636364" y="830.0"/>
      <point x="804.7727272727273" y="796.1818181818182"/>
      <point x="718.6818181818181" y="796.1818181818182" type="curve" smooth="yes"/>
      <point x="601.0454545454545" y="796.1818181818182"/>
      <point x="489.04545454545456" y="913.2727272727273"/>
      <point x="341.77272727272725" y="913.2727272727273" type="curve" smooth="yes"/>
      <point x="247.13636363636363" y="913.2727272727273"/>
      <point x="174.95454545454547" y="882.3636363636364"/>
      <point x="118.13636363636364" y="816.7272727272727" type="curve"/>
      <point x="118.13636363636364" y="609.2727272727273" type="line"/>
      <point x="186.3181818181818" y="684.5454545454545"/>
      <point x="254.4090909090909" y="718.3636363636364"/>
      <point x="340.5" y="718.3636363636364" type="curve" smooth="yes"/>
      <point x="458.1363636363636" y="718.3636363636364"/>
      <point x="570.1363636363636" y="601.2727272727273"/>
    </contour>
  </outline>
</glyph>
<glyph name="exclamdown" format="2">
  <advance width="531.5454545454545"/>
  <unicode hex="00A1"/>
  <outline>
    <contour>
      <point x="188.86363636363637" y="646.7272727272727" type="line"/>
      <point x="131.04545454545456" y="137.9090909090909" type="line"/>
      <point x="131.04545454545456" y="-380.0" type="line"/>
      <point x="400.5" y="-380.0" type="line"/>
      <point x="400.5" y="137.9090909090909" type="line"/>
      <point x="345.1363636363636" y="646.7272727272727" type="line"/>
    </contour>
    <contour>
      <point x="265.77272727272725" y="1106.3636363636363" type="curve" smooth="yes"/>
      <point x="165.6818181818182" y="1106.3636363636363"/>
      <point x="97.4090909090909" y="1044.4545454545455"/>
      <point x="97.4090909090909" y="944.2727272727273" type="curve" smooth="yes"/>
      <point x="97.4090909090909" y="844.0909090909091"/>
      <point x="163.5" y="781.2727272727273"/>
      <point x="265.77272727272725" y="781.2727272727273" type="curve" smooth="yes"/>
      <point x="368.0454545454545" y="781.2727272727273"/>
      <point x="434.1363636363636" y="846.2727272727273"/>
      <point x="434.1363636363636" y="944.2727272727273" type="curve" smooth="yes"/>
      <point x="434.1363636363636" y="1042.2727272727273"/>
      <point x="365.8636363636364" y="1106.3636363636363"/>
    </contour>
  </outline>
</glyph>
<glyph name="cent" format="2">
  <advance width="857.0454545454545"/>
  <unicode hex="00A2"/>
  <outline>
    <contour>
      <point x="568.1818181818182" y="-20.18181818181818" type="curve" smooth="yes"/>
      <point x="653.1363636363636" y="-20.18181818181818"/>
      <point x="740.4545454545455" y="-6.681818181818182"/>
      <point x="819.4090909090909" y="20.045454545454547" type="curve"/>
      <point x="819.4090909090909" y="226.04545454545453" type="line"/>
      <point x="738.2272727272727" y="200.63636363636363"/>
      <point x="674.3181818181818" y="189.27272727272725"/>
      <point x="614.1363636363636" y="189.27272727272725" type="curve" smooth="yes"/>
      <point x="427.4090909090909" y="189.27272727272725"/>
      <point x="331.45454545454544" y="279.4090909090909"/>
      <point x="331.45454545454544" y="548.3636363636364" type="curve" smooth="yes"/>
      <point x="331.45454545454544" y="807.1363636363636"/>
      <point x="429.45454545454544" y="898.5454545454545"/>
      <point x="643.0454545454545" y="898.5454545454545" type="curve" smooth="yes"/>
      <point x="698.2272727272727" y="898.5454545454545"/>
      <point x="757.8636363636364" y="892.1818181818182"/>
      <point x="819.4090909090909" y="878.9545454545455" type="curve"/>
      <point x="819.4090909090909" y="1084.9545454545455" type="line"/>
      <point x="751.5909090909091" y="1100.7727272727273"/>
      <point x="680.6818181818182" y="1108.0"/>
      <point x="607.0" y="1108.0" type="curve" smooth="yes"/>
      <point x="267.27272727272725" y="1108.0"/>
      <point x="69.9090909090909" y="943.0"/>
      <point x="69.9090909090909" y="544.0909090909091" type="curve" smooth="yes"/>
      <point x="69.9090909090909" y="150.6818181818182"/>
      <point x="248.13636363636363" y="-20.18181818181818"/>
    </contour>
    <contour>
      <point x="440.1818181818182" y="-240.0" type="line"/>
      <point x="654.7272727272727" y="-240.0" type="line"/>
      <point x="654.7272727272727" y="32.72727272727273" type="line"/>
      <point x="440.1818181818182" y="32.72727272727273" type="line"/>
    </contour>
    <contour>
      <point x="440.1818181818182" y="1058.1818181818182" type="line"/>
      <point x="654.7272727272727" y="1058.1818181818182" type="line"/>
      <point x="654.7272727272727" y="1330.909090909091" type="line"/>
      <point x="440.1818181818182" y="1330.909090909091" type="line"/>
    </contour>
  </outline>
</glyph>
<glyph name="sterling" format="2">
  <advance width="1225.2727272727273"/>
  <unicode hex="00A3"/>
  <outline>
    <contour>
      <point x="262.27272727272725" y="82.18181818181819" type="line"/>
      <point x="513.0" y="82.18181818181819" type="line"/>
      <point x="513.0" y="1039.5454545454545" type="line" smooth="yes"/>
      <point x="513.0" y="1213.409090909091"/>
      <point x="607.6818181818182" y="1285.5454545454545"/>
      <point x="846.2727272727273" y="1285.5454545454545" type="curve" smooth="yes"/>
      <point x="939.7272727272727" y="1285.5454545454545"/>
      <point x="1044.9545454545455" y="1272.4545454545455"/>
      <point x="1134.7272727272727" y="1246.590909090909" type="curve"/>
      <point x="1134.7272727272727" y="1461.0454545454545" type="line"/>
      <point x="1049.7727272727273" y="1484.7727272727273"/>
      <point x="936.7272727272727" y="1499.090909090909"/>
      <point x="828.5909090909091" y="1499.090909090909" type="curve" smooth="yes"/>
      <point x="450.45454545454544" y="1499.090909090909"/>
      <point x="262.27272727272725" y="1337.5454545454545"/>
      <point x="262.27272727272725" y="1031.909090909091" type="curve" smooth="yes"/>
    </contour>
    <contour>
      <point x="69.0909090909091" y="0.0" type="line"/>
      <point x="1172.2727272727273" y="0.0" type="line"/>
      <point x="1172.2727272727273" y="213.45454545454544" type="line"/>
      <point x="69.0909090909091" y="213.45454545454544" type="line"/>
    </contour>
    <contour>
      <point x="69.0909090909091" y="652.2727272727273" type="line"/>
      <point x="966.0909090909091" y="652.2727272727273" type="line"/>
      <point x="966.0909090909091" y="847.7272727272727" type="line"/>
      <point x="69.0909090909091" y="847.7272727272727" type="line"/>
    </contour>
  </outline>
</glyph>
<glyph name="yen" format="2">
  <advance width="1193.5454545454545"/>
  <unicode hex="00A5"/>
  <outline>
    <contour>
      <point x="469.6363636363636" y="0.0" type="line"/>
      <point x="725.8181818181818" y="0.0" type="line"/>
      <point x="725.8181818181818" y="742.4090909090909" type="line"/>
      <point x="672.8181818181818" y="548.0909090909091" type="line"/>
      <point x="1221.5" y="1480.0" type="line"/>
      <point x="968.4090909090909" y="1480.0" type="line"/>
      <point x="567.4545454545455" y="803.0" type="line"/>
      <point x="640.4545454545455" y="803.0" type="line"/>
      <point x="239.63636363636363" y="1480.0" type="line"/>
      <point x="-33.13636363636363" y="1480.0" type="line"/>
      <point x="522.6363636363636" y="548.0909090909091" type="line"/>
      <point x="469.6363636363636" y="745.6818181818181" type="line"/>
    </contour>
    <contour>
      <point x="165.0909090909091" y="278.8181818181818" type="line"/>
      <point x="1030.3636363636365" y="278.8181818181818" type="line"/>
      <point x="1030.3636363636365" y="437.72727272727275" type="line"/>
      <point x="165.0909090909091" y="437.72727272727275" type="line"/>
    </contour>
    <contour>
      <point x="165.0909090909091" y="610.2727272727273" type="line"/>
      <point x="1030.3636363636365" y="610.2727272727273" type="line"/>
      <point x="1030.3636363636365" y="769.1818181818181" type="line"/>
      <point x="165.0909090909091" y="769.1818181818181" type="line"/>
    </contour>
  </outline>
</glyph>
<glyph name="brokenbar" format="2">
  <advance width="495.6363636363636"/>
  <unicode hex="00A6"/>
  <outline>
    <contour>
      <point x="134.1818181818182" y="836.0" type="line"/>
      <point x="361.45454545454544" y="836.0" type="line"/>
      <point x="361.45454545454544" y="1616.0" type="line"/>
      <point x="134.1818181818182" y="1616.0" type="line"/>
    </contour>
    <contour>
      <point x="134.1818181818182" y="-440.0" type="line"/>
      <point x="361.45454545454544" y="-440.0" type="line"/>
      <point x="361.45454545454544" y="340.0" type="line"/>
      <point x="134.1818181818182" y="340.0" type="line"/>
    </contour>
  </outline>
</glyph>
<glyph name="section" format="2">
  <advance width="990.5454545454545"/>
  <unicode hex="00A7"/>
  <outline>
    <contour>
      <point x="420.6363636363636" y="-20.18181818181818" type="curve" smooth="yes"/>
      <point x="707.3636363636364" y="-20.18181818181818"/>
      <point x="865.0" y="108.18181818181819"/>
      <point x="865.0" y="313.6363636363636" type="curve" smooth="yes"/>
      <point x="865.0" y="466.72727272727275"/>
      <point x="780.9090909090909" y="553.4545454545455"/>
      <point x="600.0454545454545" y="596.0909090909091" type="curve" smooth="yes"/>
      <point x="427.6363636363636" y="634.0" type="line" smooth="yes"/>
      <point x="333.72727272727275" y="656.5909090909091"/>
      <point x="298.0454545454545" y="702.8636363636364"/>
      <point x="298.0454545454545" y="776.6363636363636" type="curve" smooth="yes"/>
      <point x="298.0454545454545" y="833.0"/>
      <point x="323.0454545454545" y="878.4545454545455"/>
      <point x="375.04545454545456" y="923.5909090909091" type="curve"/>
      <point x="236.45454545454544" y="1017.5454545454545" type="line"/>
      <point x="147.13636363636363" y="959.8636363636364"/>
      <point x="90.0" y="875.5"/>
      <point x="90.0" y="764.9545454545455" type="curve" smooth="yes"/>
      <point x="90.0" y="597.2272727272727"/>
      <point x="179.22727272727272" y="503.54545454545456"/>
      <point x="346.3181818181818" y="464.1818181818182" type="curve" smooth="yes"/>
      <point x="518.4545454545455" y="425.72727272727275" type="line" smooth="yes"/>
      <point x="598.0" y="406.40909090909093"/>
      <point x="634.1363636363636" y="372.77272727272725"/>
      <point x="634.1363636363636" y="300.1818181818182" type="curve" smooth="yes"/>
      <point x="634.1363636363636" y="215.72727272727272"/>
      <point x="574.5454545454545" y="164.72727272727272"/>
      <point x="418.5909090909091" y="164.72727272727272" type="curve" smooth="yes"/>
      <point x="323.0" y="164.72727272727272"/>
      <point x="227.45454545454547" y="177.59090909090907"/>
      <point x="130.1818181818182" y="205.40909090909088" type="curve"/>
      <point x="130.1818181818182" y="19.59090909090909" type="line"/>
      <point x="222.0909090909091" y="-6.954545454545454"/>
      <point x="323.77272727272725" y="-20.18181818181818"/>
    </contour>
    <contour>
      <point x="746.3636363636364" y="455.6818181818182" type="line"/>
      <point x="839.4545454545455" y="513.7727272727273"/>
      <point x="900.5454545454545" y="599.1818181818181"/>
      <point x="900.5454545454545" y="717.7272727272727" type="curve" smooth="yes"/>
      <point x="900.5454545454545" y="887.4545454545455"/>
      <point x="816.4545454545455" y="978.3636363636364"/>
      <point x="642.4090909090909" y="1018.8181818181818" type="curve" smooth="yes"/>
      <point x="467.54545454545456" y="1056.1818181818182" type="line" smooth="yes"/>
      <point x="387.5454545454545" y="1075.5"/>
      <point x="353.68181818181813" y="1112.1363636363637"/>
      <point x="353.68181818181813" y="1176.3636363636363" type="curve" smooth="yes"/>
      <point x="353.68181818181813" y="1249.3181818181818"/>
      <point x="410.95454545454544" y="1312.1818181818182"/>
      <point x="598.4090909090909" y="1312.1818181818182" type="curve" smooth="yes"/>
      <point x="676.1818181818181" y="1312.1818181818182"/>
      <point x="747.1363636363636" y="1305.1818181818182"/>
      <point x="827.090909090909" y="1286.3636363636365" type="curve"/>
      <point x="827.090909090909" y="1472.1818181818182" type="line"/>
      <point x="753.3636363636364" y="1488.090909090909"/>
      <point x="670.0" y="1497.090909090909"/>
      <point x="581.7727272727273" y="1497.090909090909" type="curve" smooth="yes"/>
      <point x="268.54545454545456" y="1497.090909090909"/>
      <point x="122.81818181818181" y="1361.1818181818182"/>
      <point x="122.81818181818181" y="1163.590909090909" type="curve" smooth="yes"/>
      <point x="122.81818181818181" y="1017.9545454545455"/>
      <point x="210.95454545454544" y="926.5454545454545"/>
      <point x="388.6818181818182" y="885.8181818181819" type="curve" smooth="yes"/>
      <point x="560.8181818181818" y="847.9090909090909" type="line" smooth="yes"/>
      <point x="654.2727272727273" y="825.3181818181819"/>
      <point x="692.5" y="782.0454545454545"/>
      <point x="692.5" y="704.0" type="curve" smooth="yes"/>
      <point x="692.5" y="647.0454545454545"/>
      <point x="668.0454545454545" y="604.8181818181818"/>
      <point x="604.6818181818181" y="558.0909090909091" type="curve"/>
    </contour>
  </outline>
</glyph>
<glyph name="copyright" format="2">
  <advance width="1659.8181818181818"/>
  <unicode hex="00A9"/>
  <outline>
    <contour>
      <point x="829.9090909090909" y="-22.0" type="curve" smooth="yes"/>
      <point x="1279.1818181818182" y="-22.0"/>
      <point x="1577.1818181818182" y="282.0"/>
      <point x="1577.1818181818182" y="740.0" type="curve" smooth="yes"/>
      <point x="1577.1818181818182" y="1198.0"/>
      <point x="1279.1818181818182" y="1502.0"/>
      <point x="829.9090909090909" y="1502.0" type="curve" smooth="yes"/>
      <point x="380.6363636363636" y="1502.0"/>
      <point x="82.63636363636364" y="1198.0"/>
      <point x="82.63636363636364" y="740.0" type="curve" smooth="yes"/>
      <point x="82.63636363636364" y="282.0"/>
      <point x="380.6363636363636" y="-22.0"/>
    </contour>
    <contour>
      <point x="883.5454545454545" y="324.0" type="curve" smooth="yes"/>
      <point x="963.7272727272727" y="324.0"/>
      <point x="1035.7272727272727" y="336.0"/>
      <point x="1093.909090909091" y="359.45454545454544" type="curve"/>
      <point x="1093.909090909091" y="525.8181818181818" type="line"/>
      <point x="1014.0909090909091" y="501.45454545454544"/>
      <point x="958.4545454545455" y="493.6363636363636"/>
      <point x="901.5454545454545" y="493.6363636363636" type="curve" smooth="yes"/>
      <point x="751.3636363636364" y="493.6363636363636"/>
      <point x="662.0909090909091" y="573.0909090909091"/>
      <point x="662.0909090909091" y="734.7272727272727" type="curve" smooth="yes"/>
      <point x="662.0909090909091" y="894.7272727272727"/>
      <point x="748.0909090909091" y="974.3636363636364"/>
      <point x="918.0909090909091" y="974.3636363636364" type="curve" smooth="yes"/>
      <point x="980.4545454545455" y="974.3636363636364"/>
      <point x="1033.0" y="966.5454545454545"/>
      <point x="1093.909090909091" y="952.9090909090909" type="curve"/>
      <point x="1093.909090909091" y="1119.2727272727273" type="line"/>
      <point x="1034.2727272727273" y="1136.0"/>
      <point x="973.1818181818181" y="1144.0"/>
      <point x="901.9090909090909" y="1144.0" type="curve" smooth="yes"/>
      <point x="629.1818181818181" y="1144.0"/>
      <point x="465.72727272727275" y="993.8181818181819"/>
      <point x="465.72727272727275" y="732.9090909090909" type="curve" smooth="yes"/>
      <point x="465.72727272727275" y="468.54545454545456"/>
      <point x="630.6363636363636" y="324.0"/>
    </contour>
    <contour>
      <point x="829.9090909090909" y="124.54545454545453" type="curve" smooth="yes"/>
      <point x="461.0" y="124.54545454545453"/>
      <point x="234.63636363636363" y="364.54545454545456"/>
      <point x="234.63636363636363" y="740.0" type="curve" smooth="yes"/>
      <point x="234.63636363636363" y="1115.4545454545455"/>
      <point x="461.0" y="1355.4545454545455"/>
      <point x="829.9090909090909" y="1355.4545454545455" type="curve" smooth="yes"/>
      <point x="1198.8181818181818" y="1355.4545454545455"/>
      <point x="1425.1818181818182" y="1115.4545454545455"/>
      <point x="1425.1818181818182" y="740.0" type="curve" smooth="yes"/>
      <point x="1425.1818181818182" y="364.54545454545456"/>
      <point x="1198.8181818181818" y="124.54545454545453"/>
    </contour>
  </outline>
</glyph>
<glyph name="ordfeminine" format="2">
  <advance width="847.2727272727273"/>
  <unicode hex="00AA"/>
  <outline>
    <contour>
      <point x="311.3636363636364" y="593.8181818181819" type="curve" smooth="yes"/>
      <point x="405.04545454545456" y="593.8181818181819"/>
      <point x="490.09090909090907" y="626.9090909090909"/>
      <point x="540.2727272727273" y="701.5454545454545" type="curve"/>
      <point x="552.0" y="701.5454545454545" type="line"/>
      <point x="569.4545454545455" y="610.0" type="line"/>
      <point x="762.6363636363636" y="610.0" type="line"/>
      <point x="762.6363636363636" y="1145.9545454545455" type="line" smooth="yes"/>
      <point x="762.6363636363636" y="1407.2727272727273"/>
      <point x="641.2727272727273" y="1497.4545454545455"/>
      <point x="379.04545454545456" y="1497.4545454545455" type="curve" smooth="yes"/>
      <point x="291.1818181818182" y="1497.4545454545455"/>
      <point x="188.77272727272728" y="1484.5454545454545"/>
      <point x="106.5" y="1460.6818181818182" type="curve"/>
      <point x="106.5" y="1280.7727272727273" type="line"/>
      <point x="182.77272727272728" y="1303.8636363636365"/>
      <point x="264.6818181818182" y="1316.0"/>
      <point x="334.0909090909091" y="1316.0" type="curve" smooth="yes"/>
      <point x="478.8636363636364" y="1316.0"/>
      <point x="530.9090909090909" y="1277.2727272727273"/>
      <point x="530.9090909090909" y="1170.2272727272727" type="curve" smooth="yes"/>
      <point x="530.9090909090909" y="821.5454545454545" type="line"/>
      <point x="492.8181818181818" y="776.0454545454545"/>
      <point x="440.72727272727275" y="759.1818181818181"/>
      <point x="395.95454545454544" y="759.1818181818181" type="curve" smooth="yes"/>
      <point x="316.3636363636364" y="759.1818181818181"/>
      <point x="270.9090909090909" y="797.0909090909091"/>
      <point x="270.9090909090909" y="874.4090909090909" type="curve" smooth="yes"/>
      <point x="270.9090909090909" y="945.5454545454545"/>
      <point x="315.22727272727275" y="983.7727272727273"/>
      <point x="416.54545454545456" y="992.1363636363636" type="curve" smooth="yes"/>
      <point x="599.4090909090909" y="1006.0454545454545" type="line"/>
      <point x="569.3636363636364" y="1131.2727272727273" type="line"/>
      <point x="386.59090909090907" y="1116.2727272727273" type="line" smooth="yes"/>
      <point x="141.4090909090909" y="1100.2272727272727"/>
      <point x="41.45454545454545" y="1010.2272727272727"/>
      <point x="41.45454545454545" y="843.9545454545455" type="curve" smooth="yes"/>
      <point x="41.45454545454545" y="694.7727272727273"/>
      <point x="144.6818181818182" y="593.8181818181819"/>
    </contour>
  </outline>
</glyph>
<glyph name="guillemetleft" format="2">
  <advance width="1056.6818181818182"/>
  <unicode hex="00AB"/>
  <outline>
    <contour>
      <point x="311.0" y="134.54545454545453" type="line"/>
      <point x="564.1818181818181" y="134.54545454545453" type="line"/>
      <point x="341.6363636363636" y="565.4545454545455" type="line"/>
      <point x="564.1818181818181" y="996.3636363636364" type="line"/>
      <point x="311.0" y="996.3636363636364" type="line"/>
      <point x="88.45454545454545" y="565.4545454545455" type="line"/>
    </contour>
    <contour>
      <point x="755.0454545454545" y="134.54545454545453" type="line"/>
      <point x="1008.2272727272727" y="134.54545454545453" type="line"/>
      <point x="785.6818181818182" y="565.4545454545455" type="line"/>
      <point x="1008.2272727272727" y="996.3636363636364" type="line"/>
      <point x="755.0454545454545" y="996.3636363636364" type="line"/>
      <point x="532.5" y="565.4545454545455" type="line"/>
    </contour>
  </outline>
</glyph>
<glyph name="logicalnot" format="2">
  <advance width="1286.4545454545455"/>
  <unicode hex="00AC"/>
  <outline>
    <contour>
      <point x="968.4545454545455" y="193.63636363636363" type="line"/>
      <point x="1175.5454545454545" y="193.63636363636363" type="line"/>
      <point x="1175.5454545454545" y="859.0909090909091" type="line"/>
      <point x="118.13636363636364" y="859.0909090909091" type="line"/>
      <point x="118.13636363636364" y="660.9090909090909" type="line"/>
      <point x="968.4545454545455" y="660.9090909090909" type="line"/>
    </contour>
  </outline>
</glyph>
<glyph name="registered" format="2">
  <advance width="1438.1818181818182"/>
  <unicode hex="00AE"/>
  <outline>
    <contour>
      <point x="719.0909090909091" y="268.0" type="curve" smooth="yes"/>
      <point x="1081.090909090909" y="268.0"/>
      <point x="1329.090909090909" y="518.0"/>
      <point x="1329.090909090909" y="882.0" type="curve" smooth="yes"/>
      <point x="1329.090909090909" y="1246.0"/>
      <point x="1081.090909090909" y="1498.0"/>
      <point x="719.0909090909091" y="1498.0" type="curve" smooth="yes"/>
      <point x="357.09090909090907" y="1498.0"/>
      <point x="109.0909090909091" y="1246.0"/>
      <point x="109.0909090909091" y="882.0" type="curve" smooth="yes"/>
      <point x="109.0909090909091" y="518.0"/>
      <point x="357.09090909090907" y="268.0"/>
    </contour>
    <contour>
      <point x="857.8181818181819" y="600.0" type="line"/>
      <point x="991.6363636363636" y="600.0" type="line"/>
      <point x="828.7272727272727" y="838.1818181818181" type="line"/>
      <point x="712.0" y="812.1818181818181" type="line"/>
    </contour>
    <contour>
      <point x="719.0909090909091" y="383.09090909090907" type="curve" smooth="yes"/>
      <point x="423.8181818181818" y="383.09090909090907"/>
      <point x="231.63636363636363" y="579.4545454545455"/>
      <point x="231.63636363636363" y="882.0" type="curve" smooth="yes"/>
      <point x="231.63636363636363" y="1185.6363636363637"/>
      <point x="423.8181818181818" y="1382.909090909091"/>
      <point x="719.0909090909091" y="1382.909090909091" type="curve" smooth="yes"/>
      <point x="1014.3636363636364" y="1382.909090909091"/>
      <point x="1206.5454545454545" y="1185.6363636363637"/>
      <point x="1206.5454545454545" y="882.0" type="curve" smooth="yes"/>
      <point x="1206.5454545454545" y="579.4545454545455"/>
      <point x="1014.3636363636364" y="383.09090909090907"/>
    </contour>
    <contour>
      <point x="503.45454545454544" y="600.0" type="line"/>
      <point x="624.0" y="600.0" type="line"/>
      <point x="627.2727272727273" y="804.1818181818181" type="line"/>
      <point x="708.3636363636364" y="804.1818181818181" type="line" smooth="yes"/>
      <point x="880.1818181818181" y="804.1818181818181"/>
      <point x="963.2727272727273" y="869.0909090909091"/>
      <point x="963.2727272727273" y="997.0909090909091" type="curve" smooth="yes"/>
      <point x="963.2727272727273" y="1125.090909090909"/>
      <point x="878.1818181818181" y="1192.0"/>
      <point x="708.3636363636364" y="1192.0" type="curve" smooth="yes"/>
      <point x="503.45454545454544" y="1192.0" type="line"/>
    </contour>
    <contour>
      <point x="627.2727272727273" y="904.3636363636364" type="line"/>
      <point x="627.2727272727273" y="1091.8181818181818" type="line"/>
      <point x="728.0" y="1091.8181818181818" type="line" smooth="yes"/>
      <point x="805.0909090909091" y="1091.8181818181818"/>
      <point x="844.9090909090909" y="1060.5454545454545"/>
      <point x="844.9090909090909" y="997.0909090909091" type="curve" smooth="yes"/>
      <point x="844.9090909090909" y="933.6363636363636"/>
      <point x="807.0909090909091" y="904.3636363636364"/>
      <point x="728.0" y="904.3636363636364" type="curve" smooth="yes"/>
    </contour>
  </outline>
</glyph>
<glyph name="macron" format="2">
  <advance width="1063.6363636363635"/>
  <unicode hex="00AF"/>
  <anchor x="531.8181818181818" y="1200.0" name="_top"/>
  <anchor x="531.8181818181818" y="1588.7272727272727" name="top"/>
  <outline>
    <contour>
      <point x="208.3181818181818" y="1340.2727272727273" type="line"/>
      <point x="855.3181818181818" y="1340.2727272727273" type="line"/>
      <point x="855.3181818181818" y="1501.590909090909" type="line"/>
      <point x="208.3181818181818" y="1501.590909090909" type="line"/>
    </contour>
  </outline>
</glyph>
<glyph name="degree" format="2">
  <advance width="942.0"/>
  <unicode hex="00B0"/>
  <outline>
    <contour>
      <point x="471.0" y="782.0" type="curve" smooth="yes"/>
      <point x="680.5454545454545" y="782.0"/>
      <point x="832.9090909090909" y="933.0909090909091"/>
      <point x="832.9090909090909" y="1140.6363636363637" type="curve" smooth="yes"/>
      <point x="832.9090909090909" y="1348.1818181818182"/>
      <point x="680.5454545454545" y="1498.1818181818182"/>
      <point x="471.0" y="1498.1818181818182" type="curve" smooth="yes"/>
      <point x="261.45454545454544" y="1498.1818181818182"/>
      <point x="109.0909090909091" y="1348.1818181818182"/>
      <point x="109.0909090909091" y="1140.6363636363637" type="curve" smooth="yes"/>
      <point x="109.0909090909091" y="933.0909090909091"/>
      <point x="261.45454545454544" y="782.0"/>
    </contour>
    <contour>
      <point x="471.0" y="937.3636363636364" type="curve" smooth="yes"/>
      <point x="357.6818181818182" y="937.3636363636364"/>
      <point x="274.77272727272725" y="1015.3636363636364"/>
      <point x="274.77272727272725" y="1140.6363636363637" type="curve" smooth="yes"/>
      <point x="274.77272727272725" y="1266.1818181818182"/>
      <point x="358.77272727272725" y="1342.8181818181818"/>
      <point x="471.0" y="1342.8181818181818" type="curve" smooth="yes"/>
      <point x="583.2272727272727" y="1342.8181818181818"/>
      <point x="667.2272727272727" y="1266.1818181818182"/>
      <point x="667.2272727272727" y="1140.6363636363637" type="curve" smooth="yes"/>
      <point x="667.2272727272727" y="1015.3636363636364"/>
      <point x="584.3181818181819" y="937.3636363636364"/>
    </contour>
  </outline>
</glyph>
<glyph name="plusminus" format="2">
  <advance width="1059.1818181818182"/>
  <unicode hex="00B1"/>
  <outline>
    <contour>
      <point x="426.04545454545456" y="357.45454545454544" type="line"/>
      <point x="633.1363636363636" y="357.45454545454544" type="line"/>
      <point x="633.1363636363636" y="671.4545454545455" type="line"/>
      <point x="941.0454545454545" y="671.4545454545455" type="line"/>
      <point x="941.0454545454545" y="869.6363636363636" type="line"/>
      <point x="633.1363636363636" y="869.6363636363636" type="line"/>
      <point x="633.1363636363636" y="1183.6363636363635" type="line"/>
      <point x="426.04545454545456" y="1183.6363636363635" type="line"/>
      <point x="426.04545454545456" y="869.6363636363636" type="line"/>
      <point x="118.13636363636364" y="869.6363636363636" type="line"/>
      <point x="118.13636363636364" y="671.4545454545455" type="line"/>
      <point x="426.04545454545456" y="671.4545454545455" type="line"/>
    </contour>
    <contour>
      <point x="118.13636363636364" y="0.8181818181818181" type="line"/>
      <point x="941.0454545454545" y="0.8181818181818181" type="line"/>
      <point x="941.0454545454545" y="199.0" type="line"/>
      <point x="118.13636363636364" y="199.0" type="line"/>
    </contour>
  </outline>
</glyph>
<glyph name="twosuperior" format="2">
  <advance width="793.8636363636364"/>
  <unicode hex="00B2"/>
  <outline>
    <contour>
      <point x="85.9090909090909" y="-136.0" type="line"/>
      <point x="708.5" y="-136.0" type="line"/>
      <point x="708.5" y="34.272727272727266" type="line"/>
      <point x="308.31818181818176" y="34.272727272727266" type="line"/>
      <point x="315.6818181818182" y="-15.954545454545467" type="line"/>
      <point x="527.2727272727273" y="263.5" type="line" smooth="yes"/>
      <point x="628.2272727272727" y="395.3181818181818"/>
      <point x="667.8181818181818" y="490.22727272727275"/>
      <point x="668.5" y="591.1818181818182" type="curve" smooth="yes"/>
      <point x="669.1818181818181" y="793.0909090909091"/>
      <point x="537.2727272727273" y="877.0909090909091"/>
      <point x="310.09090909090907" y="877.0909090909091" type="curve" smooth="yes"/>
      <point x="225.4090909090909" y="877.0909090909091"/>
      <point x="134.36363636363637" y="863.7727272727273"/>
      <point x="73.0909090909091" y="840.9090909090909" type="curve"/>
      <point x="73.0909090909091" y="675.4545454545455" type="line"/>
      <point x="132.77272727272728" y="698.6818181818182"/>
      <point x="207.5909090909091" y="712.5454545454545"/>
      <point x="280.40909090909093" y="712.5454545454545" type="curve" smooth="yes"/>
      <point x="410.6363636363636" y="712.5454545454545"/>
      <point x="466.6818181818182" y="669.4545454545455"/>
      <point x="466.6818181818182" y="573.4545454545455" type="curve" smooth="yes"/>
      <point x="466.6818181818182" y="504.54545454545456"/>
      <point x="431.90909090909093" y="432.72727272727275"/>
      <point x="348.6363636363636" y="321.95454545454544" type="curve" smooth="yes"/>
      <point x="85.9090909090909" y="-26.40909090909092" type="line"/>
    </contour>
  </outline>
</glyph>
<glyph name="threesuperior" format="2">
  <advance width="793.8636363636364"/>
  <unicode hex="00B3"/>
  <outline>
    <contour>
      <point x="317.72727272727275" y="-149.0909090909091" type="curve" smooth="yes"/>
      <point x="572.6818181818181" y="-149.0909090909091"/>
      <point x="711.1363636363636" y="-44.36363636363637"/>
      <point x="711.1363636363636" y="138.4090909090909" type="curve" smooth="yes"/>
      <point x="711.1363636363636" y="276.6363636363636"/>
      <point x="631.9090909090909" y="364.54545454545456"/>
      <point x="482.6363636363636" y="386.77272727272725" type="curve"/>
      <point x="482.6363636363636" y="375.6363636363636" type="line"/>
      <point x="605.7272727272727" y="402.3636363636364"/>
      <point x="679.5" y="490.54545454545456"/>
      <point x="679.5" y="613.7272727272727" type="curve" smooth="yes"/>
      <point x="679.5" y="782.5454545454545"/>
      <point x="558.5909090909091" y="877.0909090909091"/>
      <point x="325.1818181818182" y="877.0909090909091" type="curve" smooth="yes"/>
      <point x="243.0" y="877.0909090909091"/>
      <point x="147.72727272727272" y="863.4545454545455"/>
      <point x="86.5" y="841.3636363636364" type="curve"/>
      <point x="86.5" y="685.4545454545455" type="line"/>
      <point x="150.22727272727272" y="710.2727272727273"/>
      <point x="228.95454545454544" y="722.8636363636364"/>
      <point x="300.3181818181818" y="722.8636363636364" type="curve" smooth="yes"/>
      <point x="427.22727272727275" y="722.8636363636364"/>
      <point x="485.1363636363636" y="679.5"/>
      <point x="485.1363636363636" y="594.3181818181819" type="curve" smooth="yes"/>
      <point x="485.1363636363636" y="507.3636363636364"/>
      <point x="421.72727272727275" y="454.22727272727275"/>
      <point x="284.6363636363636" y="454.22727272727275" type="curve" smooth="yes"/>
      <point x="173.0" y="454.22727272727275" type="line"/>
      <point x="173.0" y="296.5909090909091" type="line"/>
      <point x="313.77272727272725" y="296.5909090909091" type="line" smooth="yes"/>
      <point x="457.8181818181818" y="296.5909090909091"/>
      <point x="518.1363636363636" y="244.4090909090909"/>
      <point x="518.1363636363636" y="151.54545454545453" type="curve" smooth="yes"/>
      <point x="518.1363636363636" y="54.36363636363636"/>
      <point x="451.45454545454544" y="5.4090909090909065"/>
      <point x="309.3636363636364" y="5.4090909090909065" type="curve" smooth="yes"/>
      <point x="236.3181818181818" y="5.4090909090909065"/>
      <point x="147.27272727272728" y="17.090909090909093"/>
      <point x="71.0909090909091" y="40.227272727272734" type="curve"/>
      <point x="71.0909090909091" y="-115.68181818181819" type="line"/>
      <point x="147.72727272727272" y="-137.6818181818182"/>
      <point x="232.5909090909091" y="-149.0909090909091"/>
    </contour>
  </outline>
</glyph>
<glyph name="acute" format="2">
  <advance width="1063.6363636363635"/>
  <unicode hex="00B4"/>
  <anchor x="531.8181818181818" y="1200.0" name="_top"/>
  <anchor x="531.8181818181818" y="1610.5454545454545" name="top"/>
  <outline>
    <contour>
      <point x="419.45454545454544" y="1240.0" type="line"/>
      <point x="644.1818181818181" y="1240.0" type="line"/>
      <point x="882.7272727272727" y="1616.0" type="line"/>
      <point x="620.6363636363636" y="1616.0" type="line"/>
    </contour>
  </outline>
</glyph>
<glyph name="micro" format="2">
  <advance width="1097.7727272727273"/>
  <unicode hex="00B5"/>
  <outline>
    <contour>
      <point x="497.45454545454544" y="-18.818181818181817" type="curve" smooth="yes"/>
      <point x="589.4545454545455" y="-18.818181818181817"/>
      <point x="673.3181818181819" y="25.59090909090909"/>
      <point x="738.5909090909091" y="114.36363636363636" type="curve"/>
      <point x="750.9545454545455" y="114.36363636363636" type="line"/>
      <point x="768.9545454545455" y="0.0" type="line"/>
      <point x="978.6818181818182" y="0.0" type="line"/>
      <point x="978.6818181818182" y="1090.909090909091" type="line"/>
      <point x="726.5909090909091" y="1090.909090909091" type="line"/>
      <point x="726.5909090909091" y="309.22727272727275" type="line"/>
      <point x="674.6363636363636" y="234.68181818181816"/>
      <point x="586.5454545454545" y="203.45454545454544"/>
      <point x="519.3636363636364" y="203.45454545454544" type="curve" smooth="yes"/>
      <point x="426.9090909090909" y="203.45454545454544"/>
      <point x="363.0" y="248.86363636363635"/>
      <point x="363.0" y="389.1818181818182" type="curve" smooth="yes"/>
      <point x="363.0" y="593.1818181818182" type="line"/>
      <point x="243.0" y="593.1818181818182" type="line"/>
      <point x="243.0" y="372.0454545454545" type="line" smooth="yes"/>
      <point x="243.0" y="84.0"/>
      <point x="346.1818181818182" y="-18.818181818181817"/>
    </contour>
    <contour>
      <point x="110.9090909090909" y="-440.0" type="line"/>
      <point x="363.0" y="-440.0" type="line"/>
      <point x="363.0" y="1090.6363636363637" type="line"/>
      <point x="110.9090909090909" y="1090.6363636363637" type="line"/>
    </contour>
  </outline>
</glyph>
<glyph name="paragraph" format="2">
  <advance width="1215.2727272727273"/>
  <unicode hex="00B6"/>
  <outline>
    <contour>
      <point x="588.7272727272727" y="0.0" type="line"/>
      <point x="772.6363636363636" y="0.0" type="line"/>
      <point x="772.6363636363636" y="1480.0" type="line"/>
      <point x="697.9545454545455" y="1490.4545454545455"/>
      <point x="607.1818181818181" y="1497.2727272727273"/>
      <point x="518.0" y="1497.2727272727273" type="curve" smooth="yes"/>
      <point x="213.9090909090909" y="1497.2727272727273"/>
      <point x="72.86363636363636" y="1335.2272727272727"/>
      <point x="72.86363636363636" y="972.7727272727273" type="curve" smooth="yes"/>
      <point x="72.86363636363636" y="630.1363636363636"/>
      <point x="211.0909090909091" y="449.54545454545456"/>
      <point x="491.90909090909093" y="449.54545454545456" type="curve" smooth="yes"/>
      <point x="527.9545454545455" y="449.54545454545456"/>
      <point x="554.9090909090909" y="450.9545454545455"/>
      <point x="588.7272727272727" y="453.45454545454544" type="curve"/>
    </contour>
    <contour>
      <point x="897.1818181818181" y="0.0" type="line"/>
      <point x="1081.090909090909" y="0.0" type="line"/>
      <point x="1081.090909090909" y="1480.0" type="line"/>
      <point x="897.1818181818181" y="1480.0" type="line"/>
    </contour>
  </outline>
</glyph>
<glyph name="cedilla" format="2">
  <advance width="1063.6363636363635"/>
  <unicode hex="00B8"/>
  <anchor x="531.8181818181818" y="0.0" name="_bottom"/>
  <outline>
    <contour>
      <point x="526.3181818181818" y="-432.72727272727275" type="curve" smooth="yes"/>
      <point x="682.5454545454545" y="-432.72727272727275"/>
      <point x="757.5909090909091" y="-365.27272727272725"/>
      <point x="757.5909090909091" y="-260.5" type="curve" smooth="yes"/>
      <point x="757.5909090909091" y="-152.72727272727272"/>
      <point x="680.7727272727273" y="-90.04545454545455"/>
      <point x="543.2272727272727" y="-90.04545454545455" type="curve"/>
      <point x="604.3636363636364" y="-131.0909090909091" type="line"/>
      <point x="604.3636363636364" y="20.0" type="line"/>
      <point x="475.27272727272725" y="20.0" type="line"/>
      <point x="475.27272727272725" y="-172.45454545454544" type="line"/>
      <point x="514.0909090909091" y="-172.45454545454544" type="line" smooth="yes"/>
      <point x="581.5" y="-172.45454545454544"/>
      <point x="618.0" y="-197.04545454545453"/>
      <point x="618.0" y="-250.95454545454547" type="curve" smooth="yes"/>
      <point x="618.0" y="-303.6363636363636"/>
      <point x="584.5" y="-326.45454545454544"/>
      <point x="516.3636363636364" y="-326.45454545454544" type="curve" smooth="yes"/>
      <point x="471.45454545454544" y="-326.45454545454544"/>
      <point x="412.6818181818182" y="-317.72727272727275"/>
      <point x="358.6363636363636" y="-293.77272727272725" type="curve"/>
      <point x="358.6363636363636" y="-401.59090909090907" type="line"/>
      <point x="406.0" y="-421.3181818181818"/>
      <point x="465.27272727272725" y="-432.72727272727275"/>
    </contour>
  </outline>
</glyph>
<glyph name="onesuperior" format="2">
  <advance width="793.8636363636364"/>
  <unicode hex="00B9"/>
  <outline>
    <contour>
      <point x="334.04545454545456" y="-113.27272727272727" type="line"/>
      <point x="536.8636363636364" y="-113.27272727272727" type="line"/>
      <point x="536.8636363636364" y="868.0" type="line"/>
      <point x="409.0" y="868.0" type="line"/>
      <point x="135.45454545454547" y="685.0454545454545" type="line"/>
      <point x="135.45454545454547" y="501.4090909090909" type="line"/>
      <point x="409.0" y="684.3636363636364" type="line"/>
      <point x="334.04545454545456" y="743.2272727272727" type="line"/>
    </contour>
    <contour>
      <point x="133.13636363636363" y="-136.0" type="line"/>
      <point x="727.5909090909091" y="-136.0" type="line"/>
      <point x="727.5909090909091" y="34.272727272727266" type="line"/>
      <point x="133.13636363636363" y="34.272727272727266" type="line"/>
    </contour>
  </outline>
</glyph>
<glyph name="ordmasculine" format="2">
  <advance width="908.1818181818182"/>
  <unicode hex="00BA"/>
  <outline>
    <contour>
      <point x="454.3636363636364" y="593.8181818181819" type="curve" smooth="yes"/>
      <point x="708.3181818181818" y="593.8181818181819"/>
      <point x="859.2727272727273" y="746.0909090909091"/>
      <point x="859.2727272727273" y="1045.7272727272727" type="curve" smooth="yes"/>
      <point x="859.2727272727273" y="1345.3636363636363"/>
      <point x="708.3181818181818" y="1497.4545454545455"/>
      <point x="454.3636363636364" y="1497.4545454545455" type="curve" smooth="yes"/>
      <point x="200.4090909090909" y="1497.4545454545455"/>
      <point x="48.909090909090914" y="1349.4545454545455"/>
      <point x="48.909090909090914" y="1045.7272727272727" type="curve" smooth="yes"/>
      <point x="48.909090909090914" y="742.0"/>
      <point x="200.4090909090909" y="593.8181818181819"/>
    </contour>
    <contour>
      <point x="454.3636363636364" y="768.9545454545455" type="curve" smooth="yes"/>
      <point x="352.5" y="768.9545454545455"/>
      <point x="284.3636363636364" y="827.0"/>
      <point x="284.3636363636364" y="1045.7272727272727" type="curve" smooth="yes"/>
      <point x="284.3636363636364" y="1265.2727272727273"/>
      <point x="352.5" y="1322.3181818181818"/>
      <point x="454.3636363636364" y="1322.3181818181818" type="curve" smooth="yes"/>
      <point x="556.7727272727273" y="1322.3181818181818"/>
      <point x="623.8181818181819" y="1265.2727272727273"/>
      <point x="623.8181818181819" y="1045.7272727272727" type="curve" smooth="yes"/>
      <point x="623.8181818181819" y="827.0"/>
      <point x="556.7727272727273" y="768.9545454545455"/>
    </contour>
  </outline>
</glyph>
<glyph name="guillemetright" format="2">
  <advance width="1056.6818181818182"/>
  <unicode hex="00BB"/>
  <outline>
    <contour>
      <point x="48.45454545454545" y="134.54545454545453" type="line"/>
      <point x="301.6363636363636" y="134.54545454545453" type="line"/>
      <point x="524.1818181818181" y="565.4545454545455" type="line"/>
      <point x="301.6363636363636" y="996.3636363636364" type="line"/>
      <point x="48.45454545454545" y="996.3636363636364" type="line"/>
      <point x="271.0" y="565.4545454545455" type="line"/>
    </contour>
    <contour>
      <point x="492.5" y="134.54545454545453" type="line"/>
      <point x="745.6818181818182" y="134.54545454545453" type="line"/>
      <point x="968.2272727272727" y="565.4545454545455" type="line"/>
      <point x="745.6818181818182" y="996.3636363636364" type="line"/>
      <point x="492.5" y="996.3636363636364" type="line"/>
      <point x="715.0454545454545" y="565.4545454545455" type="line"/>
    </contour>
  </outline>
</glyph>
<glyph name="onequarter" format="2">
  <advance width="1892.1363636363635"/>
  <unicode hex="00BC"/>
  <outline>
    <contour>
      <point x="334.04545454545456" y="638.7272727272727" type="line"/>
      <point x="536.8636363636364" y="638.7272727272727" type="line"/>
      <point x="536.8636363636364" y="1620.0" type="line"/>
      <point x="409.0" y="1620.0" type="line"/>
      <point x="135.45454545454547" y="1437.0454545454545" type="line"/>
      <point x="135.45454545454547" y="1253.409090909091" type="line"/>
      <point x="409.0" y="1436.3636363636365" type="line"/>
      <point x="334.04545454545456" y="1495.2272727272727" type="line"/>
    </contour>
    <contour>
      <point x="133.13636363636363" y="616.0" type="line"/>
      <point x="727.5909090909091" y="616.0" type="line"/>
      <point x="727.5909090909091" y="786.2727272727273" type="line"/>
      <point x="133.13636363636363" y="786.2727272727273" type="line"/>
    </contour>
    <contour>
      <point x="459.0909090909091" y="-136.0" type="line"/>
      <point x="670.4545454545455" y="-136.0" type="line"/>
      <point x="1433.0454545454545" y="1616.0" type="line"/>
      <point x="1221.6818181818182" y="1616.0" type="line"/>
    </contour>
    <contour>
      <point x="1126.0454545454545" y="75.9090909090909" type="line"/>
      <point x="1867.4545454545455" y="75.9090909090909" type="line"/>
      <point x="1867.4545454545455" y="231.36363636363637" type="line"/>
      <point x="1297.8636363636365" y="231.36363636363637" type="line"/>
      <point x="1320.590909090909" y="187.13636363636363" type="line"/>
      <point x="1634.2272727272727" y="864.0" type="line"/>
      <point x="1442.9545454545455" y="864.0" type="line"/>
      <point x="1126.0454545454545" y="187.36363636363637" type="line"/>
    </contour>
    <contour>
      <point x="1567.4545454545455" y="-136.0" type="line"/>
      <point x="1745.6363636363635" y="-136.0" type="line"/>
      <point x="1745.6363636363635" y="526.0" type="line"/>
      <point x="1607.5454545454545" y="526.0" type="line"/>
      <point x="1567.4545454545455" y="231.36363636363637" type="line"/>
    </contour>
  </outline>
</glyph>
<glyph name="onehalf" format="2">
  <advance width="1892.1363636363635"/>
  <unicode hex="00BD"/>
  <outline>
    <contour>
      <point x="334.04545454545456" y="638.7272727272727" type="line"/>
      <point x="536.8636363636364" y="638.7272727272727" type="line"/>
      <point x="536.8636363636364" y="1620.0" type="line"/>
      <point x="409.0" y="1620.0" type="line"/>
      <point x="135.45454545454547" y="1437.0454545454545" type="line"/>
      <point x="135.45454545454547" y="1253.409090909091" type="line"/>
      <point x="409.0" y="1436.3636363636365" type="line"/>
      <point x="334.04545454545456" y="1495.2272727272727" type="line"/>
    </contour>
    <contour>
      <point x="133.13636363636363" y="616.0" type="line"/>
      <point x="727.5909090909091" y="616.0" type="line"/>
      <point x="727.5909090909091" y="786.2727272727273" type="line"/>
      <point x="133.13636363636363" y="786.2727272727273" type="line"/>
    </contour>
    <contour>
      <point x="459.0909090909091" y="-136.0" type="line"/>
      <point x="670.4545454545455" y="-136.0" type="line"/>
      <point x="1433.0454545454545" y="1616.0" type="line"/>
      <point x="1221.6818181818182" y="1616.0" type="line"/>
    </contour>
    <contour>
      <point x="1184.1818181818182" y="-136.0" type="line"/>
      <point x="1806.7727272727273" y="-136.0" type="line"/>
      <point x="1806.7727272727273" y="34.272727272727266" type="line"/>
      <point x="1406.590909090909" y="34.272727272727266" type="line"/>
      <point x="1413.9545454545455" y="-15.954545454545467" type="line"/>
      <point x="1625.5454545454545" y="263.5" type="line" smooth="yes"/>
      <point x="1726.5" y="395.3181818181818"/>
      <point x="1766.090909090909" y="490.22727272727275"/>
      <point x="1766.7727272727273" y="591.1818181818182" type="curve" smooth="yes"/>
      <point x="1767.4545454545455" y="793.0909090909091"/>
      <point x="1635.5454545454545" y="877.0909090909091"/>
      <point x="1408.3636363636365" y="877.0909090909091" type="curve" smooth="yes"/>
      <point x="1323.6818181818182" y="877.0909090909091"/>
      <point x="1232.6363636363635" y="863.7727272727273"/>
      <point x="1171.3636363636363" y="840.9090909090909" type="curve"/>
      <point x="1171.3636363636363" y="675.4545454545455" type="line"/>
      <point x="1231.0454545454545" y="698.6818181818182"/>
      <point x="1305.8636363636363" y="712.5454545454545"/>
      <point x="1378.6818181818182" y="712.5454545454545" type="curve" smooth="yes"/>
      <point x="1508.909090909091" y="712.5454545454545"/>
      <point x="1564.9545454545455" y="669.4545454545455"/>
      <point x="1564.9545454545455" y="573.4545454545455" type="curve" smooth="yes"/>
      <point x="1564.9545454545455" y="504.54545454545456"/>
      <point x="1530.1818181818182" y="432.72727272727275"/>
      <point x="1446.909090909091" y="321.95454545454544" type="curve" smooth="yes"/>
      <point x="1184.1818181818182" y="-26.40909090909092" type="line"/>
    </contour>
  </outline>
</glyph>
<glyph name="threequarters" format="2">
  <advance width="1892.1363636363635"/>
  <unicode hex="00BE"/>
  <outline>
    <contour>
      <point x="317.72727272727275" y="602.9090909090909" type="curve" smooth="yes"/>
      <point x="572.6818181818181" y="602.9090909090909"/>
      <point x="711.1363636363636" y="707.6363636363636"/>
      <point x="711.1363636363636" y="890.4090909090909" type="curve" smooth="yes"/>
      <point x="711.1363636363636" y="1028.6363636363637"/>
      <point x="631.9090909090909" y="1116.5454545454545"/>
      <point x="482.6363636363636" y="1138.7727272727273" type="curve"/>
      <point x="482.6363636363636" y="1127.6363636363637" type="line"/>
      <point x="605.7272727272727" y="1154.3636363636363"/>
      <point x="679.5" y="1242.5454545454545"/>
      <point x="679.5" y="1365.7272727272727" type="curve" smooth="yes"/>
      <point x="679.5" y="1534.5454545454545"/>
      <point x="558.5909090909091" y="1629.090909090909"/>
      <point x="325.1818181818182" y="1629.090909090909" type="curve" smooth="yes"/>
      <point x="243.0" y="1629.090909090909"/>
      <point x="147.72727272727272" y="1615.4545454545455"/>
      <point x="86.5" y="1593.3636363636363" type="curve"/>
      <point x="86.5" y="1437.4545454545455" type="line"/>
      <point x="150.22727272727272" y="1462.2727272727273"/>
      <point x="228.95454545454544" y="1474.8636363636363"/>
      <point x="300.3181818181818" y="1474.8636363636363" type="curve" smooth="yes"/>
      <point x="427.22727272727275" y="1474.8636363636363"/>
      <point x="485.1363636363636" y="1431.5"/>
      <point x="485.1363636363636" y="1346.3181818181818" type="curve" smooth="yes"/>
      <point x="485.1363636363636" y="1259.3636363636363"/>
      <point x="421.72727272727275" y="1206.2272727272727"/>
      <point x="284.6363636363636" y="1206.2272727272727" type="curve" smooth="yes"/>
      <point x="173.0" y="1206.2272727272727" type="line"/>
      <point x="173.0" y="1048.590909090909" type="line"/>
      <point x="313.77272727272725" y="1048.590909090909" type="line" smooth="yes"/>
      <point x="457.8181818181818" y="1048.590909090909"/>
      <point x="518.1363636363636" y="996.4090909090909"/>
      <point x="518.1363636363636" y="903.5454545454545" type="curve" smooth="yes"/>
      <point x="518.1363636363636" y="806.3636363636364"/>
      <point x="451.45454545454544" y="757.4090909090909"/>
      <point x="309.3636363636364" y="757.4090909090909" type="curve" smooth="yes"/>
      <point x="236.3181818181818" y="757.4090909090909"/>
      <point x="147.27272727272728" y="769.0909090909091"/>
      <point x="71.0909090909091" y="792.2272727272727" type="curve"/>
      <point x="71.0909090909091" y="636.3181818181819" type="line"/>
      <point x="147.72727272727272" y="614.3181818181819"/>
      <point x="232.5909090909091" y="602.9090909090909"/>
    </contour>
    <contour>
      <point x="459.0909090909091" y="-136.0" type="line"/>
      <point x="670.4545454545455" y="-136.0" type="line"/>
      <point x="1433.0454545454545" y="1616.0" type="line"/>
      <point x="1221.6818181818182" y="1616.0" type="line"/>
    </contour>
    <contour>
      <point x="1126.0454545454545" y="75.9090909090909" type="line"/>
      <point x="1867.4545454545455" y="75.9090909090909" type="line"/>
      <point x="1867.4545454545455" y="231.36363636363637" type="line"/>
      <point x="1297.8636363636365" y="231.36363636363637" type="line"/>
      <point x="1320.590909090909" y="187.13636363636363" type="line"/>
      <point x="1634.2272727272727" y="864.0" type="line"/>
      <point x="1442.9545454545455" y="864.0" type="line"/>
      <point x="1126.0454545454545" y="187.36363636363637" type="line"/>
    </contour>
    <contour>
      <point x="1567.4545454545455" y="-136.0" type="line"/>
      <point x="1745.6363636363635" y="-136.0" type="line"/>
      <point x="1745.6363636363635" y="526.0" type="line"/>
      <point x="1607.5454545454545" y="526.0" type="line"/>
      <point x="1567.4545454545455" y="231.36363636363637" type="line"/>
    </contour>
  </outline>
</glyph>
<glyph name="questiondown" format="2">
  <advance width="901.6818181818182"/>
  <unicode hex="00BF"/>
  <outline>
    <contour>
      <point x="582.8636363636364" y="664.3636363636364" type="line"/>
      <point x="426.5909090909091" y="664.3636363636364" type="line"/>
      <point x="405.95454545454544" y="404.6818181818182" type="line"/>
      <point x="165.1818181818182" y="318.8181818181818"/>
      <point x="48.63636363636364" y="187.5"/>
      <point x="48.63636363636364" y="-18.22727272727273" type="curve" smooth="yes"/>
      <point x="48.63636363636364" y="-261.3181818181818"/>
      <point x="216.04545454545456" y="-400.0"/>
      <point x="538.7272727272727" y="-400.0" type="curve" smooth="yes"/>
      <point x="653.5909090909091" y="-400.0"/>
      <point x="785.6818181818182" y="-379.40909090909093"/>
      <point x="872.7727272727273" y="-346.8181818181818" type="curve"/>
      <point x="872.7727272727273" y="-143.81818181818184" type="line"/>
      <point x="780.0454545454545" y="-178.77272727272728"/>
      <point x="672.3636363636364" y="-197.36363636363637"/>
      <point x="568.4090909090909" y="-197.36363636363637" type="curve" smooth="yes"/>
      <point x="381.59090909090907" y="-197.36363636363637"/>
      <point x="295.09090909090907" y="-127.90909090909092"/>
      <point x="295.09090909090907" y="4.227272727272727" type="curve" smooth="yes"/>
      <point x="295.09090909090907" y="131.63636363636363"/>
      <point x="370.1363636363636" y="215.22727272727272"/>
      <point x="626.2272727272727" y="282.90909090909093" type="curve"/>
    </contour>
    <contour>
      <point x="504.5909090909091" y="1106.3636363636363" type="curve" smooth="yes"/>
      <point x="403.59090909090907" y="1106.3636363636363"/>
      <point x="336.22727272727275" y="1042.4545454545455"/>
      <point x="336.22727272727275" y="949.4545454545455" type="curve" smooth="yes"/>
      <point x="336.22727272727275" y="855.5454545454545"/>
      <point x="402.3181818181818" y="791.6363636363636"/>
      <point x="504.5909090909091" y="791.6363636363636" type="curve" smooth="yes"/>
      <point x="606.8636363636364" y="791.6363636363636"/>
      <point x="672.9545454545455" y="853.3636363636364"/>
      <point x="672.9545454545455" y="949.4545454545455" type="curve" smooth="yes"/>
      <point x="672.9545454545455" y="1044.6363636363637"/>
      <point x="604.6818181818181" y="1106.3636363636363"/>
    </contour>
  </outline>
</glyph>
<glyph name="Aacute" format="2">
  <advance width="1320.909090909091"/>
  <unicode hex="00C1"/>
  <anchor x="660.6363636363636" y="1520.0" name="_top"/>
  <anchor x="660.9090909090909" y="0.0" name="bottom"/>
  <anchor x="1307.6818181818182" y="0.0" name="ogonek"/>
  <anchor x="660.6363636363636" y="1520.0" name="top"/>
  <outline>
    <contour>
      <point x="13.22727272727273" y="0.0" type="line"/>
      <point x="264.3636363636364" y="0.0" type="line"/>
      <point x="673.6363636363636" y="1363.909090909091" type="line"/>
      <point x="642.5454545454545" y="1363.909090909091" type="line"/>
      <point x="1053.4545454545455" y="0.0" type="line"/>
      <point x="1307.6818181818182" y="0.0" type="line"/>
      <point x="847.1818181818181" y="1480.0" type="line"/>
      <point x="473.72727272727275" y="1480.0" type="line"/>
    </contour>
    <contour>
      <point x="289.27272727272725" y="426.27272727272725" type="line"/>
      <point x="1030.2727272727273" y="426.27272727272725" type="line"/>
      <point x="977.0" y="639.0" type="line"/>
      <point x="342.8181818181818" y="639.0" type="line"/>
    </contour>
    <contour>
      <point x="547.4545454545455" y="1599.6363636363637" type="line"/>
      <point x="772.7272727272727" y="1599.6363636363637" type="line"/>
      <point x="974.9090909090909" y="1895.6363636363637" type="line"/>
      <point x="710.4090909090909" y="1895.6363636363637" type="line"/>
    </contour>
  </outline>
</glyph>
<glyph name="Atilde" format="2">
  <advance width="1320.909090909091"/>
  <unicode hex="00C3"/>
  <anchor x="660.6363636363636" y="1520.0" name="_top"/>
  <anchor x="660.9090909090909" y="0.0" name="bottom"/>
  <anchor x="1307.6818181818182" y="0.0" name="ogonek"/>
  <anchor x="660.6363636363636" y="1520.0" name="top"/>
  <outline>
    <contour>
      <point x="13.22727272727273" y="0.0" type="line"/>
      <point x="264.3636363636364" y="0.0" type="line"/>
      <point x="673.6363636363636" y="1363.909090909091" type="line"/>
      <point x="642.5454545454545" y="1363.909090909091" type="line"/>
      <point x="1053.4545454545455" y="0.0" type="line"/>
      <point x="1307.6818181818182" y="0.0" type="line"/>
      <point x="847.1818181818181" y="1480.0" type="line"/>
      <point x="473.72727272727275" y="1480.0" type="line"/>
    </contour>
    <contour>
      <point x="289.27272727272725" y="426.27272727272725" type="line"/>
      <point x="1030.2727272727273" y="426.27272727272725" type="line"/>
      <point x="977.0" y="639.0" type="line"/>
      <point x="342.8181818181818" y="639.0" type="line"/>
    </contour>
    <contour>
      <point x="819.0" y="1636.2272727272727" type="curve" smooth="yes"/>
      <point x="900.2272727272727" y="1636.2272727272727"/>
      <point x="956.6363636363636" y="1658.6818181818182"/>
      <point x="1002.5" y="1705.3636363636363" type="curve"/>
      <point x="1002.5" y="1862.9545454545455" type="line"/>
      <point x="948.3636363636364" y="1814.6818181818182"/>
      <point x="897.1818181818182" y="1790.6363636363637"/>
      <point x="822.2727272727273" y="1790.6363636363637" type="curve" smooth="yes"/>
      <point x="716.4545454545455" y="1790.6363636363637"/>
      <point x="628.7272727272727" y="1869.2727272727273"/>
      <point x="502.27272727272725" y="1869.2727272727273" type="curve" smooth="yes"/>
      <point x="421.04545454545456" y="1869.2727272727273"/>
      <point x="364.6363636363636" y="1845.7272727272727"/>
      <point x="318.77272727272725" y="1799.0454545454545" type="curve"/>
      <point x="318.77272727272725" y="1641.4545454545455" type="line"/>
      <point x="372.9090909090909" y="1689.7272727272727"/>
      <point x="424.09090909090907" y="1713.7727272727273"/>
      <point x="499.0" y="1713.7727272727273" type="curve" smooth="yes"/>
      <point x="604.8181818181819" y="1713.7727272727273"/>
      <point x="692.5454545454545" y="1636.2272727272727"/>
    </contour>
  </outline>
</glyph>
<glyph name="Adieresis" format="2">
  <advance width="1320.909090909091"/>
  <unicode hex="00C4"/>
  <anchor x="660.6363636363636" y="1520.0" name="_top"/>
  <anchor x="660.9090909090909" y="0.0" name="bottom"/>
  <anchor x="1307.6818181818182" y="0.0" name="ogonek"/>
  <anchor x="660.6363636363636" y="1520.0" name="top"/>
  <outline>
    <contour>
      <point x="13.22727272727273" y="0.0" type="line"/>
      <point x="264.3636363636364" y="0.0" type="line"/>
      <point x="673.6363636363636" y="1363.909090909091" type="line"/>
      <point x="642.5454545454545" y="1363.909090909091" type="line"/>
      <point x="1053.4545454545455" y="0.0" type="line"/>
      <point x="1307.6818181818182" y="0.0" type="line"/>
      <point x="847.1818181818181" y="1480.0" type="line"/>
      <point x="473.72727272727275" y="1480.0" type="line"/>
    </contour>
    <contour>
      <point x="289.27272727272725" y="426.27272727272725" type="line"/>
      <point x="1030.2727272727273" y="426.27272727272725" type="line"/>
      <point x="977.0" y="639.0" type="line"/>
      <point x="342.8181818181818" y="639.0" type="line"/>
    </contour>
    <contour>
      <point x="894.1818181818182" y="1624.5454545454545" type="curve" smooth="yes"/>
      <point x="986.3636363636364" y="1624.5454545454545"/>
      <point x="1038.5454545454545" y="1670.909090909091"/>
      <point x="1038.5454545454545" y="1750.909090909091" type="curve" smooth="yes"/>
      <point x="1038.5454545454545" y="1830.909090909091"/>
      <point x="986.3636363636364" y="1878.1818181818182"/>
      <point x="894.1818181818182" y="1878.1818181818182" type="curve" smooth="yes"/>
      <point x="802.0" y="1878.1818181818182"/>
      <point x="749.8181818181818" y="1830.909090909091"/>
      <point x="749.8181818181818" y="1750.909090909091" type="curve" smooth="yes"/>
      <point x="749.8181818181818" y="1670.909090909091"/>
      <point x="802.0" y="1624.5454545454545"/>
    </contour>
    <contour>
      <point x="427.0909090909091" y="1624.5454545454545" type="curve" smooth="yes"/>
      <point x="519.2727272727273" y="1624.5454545454545"/>
      <point x="571.4545454545455" y="1670.909090909091"/>
      <point x="571.4545454545455" y="1750.909090909091" type="curve" smooth="yes"/>
      <point x="571.4545454545455" y="1830.909090909091"/>
      <point x="519.2727272727273" y="1878.1818181818182"/>
      <point x="427.0909090909091" y="1878.1818181818182" type="curve" smooth="yes"/>
      <point x="334.90909090909093" y="1878.1818181818182"/>
      <point x="282.72727272727275" y="1830.909090909091"/>
      <point x="282.72727272727275" y="1750.909090909091" type="curve" smooth="yes"/>
      <point x="282.72727272727275" y="1670.909090909091"/>
      <point x="334.90909090909093" y="1624.5454545454545"/>
    </contour>
  </outline>
</glyph>
<glyph name="Aring" format="2">
  <advance width="1320.909090909091"/>
  <unicode hex="00C5"/>
  <anchor x="662.2272727272727" y="1438.1818181818182" name="_top"/>
  <anchor x="660.9090909090909" y="0.0" name="bottom"/>
  <anchor x="1307.6818181818182" y="0.0" name="ogonek"/>
  <anchor x="660.6363636363636" y="1520.0" name="top"/>
  <outline>
    <contour>
      <point x="13.22727272727273" y="0.0" type="line"/>
      <point x="264.3636363636364" y="0.0" type="line"/>
      <point x="673.6363636363636" y="1363.909090909091" type="line"/>
      <point x="642.5454545454545" y="1363.909090909091" type="line"/>
      <point x="1053.4545454545455" y="0.0" type="line"/>
      <point x="1307.6818181818182" y="0.0" type="line"/>
      <point x="847.1818181818181" y="1480.0" type="line"/>
      <point x="473.72727272727275" y="1480.0" type="line"/>
    </contour>
    <contour>
      <point x="289.27272727272725" y="426.27272727272725" type="line"/>
      <point x="1030.2727272727273" y="426.27272727272725" type="line"/>
      <point x="977.0" y="639.0" type="line"/>
      <point x="342.8181818181818" y="639.0" type="line"/>
    </contour>
    <contour>
      <point x="662.2272727272727" y="1506.590909090909" type="curve" smooth="yes"/>
      <point x="782.4090909090909" y="1506.590909090909"/>
      <point x="870.2272727272727" y="1592.2272727272727"/>
      <point x="870.2272727272727" y="1710.2272727272727" type="curve" smooth="yes"/>
      <point x="870.2272727272727" y="1828.2272727272727"/>
      <point x="782.4090909090909" y="1913.8636363636363"/>
      <point x="662.2272727272727" y="1913.8636363636363" type="curve" smooth="yes"/>
      <point x="542.0454545454545" y="1913.8636363636363"/>
      <point x="454.22727272727275" y="1828.2272727272727"/>
      <point x="454.22727272727275" y="1710.2272727272727" type="curve" smooth="yes"/>
      <point x="454.22727272727275" y="1592.2272727272727"/>
      <point x="542.0454545454545" y="1506.590909090909"/>
    </contour>
    <contour>
      <point x="662.2272727272727" y="1605.5" type="curve" smooth="yes"/>
      <point x="602.5909090909091" y="1605.5"/>
      <point x="560.5909090909091" y="1645.6818181818182"/>
      <point x="560.5909090909091" y="1710.2272727272727" type="curve" smooth="yes"/>
      <point x="560.5909090909091" y="1774.7727272727273"/>
      <point x="602.5909090909091" y="1814.9545454545455"/>
      <point x="662.2272727272727" y="1814.9545454545455" type="curve" smooth="yes"/>
      <point x="721.8636363636364" y="1814.9545454545455"/>
      <point x="763.8636363636364" y="1774.7727272727273"/>
      <point x="763.8636363636364" y="1710.2272727272727" type="curve" smooth="yes"/>
      <point x="763.8636363636364" y="1645.6818181818182"/>
      <point x="721.8636363636364" y="1605.5"/>
    </contour>
  </outline>
</glyph>
<glyph name="Iacute" format="2">
  <advance width="524.5454545454545"/>
  <unicode hex="00CD"/>
  <anchor x="262.27272727272725" y="1520.0" name="_top"/>
  <anchor x="262.0" y="0.0" name="bottom"/>
  <anchor x="390.3636363636364" y="0.0" name="ogonek"/>
  <anchor x="262.27272727272725" y="1520.0" name="top"/>
  <outline>
    <contour>
      <point x="134.1818181818182" y="0.0" type="line"/>
      <point x="390.3636363636364" y="0.0" type="line"/>
      <point x="390.3636363636364" y="1480.0" type="line"/>
      <point x="134.1818181818182" y="1480.0" type="line"/>
    </contour>
    <contour>
      <point x="149.0909090909091" y="1599.6363636363637" type="line"/>
      <point x="374.3636363636364" y="1599.6363636363637" type="line"/>
      <point x="576.5454545454545" y="1895.6363636363637" type="line"/>
      <point x="312.04545454545456" y="1895.6363636363637" type="line"/>
    </contour>
  </outline>
</glyph>
<glyph name="Icircumflex" format="2">
  <advance width="524.5454545454545"/>
  <unicode hex="00CE"/>
  <anchor x="262.27272727272725" y="1520.0" name="_top"/>
  <anchor x="262.0" y="0.0" name="bottom"/>
  <anchor x="390.3636363636364" y="0.0" name="ogonek"/>
  <anchor x="262.27272727272725" y="1520.0" name="top"/>
  <outline>
    <contour>
      <point x="134.1818181818182" y="0.0" type="line"/>
      <point x="390.3636363636364" y="0.0" type="line"/>
      <point x="390.3636363636364" y="1480.0" type="line"/>
      <point x="134.1818181818182" y="1480.0" type="line"/>
    </contour>
    <contour>
      <point x="-70.36363636363636" y="1599.6363636363637" type="line"/>
      <point x="118.31818181818181" y="1599.6363636363637" type="line"/>
      <point x="281.22727272727275" y="1825.2272727272727" type="line"/>
      <point x="243.3181818181818" y="1825.2272727272727" type="line"/>
      <point x="406.22727272727275" y="1599.6363636363637" type="line"/>
      <point x="594.9090909090909" y="1599.6363636363637" type="line"/>
      <point x="372.0" y="1895.6363636363637" type="line"/>
      <point x="152.54545454545453" y="1895.6363636363637" type="line"/>
    </contour>
  </outline>
</glyph>
<glyph name="Idieresis" format="2">
  <advance width="524.5454545454545"/>
  <unicode hex="00CF"/>
  <anchor x="262.27272727272725" y="1520.0" name="_top"/>
  <anchor x="262.0" y="0.0" name="bottom"/>
  <anchor x="390.3636363636364" y="0.0" name="ogonek"/>
  <anchor x="262.27272727272725" y="1520.0" name="top"/>
  <outline>
    <contour>
      <point x="134.1818181818182" y="0.0" type="line"/>
      <point x="390.3636363636364" y="0.0" type="line"/>
      <point x="390.3636363636364" y="1480.0" type="line"/>
      <point x="134.1818181818182" y="1480.0" type="line"/>
    </contour>
    <contour>
      <point x="495.8181818181818" y="1624.5454545454545" type="curve" smooth="yes"/>
      <point x="588.0" y="1624.5454545454545"/>
      <point x="640.1818181818182" y="1670.909090909091"/>
      <point x="640.1818181818182" y="1750.909090909091" type="curve" smooth="yes"/>
      <point x="640.1818181818182" y="1830.909090909091"/>
      <point x="588.0" y="1878.1818181818182"/>
      <point x="495.8181818181818" y="1878.1818181818182" type="curve" smooth="yes"/>
      <point x="403.6363636363636" y="1878.1818181818182"/>
      <point x="351.45454545454544" y="1830.909090909091"/>
      <point x="351.45454545454544" y="1750.909090909091" type="curve" smooth="yes"/>
      <point x="351.45454545454544" y="1670.909090909091"/>
      <point x="403.6363636363636" y="1624.5454545454545"/>
    </contour>
    <contour>
      <point x="28.727272727272727" y="1624.5454545454545" type="curve" smooth="yes"/>
      <point x="120.9090909090909" y="1624.5454545454545"/>
      <point x="173.0909090909091" y="1670.909090909091"/>
      <point x="173.0909090909091" y="1750.909090909091" type="curve" smooth="yes"/>
      <point x="173.0909090909091" y="1830.909090909091"/>
      <point x="120.9090909090909" y="1878.1818181818182"/>
      <point x="28.727272727272727" y="1878.1818181818182" type="curve" smooth="yes"/>
      <point x="-63.45454545454545" y="1878.1818181818182"/>
      <point x="-115.63636363636364" y="1830.909090909091"/>
      <point x="-115.63636363636364" y="1750.909090909091" type="curve" smooth="yes"/>
      <point x="-115.63636363636364" y="1670.909090909091"/>
      <point x="-63.45454545454545" y="1624.5454545454545"/>
    </contour>
  </outline>
</glyph>
<glyph name="Ntilde" format="2">
  <advance width="1418.5"/>
  <unicode hex="00D1"/>
  <anchor x="709.3636363636364" y="1520.0" name="_top"/>
  <anchor x="709.3636363636364" y="0.0" name="bottom"/>
  <anchor x="709.3636363636364" y="1520.0" name="top"/>
  <outline>
    <contour>
      <point x="134.1818181818182" y="0.0" type="line"/>
      <point x="375.0" y="0.0" type="line"/>
      <point x="375.0" y="1153.2727272727273" type="line"/>
      <point x="326.8636363636364" y="1153.2727272727273" type="line"/>
      <point x="1025.5454545454545" y="0.0" type="line"/>
      <point x="1284.3181818181818" y="0.0" type="line"/>
      <point x="1284.3181818181818" y="1480.0" type="line"/>
      <point x="1043.5" y="1480.0" type="line"/>
      <point x="1043.5" y="326.7272727272727" type="line"/>
      <point x="1091.6363636363637" y="326.7272727272727" type="line"/>
      <point x="392.95454545454544" y="1480.0" type="line"/>
      <point x="134.1818181818182" y="1480.0" type="line"/>
    </contour>
    <contour>
      <point x="867.7272727272727" y="1636.2272727272727" type="curve" smooth="yes"/>
      <point x="948.9545454545455" y="1636.2272727272727"/>
      <point x="1005.3636363636364" y="1658.6818181818182"/>
      <point x="1051.2272727272727" y="1705.3636363636363" type="curve"/>
      <point x="1051.2272727272727" y="1862.9545454545455" type="line"/>
      <point x="997.090909090909" y="1814.6818181818182"/>
      <point x="945.9090909090909" y="1790.6363636363637"/>
      <point x="871.0" y="1790.6363636363637" type="curve" smooth="yes"/>
      <point x="765.1818181818181" y="1790.6363636363637"/>
      <point x="677.4545454545455" y="1869.2727272727273"/>
      <point x="551.0" y="1869.2727272727273" type="curve" smooth="yes"/>
      <point x="469.77272727272725" y="1869.2727272727273"/>
      <point x="413.3636363636364" y="1845.7272727272727"/>
      <point x="367.5" y="1799.0454545454545" type="curve"/>
      <point x="367.5" y="1641.4545454545455" type="line"/>
      <point x="421.6363636363636" y="1689.7272727272727"/>
      <point x="472.8181818181818" y="1713.7727272727273"/>
      <point x="547.7272727272727" y="1713.7727272727273" type="curve" smooth="yes"/>
      <point x="653.5454545454545" y="1713.7727272727273"/>
      <point x="741.2727272727273" y="1636.2272727272727"/>
    </contour>
  </outline>
</glyph>
<glyph name="Otilde" format="2">
  <advance width="1404.5454545454545"/>
  <unicode hex="00D5"/>
  <anchor x="702.2727272727273" y="1520.0" name="_top"/>
  <anchor x="702.2727272727273" y="0.0" name="bottom"/>
  <anchor x="702.2727272727273" y="740.0" name="center"/>
  <anchor x="870.5454545454545" y="0.0" name="ogonek"/>
  <anchor x="702.2727272727273" y="1520.0" name="top"/>
  <anchor x="44.0" y="1480.0" name="topleft"/>
  <anchor x="876.8636363636364" y="1480.0" name="topright"/>
  <outline>
    <contour>
      <point x="702.2727272727273" y="-19.09090909090909" type="curve" smooth="yes"/>
      <point x="1074.1818181818182" y="-19.09090909090909"/>
      <point x="1321.909090909091" y="206.5"/>
      <point x="1321.909090909091" y="740.0" type="curve" smooth="yes"/>
      <point x="1321.909090909091" y="1273.5"/>
      <point x="1075.1363636363635" y="1499.090909090909"/>
      <point x="702.2727272727273" y="1499.090909090909" type="curve" smooth="yes"/>
      <point x="330.0909090909091" y="1499.090909090909"/>
      <point x="82.63636363636364" y="1274.0454545454545"/>
      <point x="82.63636363636364" y="740.0" type="curve" smooth="yes"/>
      <point x="82.63636363636364" y="205.95454545454544"/>
      <point x="329.6818181818182" y="-19.09090909090909"/>
    </contour>
    <contour>
      <point x="702.2727272727273" y="193.86363636363635" type="curve" smooth="yes"/>
      <point x="482.5454545454545" y="193.86363636363635"/>
      <point x="346.6363636363636" y="332.5454545454545"/>
      <point x="346.6363636363636" y="746.1818181818181" type="curve" smooth="yes"/>
      <point x="346.6363636363636" y="1147.4545454545455"/>
      <point x="483.3636363636364" y="1286.1363636363637"/>
      <point x="702.2727272727273" y="1286.1363636363637" type="curve" smooth="yes"/>
      <point x="921.1818181818182" y="1286.1363636363637"/>
      <point x="1057.909090909091" y="1146.6363636363637"/>
      <point x="1057.909090909091" y="733.8181818181819" type="curve" smooth="yes"/>
      <point x="1057.909090909091" y="333.3636363636364"/>
      <point x="922.0" y="193.86363636363635"/>
    </contour>
    <contour>
      <point x="860.6363636363636" y="1636.2272727272727" type="curve" smooth="yes"/>
      <point x="941.8636363636364" y="1636.2272727272727"/>
      <point x="998.2727272727273" y="1658.6818181818182"/>
      <point x="1044.1363636363635" y="1705.3636363636363" type="curve"/>
      <point x="1044.1363636363635" y="1862.9545454545455" type="line"/>
      <point x="990.0" y="1814.6818181818182"/>
      <point x="938.8181818181818" y="1790.6363636363637"/>
      <point x="863.9090909090909" y="1790.6363636363637" type="curve" smooth="yes"/>
      <point x="758.0909090909091" y="1790.6363636363637"/>
      <point x="670.3636363636364" y="1869.2727272727273"/>
      <point x="543.9090909090909" y="1869.2727272727273" type="curve" smooth="yes"/>
      <point x="462.6818181818182" y="1869.2727272727273"/>
      <point x="406.27272727272725" y="1845.7272727272727"/>
      <point x="360.40909090909093" y="1799.0454545454545" type="curve"/>
      <point x="360.40909090909093" y="1641.4545454545455" type="line"/>
      <point x="414.54545454545456" y="1689.7272727272727"/>
      <point x="465.72727272727275" y="1713.7727272727273"/>
      <point x="540.6363636363636" y="1713.7727272727273" type="curve" smooth="yes"/>
      <point x="646.4545454545455" y="1713.7727272727273"/>
      <point x="734.1818181818182" y="1636.2272727272727"/>
    </contour>
  </outline>
</glyph>
<glyph name="multiply" format="2">
  <advance width="1003.4545454545455"/>
  <unicode hex="00D7"/>
  <outline>
    <contour>
      <point x="231.9090909090909" y="350.72727272727275" type="line"/>
      <point x="501.72727272727275" y="620.5454545454545" type="line"/>
      <point x="771.5454545454545" y="350.72727272727275" type="line"/>
      <point x="911.0" y="490.1818181818182" type="line"/>
      <point x="641.1818181818181" y="760.0" type="line"/>
      <point x="911.0" y="1029.8181818181818" type="line"/>
      <point x="771.5454545454545" y="1169.2727272727273" type="line"/>
      <point x="501.72727272727275" y="899.4545454545455" type="line"/>
      <point x="231.9090909090909" y="1169.2727272727273" type="line"/>
      <point x="92.45454545454545" y="1029.8181818181818" type="line"/>
      <point x="362.27272727272725" y="760.0" type="line"/>
      <point x="92.45454545454545" y="490.1818181818182" type="line"/>
    </contour>
  </outline>
</glyph>
<glyph name="Ucircumflex" format="2">
  <advance width="1370.909090909091"/>
  <unicode hex="00DB"/>
  <anchor x="688.5" y="1520.0" name="_top"/>
  <anchor x="688.5" y="0.0" name="bottom"/>
  <anchor x="884.2727272727273" y="0.4545454545454546" name="ogonek"/>
  <anchor x="688.5" y="1520.0" name="top"/>
  <anchor x="1020.5454545454545" y="1480.0" name="topright"/>
  <outline>
    <contour>
      <point x="688.5" y="-19.09090909090909" type="curve" smooth="yes"/>
      <point x="1070.3636363636365" y="-19.09090909090909"/>
      <point x="1243.6363636363635" y="165.45454545454544"/>
      <point x="1243.6363636363635" y="573.7727272727273" type="curve" smooth="yes"/>
      <point x="1243.6363636363635" y="1480.0" type="line"/>
      <point x="992.7272727272727" y="1480.0" type="line"/>
      <point x="992.7272727272727" y="546.0454545454545" type="line" smooth="yes"/>
      <point x="992.7272727272727" y="300.0"/>
      <point x="895.5454545454545" y="196.36363636363635"/>
      <point x="688.5" y="196.36363636363635" type="curve" smooth="yes"/>
      <point x="481.4545454545455" y="196.36363636363635"/>
      <point x="383.45454545454544" y="300.0"/>
      <point x="383.45454545454544" y="546.0454545454545" type="curve" smooth="yes"/>
      <point x="383.45454545454544" y="1480.0" type="line"/>
      <point x="127.27272727272728" y="1480.0" type="line"/>
      <point x="127.27272727272728" y="573.7727272727273" type="line" smooth="yes"/>
      <point x="127.27272727272728" y="165.45454545454544"/>
      <point x="303.6363636363636" y="-19.09090909090909"/>
    </contour>
    <contour>
      <point x="355.8636363636364" y="1599.6363636363637" type="line"/>
      <point x="544.5454545454545" y="1599.6363636363637" type="line"/>
      <point x="707.4545454545455" y="1825.2272727272727" type="line"/>
      <point x="669.5454545454545" y="1825.2272727272727" type="line"/>
      <point x="832.4545454545455" y="1599.6363636363637" type="line"/>
      <point x="1021.1363636363636" y="1599.6363636363637" type="line"/>
      <point x="798.2272727272727" y="1895.6363636363637" type="line"/>
      <point x="578.7727272727273" y="1895.6363636363637" type="line"/>
    </contour>
  </outline>
</glyph>
<glyph name="Udieresis" format="2">
  <advance width="1370.909090909091"/>
  <unicode hex="00DC"/>
  <anchor x="688.5" y="1520.0" name="_top"/>
  <anchor x="688.5" y="0.0" name="bottom"/>
  <anchor x="884.2727272727273" y="0.4545454545454546" name="ogonek"/>
  <anchor x="688.5" y="1520.0" name="top"/>
  <anchor x="1020.5454545454545" y="1480.0" name="topright"/>
  <outline>
    <contour>
      <point x="688.5" y="-19.09090909090909" type="curve" smooth="yes"/>
      <point x="1070.3636363636365" y="-19.09090909090909"/>
      <point x="1243.6363636363635" y="165.45454545454544"/>
      <point x="1243.6363636363635" y="573.7727272727273" type="curve" smooth="yes"/>
      <point x="1243.6363636363635" y="1480.0" type="line"/>
      <point x="992.7272727272727" y="1480.0" type="line"/>
      <point x="992.7272727272727" y="546.0454545454545" type="line" smooth="yes"/>
      <point x="992.7272727272727" y="300.0"/>
      <point x="895.5454545454545" y="196.36363636363635"/>
      <point x="688.5" y="196.36363636363635" type="curve" smooth="yes"/>
      <point x="481.4545454545455" y="196.36363636363635"/>
      <point x="383.45454545454544" y="300.0"/>
      <point x="383.45454545454544" y="546.0454545454545" type="curve" smooth="yes"/>
      <point x="383.45454545454544" y="1480.0" type="line"/>
      <point x="127.27272727272728" y="1480.0" type="line"/>
      <point x="127.27272727272728" y="573.7727272727273" type="line" smooth="yes"/>
      <point x="127.27272727272728" y="165.45454545454544"/>
      <point x="303.6363636363636" y="-19.09090909090909"/>
    </contour>
    <contour>
      <point x="922.0454545454545" y="1624.5454545454545" type="curve" smooth="yes"/>
      <point x="1014.2272727272727" y="1624.5454545454545"/>
      <point x="1066.409090909091" y="1670.909090909091"/>
      <point x="1066.409090909091" y="1750.909090909091" type="curve" smooth="yes"/>
      <point x="1066.409090909091" y="1830.909090909091"/>
      <point x="1014.2272727272727" y="1878.1818181818182"/>
      <point x="922.0454545454545" y="1878.1818181818182" type="curve" smooth="yes"/>
      <point x="829.8636363636364" y="1878.1818181818182"/>
      <point x="777.6818181818181" y="1830.909090909091"/>
      <point x="777.6818181818181" y="1750.909090909091" type="curve" smooth="yes"/>
      <point x="777.6818181818181" y="1670.909090909091"/>
      <point x="829.8636363636364" y="1624.5454545454545"/>
    </contour>
    <contour>
      <point x="454.95454545454544" y="1624.5454545454545" type="curve" smooth="yes"/>
      <point x="547.1363636363636" y="1624.5454545454545"/>
      <point x="599.3181818181818" y="1670.909090909091"/>
      <point x="599.3181818181818" y="1750.909090909091" type="curve" smooth="yes"/>
      <point x="599.3181818181818" y="1830.909090909091"/>
      <point x="547.1363636363636" y="1878.1818181818182"/>
      <point x="454.95454545454544" y="1878.1818181818182" type="curve" smooth="yes"/>
      <point x="362.77272727272725" y="1878.1818181818182"/>
      <point x="310.5909090909091" y="1830.909090909091"/>
      <point x="310.5909090909091" y="1750.909090909091" type="curve" smooth="yes"/>
      <point x="310.5909090909091" y="1670.909090909091"/>
      <point x="362.77272727272725" y="1624.5454545454545"/>
    </contour>
  </outline>
</glyph>
<glyph name="Yacute" format="2">
  <advance width="1169.5454545454545"/>
  <unicode hex="00DD"/>
  <anchor x="585.7272727272727" y="1520.0" name="_top"/>
  <anchor x="584.9090909090909" y="0.0" name="bottom"/>
  <anchor x="585.7272727272727" y="1520.0" name="top"/>
  <anchor x="-11.27272727272727" y="1480.0" name="topleft"/>
  <outline>
    <contour>
      <point x="457.6363636363636" y="0.0" type="line"/>
      <point x="713.8181818181818" y="0.0" type="line"/>
      <point x="713.8181818181818" y="742.4090909090909" type="line"/>
      <point x="660.8181818181818" y="548.0909090909091" type="line"/>
      <point x="1207.6818181818182" y="1480.0" type="line"/>
      <point x="954.5909090909091" y="1480.0" type="line"/>
      <point x="555.4545454545455" y="803.0" type="line"/>
      <point x="628.4545454545455" y="803.0" type="line"/>
      <point x="225.8181818181818" y="1480.0" type="line"/>
      <point x="-46.95454545454545" y="1480.0" type="line"/>
      <point x="510.6363636363636" y="548.0909090909091" type="line"/>
      <point x="457.6363636363636" y="745.6818181818181" type="line"/>
    </contour>
    <contour>
      <point x="472.54545454545456" y="1599.6363636363637" type="line"/>
      <point x="697.8181818181818" y="1599.6363636363637" type="line"/>
      <point x="900.0" y="1895.6363636363637" type="line"/>
      <point x="635.5" y="1895.6363636363637" type="line"/>
    </contour>
  </outline>
</glyph>
<glyph name="Thorn" format="2">
  <advance width="1225.2727272727273"/>
  <unicode hex="00DE"/>
  <outline>
    <contour>
      <point x="134.1818181818182" y="0.0" type="line"/>
      <point x="390.3636363636364" y="0.0" type="line"/>
      <point x="390.3636363636364" y="241.95454545454544" type="line"/>
      <point x="440.5909090909091" y="238.77272727272728"/>
      <point x="484.6818181818182" y="236.54545454545456"/>
      <point x="538.8181818181818" y="236.54545454545456" type="curve" smooth="yes"/>
      <point x="940.8181818181818" y="236.54545454545456"/>
      <point x="1142.409090909091" y="415.5"/>
      <point x="1142.409090909091" y="759.7727272727273" type="curve" smooth="yes"/>
      <point x="1142.409090909091" y="1122.2272727272727"/>
      <point x="937.0" y="1284.2727272727273"/>
      <point x="534.7272727272727" y="1284.2727272727273" type="curve" smooth="yes"/>
      <point x="480.8181818181818" y="1284.2727272727273"/>
      <point x="427.9090909090909" y="1279.090909090909"/>
      <point x="390.3636363636364" y="1274.5454545454545" type="curve"/>
      <point x="390.3636363636364" y="1480.2272727272727" type="line"/>
      <point x="134.1818181818182" y="1480.2272727272727" type="line"/>
    </contour>
    <contour>
      <point x="540.8636363636364" y="439.45454545454544" type="curve" smooth="yes"/>
      <point x="485.0" y="439.45454545454544"/>
      <point x="439.1363636363636" y="441.9090909090909"/>
      <point x="390.3636363636364" y="448.1818181818182" type="curve"/>
      <point x="390.3636363636364" y="1068.3636363636363" type="line"/>
      <point x="440.95454545454544" y="1077.090909090909"/>
      <point x="490.72727272727275" y="1081.3636363636365"/>
      <point x="553.5454545454545" y="1081.3636363636365" type="curve" smooth="yes"/>
      <point x="783.1818181818182" y="1081.3636363636365"/>
      <point x="891.7727272727273" y="984.4545454545455"/>
      <point x="891.7727272727273" y="756.5454545454545" type="curve" smooth="yes"/>
      <point x="891.7727272727273" y="535.0"/>
      <point x="781.8181818181819" y="439.45454545454544"/>
    </contour>
  </outline>
</glyph>
<glyph name="germandbls" format="2">
  <advance width="1399.4545454545455"/>
  <unicode hex="00DF"/>
  <outline>
    <contour>
      <point x="906.2727272727273" y="-20.18181818181818" type="curve" smooth="yes"/>
      <point x="1191.6363636363635" y="-20.18181818181818"/>
      <point x="1352.0" y="108.18181818181819"/>
      <point x="1352.0" y="318.54545454545456" type="curve" smooth="yes"/>
      <point x="1352.0" y="493.1818181818182"/>
      <point x="1267.5454545454545" y="583.8636363636364"/>
      <point x="1082.1363636363635" y="626.1818181818181" type="curve" smooth="yes"/>
      <point x="934.2727272727273" y="658.0909090909091" type="line" smooth="yes"/>
      <point x="853.9090909090909" y="677.4090909090909"/>
      <point x="820.9545454545455" y="713.7727272727273"/>
      <point x="820.9545454545455" y="777.1818181818181" type="curve" smooth="yes"/>
      <point x="820.9545454545455" y="850.6818181818182"/>
      <point x="876.5909090909091" y="913.0"/>
      <point x="1059.6818181818182" y="913.0" type="curve" smooth="yes"/>
      <point x="1115.3181818181818" y="913.0"/>
      <point x="1159.090909090909" y="908.9545454545455"/>
      <point x="1200.7272727272727" y="901.8636363636364" type="curve"/>
      <point x="1218.3636363636365" y="969.5909090909091"/>
      <point x="1233.5454545454545" y="1057.2727272727273"/>
      <point x="1233.5454545454545" y="1143.7727272727273" type="curve" smooth="yes"/>
      <point x="1233.5454545454545" y="1494.590909090909"/>
      <point x="1028.2727272727273" y="1636.0"/>
      <point x="746.7272727272727" y="1636.0" type="curve" smooth="yes"/>
      <point x="399.6818181818182" y="1636.0"/>
      <point x="192.5909090909091" y="1438.409090909091"/>
      <point x="192.5909090909091" y="1080.1818181818182" type="curve" smooth="yes"/>
      <point x="192.5909090909091" y="0.0" type="line"/>
      <point x="444.6818181818182" y="0.0" type="line"/>
      <point x="444.6818181818182" y="1078.8181818181818" type="line" smooth="yes"/>
      <point x="444.6818181818182" y="1342.590909090909"/>
      <point x="554.1818181818181" y="1452.7272727272727"/>
      <point x="763.5454545454545" y="1452.7272727272727" type="curve" smooth="yes"/>
      <point x="928.1363636363636" y="1452.7272727272727"/>
      <point x="1049.0" y="1375.5"/>
      <point x="1048.7727272727273" y="1153.5454545454545" type="curve" smooth="yes"/>
      <point x="1048.7727272727273" y="1092.8636363636365"/>
      <point x="1040.3181818181818" y="1035.0"/>
      <point x="1026.9545454545455" y="979.4090909090909" type="curve"/>
      <point x="1171.0" y="1092.7272727272727" type="line"/>
      <point x="1131.8181818181818" y="1098.3181818181818"/>
      <point x="1067.090909090909" y="1100.5454545454545"/>
      <point x="1031.590909090909" y="1100.5454545454545" type="curve" smooth="yes"/>
      <point x="736.6363636363636" y="1100.5454545454545"/>
      <point x="587.0909090909091" y="971.4090909090909"/>
      <point x="587.0909090909091" y="773.2272727272727" type="curve" smooth="yes"/>
      <point x="587.0909090909091" y="606.7727272727273"/>
      <point x="669.7727272727273" y="507.3636363636364"/>
      <point x="854.8636363636364" y="466.6363636363636" type="curve" smooth="yes"/>
      <point x="1002.7272727272727" y="434.72727272727275" type="line" smooth="yes"/>
      <point x="1083.090909090909" y="415.40909090909093"/>
      <point x="1118.1363636363635" y="382.3181818181818"/>
      <point x="1118.1363636363635" y="310.27272727272725" type="curve" smooth="yes"/>
      <point x="1118.1363636363635" y="225.0"/>
      <point x="1057.7272727272727" y="174.8181818181818"/>
      <point x="902.8636363636364" y="174.8181818181818" type="curve" smooth="yes"/>
      <point x="808.9090909090909" y="174.8181818181818"/>
      <point x="708.1818181818181" y="188.36363636363635"/>
      <point x="614.4545454545455" y="215.09090909090907" type="curve"/>
      <point x="614.4545454545455" y="18.90909090909091" type="line"/>
      <point x="706.3636363636364" y="-7.636363636363637"/>
      <point x="808.8636363636364" y="-20.18181818181818"/>
    </contour>
    <contour>
      <point x="15.318181818181818" y="887.4545454545455" type="line"/>
      <point x="297.54545454545456" y="887.4545454545455" type="line"/>
      <point x="297.54545454545456" y="1090.909090909091" type="line"/>
      <point x="15.318181818181818" y="1090.909090909091" type="line"/>
    </contour>
  </outline>
</glyph>
<glyph name="agrave" format="2">
  <advance width="1011.7727272727273"/>
  <unicode hex="00E0"/>
  <anchor x="502.1363636363636" y="1200.0" name="_top"/>
  <anchor x="506.22727272727275" y="0.0" name="bottom"/>
  <anchor x="900.8636363636364" y="0.0" name="ogonek"/>
  <anchor x="502.1363636363636" y="1200.0" name="top"/>
  <outline>
    <contour>
      <point x="386.3636363636364" y="-19.272727272727273" type="curve" smooth="yes"/>
      <point x="500.90909090909093" y="-19.272727272727273"/>
      <point x="601.1363636363636" y="22.545454545454547"/>
      <point x="662.4090909090909" y="114.9090909090909" type="curve"/>
      <point x="675.3181818181819" y="114.9090909090909" type="line"/>
      <point x="693.5909090909091" y="0.0" type="line"/>
      <point x="900.8636363636364" y="0.0" type="line"/>
      <point x="900.8636363636364" y="683.4545454545455" type="line" smooth="yes"/>
      <point x="900.8636363636364" y="1001.6363636363636"/>
      <point x="759.590909090909" y="1108.0"/>
      <point x="458.6818181818182" y="1108.0" type="curve" smooth="yes"/>
      <point x="357.8181818181818" y="1108.0"/>
      <point x="234.22727272727272" y="1092.590909090909"/>
      <point x="139.54545454545453" y="1064.2272727272727" type="curve"/>
      <point x="139.54545454545453" y="865.0454545454545" type="line"/>
      <point x="232.72727272727272" y="894.6363636363636"/>
      <point x="335.59090909090907" y="908.0909090909091"/>
      <point x="414.8636363636364" y="908.0909090909091" type="curve" smooth="yes"/>
      <point x="584.3181818181819" y="908.0909090909091"/>
      <point x="655.0454545454545" y="858.8181818181819"/>
      <point x="655.0454545454545" y="696.7272727272727" type="curve" smooth="yes"/>
      <point x="655.0454545454545" y="257.54545454545456" type="line"/>
      <point x="600.8181818181819" y="189.45454545454544"/>
      <point x="530.5454545454545" y="166.1818181818182"/>
      <point x="467.22727272727275" y="166.1818181818182" type="curve" smooth="yes"/>
      <point x="367.95454545454544" y="166.1818181818182"/>
      <point x="312.45454545454544" y="216.22727272727272"/>
      <point x="312.45454545454544" y="315.22727272727275" type="curve" smooth="yes"/>
      <point x="312.45454545454544" y="411.1818181818182"/>
      <point x="369.27272727272725" y="465.8636363636364"/>
      <point x="498.4090909090909" y="477.6363636363636" type="curve" smooth="yes"/>
      <point x="728.2272727272727" y="498.6818181818182" type="line"/>
      <point x="698.0" y="647.8636363636364" type="line"/>
      <point x="473.4090909090909" y="626.8181818181818" type="line" smooth="yes"/>
      <point x="185.04545454545456" y="604.1363636363636"/>
      <point x="63.36363636363637" y="489.95454545454544"/>
      <point x="63.36363636363637" y="288.8636363636364" type="curve" smooth="yes"/>
      <point x="63.36363636363637" y="99.27272727272727"/>
      <point x="188.95454545454547" y="-19.272727272727273"/>
    </contour>
    <contour>
      <point x="389.77272727272725" y="1240.0" type="line"/>
      <point x="614.5" y="1240.0" type="line"/>
      <point x="413.3181818181818" y="1616.0" type="line"/>
      <point x="151.22727272727272" y="1616.0" type="line"/>
    </contour>
  </outline>
</glyph>
<glyph name="atilde" format="2">
  <advance width="1011.7727272727273"/>
  <unicode hex="00E3"/>
  <anchor x="502.1363636363636" y="1200.0" name="_top"/>
  <anchor x="506.22727272727275" y="0.0" name="bottom"/>
  <anchor x="900.8636363636364" y="0.0" name="ogonek"/>
  <anchor x="502.1363636363636" y="1200.0" name="top"/>
  <outline>
    <contour>
      <point x="386.3636363636364" y="-19.272727272727273" type="curve" smooth="yes"/>
      <point x="500.90909090909093" y="-19.272727272727273"/>
      <point x="601.1363636363636" y="22.545454545454547"/>
      <point x="662.4090909090909" y="114.9090909090909" type="curve"/>
      <point x="675.3181818181819" y="114.9090909090909" type="line"/>
      <point x="693.5909090909091" y="0.0" type="line"/>
      <point x="900.8636363636364" y="0.0" type="line"/>
      <point x="900.8636363636364" y="683.4545454545455" type="line" smooth="yes"/>
      <point x="900.8636363636364" y="1001.6363636363636"/>
      <point x="759.590909090909" y="1108.0"/>
      <point x="458.6818181818182" y="1108.0" type="curve" smooth="yes"/>
      <point x="357.8181818181818" y="1108.0"/>
      <point x="234.22727272727272" y="1092.590909090909"/>
      <point x="139.54545454545453" y="1064.2272727272727" type="curve"/>
      <point x="139.54545454545453" y="865.0454545454545" type="line"/>
      <point x="232.72727272727272" y="894.6363636363636"/>
      <point x="335.59090909090907" y="908.0909090909091"/>
      <point x="414.8636363636364" y="908.0909090909091" type="curve" smooth="yes"/>
      <point x="584.3181818181819" y="908.0909090909091"/>
      <point x="655.0454545454545" y="858.8181818181819"/>
      <point x="655.0454545454545" y="696.7272727272727" type="curve" smooth="yes"/>
      <point x="655.0454545454545" y="257.54545454545456" type="line"/>
      <point x="600.8181818181819" y="189.45454545454544"/>
      <point x="530.5454545454545" y="166.1818181818182"/>
      <point x="467.22727272727275" y="166.1818181818182" type="curve" smooth="yes"/>
      <point x="367.95454545454544" y="166.1818181818182"/>
      <point x="312.45454545454544" y="216.22727272727272"/>
      <point x="312.45454545454544" y="315.22727272727275" type="curve" smooth="yes"/>
      <point x="312.45454545454544" y="411.1818181818182"/>
      <point x="369.27272727272725" y="465.8636363636364"/>
      <point x="498.4090909090909" y="477.6363636363636" type="curve" smooth="yes"/>
      <point x="728.2272727272727" y="498.6818181818182" type="line"/>
      <point x="698.0" y="647.8636363636364" type="line"/>
      <point x="473.4090909090909" y="626.8181818181818" type="line" smooth="yes"/>
      <point x="185.04545454545456" y="604.1363636363636"/>
      <point x="63.36363636363637" y="489.95454545454544"/>
      <point x="63.36363636363637" y="288.8636363636364" type="curve" smooth="yes"/>
      <point x="63.36363636363637" y="99.27272727272727"/>
      <point x="188.95454545454547" y="-19.272727272727273"/>
    </contour>
    <contour>
      <point x="648.3181818181818" y="1307.7272727272727" type="curve" smooth="yes"/>
      <point x="723.3636363636364" y="1307.7272727272727"/>
      <point x="779.7727272727273" y="1331.5454545454545"/>
      <point x="825.6363636363636" y="1380.9545454545455" type="curve"/>
      <point x="825.6363636363636" y="1549.1818181818182" type="line"/>
      <point x="771.5" y="1493.0"/>
      <point x="720.3181818181818" y="1467.3181818181818"/>
      <point x="651.5909090909091" y="1467.3181818181818" type="curve" smooth="yes"/>
      <point x="557.9545454545455" y="1467.3181818181818"/>
      <point x="470.22727272727275" y="1555.5"/>
      <point x="355.95454545454544" y="1555.5" type="curve" smooth="yes"/>
      <point x="280.9090909090909" y="1555.5"/>
      <point x="224.5" y="1531.6818181818182"/>
      <point x="178.63636363636363" y="1482.2727272727273" type="curve"/>
      <point x="178.63636363636363" y="1314.0454545454545" type="line"/>
      <point x="232.77272727272728" y="1370.2272727272727"/>
      <point x="283.95454545454544" y="1395.909090909091"/>
      <point x="352.6818181818182" y="1395.909090909091" type="curve" smooth="yes"/>
      <point x="446.3181818181818" y="1395.909090909091"/>
      <point x="534.0454545454545" y="1307.7272727272727"/>
    </contour>
  </outline>
</glyph>
<glyph name="ae" format="2">
  <advance width="1574.2272727272727"/>
  <unicode hex="00E6"/>
  <anchor x="781.7727272727273" y="0.0" name="bottom"/>
  <anchor x="781.7727272727273" y="1200.0" name="top"/>
  <outline>
    <contour>
      <point x="1176.590909090909" y="-20.18181818181818" type="curve" smooth="yes"/>
      <point x="1267.3636363636363" y="-20.18181818181818"/>
      <point x="1356.7272727272727" y="-9.0"/>
      <point x="1461.6363636363635" y="18.40909090909091" type="curve"/>
      <point x="1461.6363636363635" y="217.04545454545456" type="line"/>
      <point x="1369.3181818181818" y="192.63636363636363"/>
      <point x="1284.3181818181818" y="179.1818181818182"/>
      <point x="1207.3181818181818" y="179.1818181818182" type="curve" smooth="yes"/>
      <point x="985.3636363636364" y="179.1818181818182"/>
      <point x="900.8636363636364" y="259.3636363636364"/>
      <point x="900.8636363636364" y="500.95454545454544" type="curve" smooth="yes"/>
      <point x="900.8636363636364" y="603.6363636363636" type="line" smooth="yes"/>
      <point x="900.8636363636364" y="863.3181818181818"/>
      <point x="973.3181818181818" y="940.1363636363636"/>
      <point x="1092.7272727272727" y="940.1363636363636" type="curve" smooth="yes"/>
      <point x="1211.3181818181818" y="940.1363636363636"/>
      <point x="1279.3181818181818" y="864.8636363636364"/>
      <point x="1279.3181818181818" y="599.2727272727273" type="curve"/>
      <point x="1320.4545454545455" y="623.7272727272727" type="line"/>
      <point x="862.7272727272727" y="623.7272727272727" type="line"/>
      <point x="862.7272727272727" y="467.72727272727275" type="line"/>
      <point x="1516.3636363636363" y="467.72727272727275" type="line"/>
      <point x="1516.3636363636363" y="540.7272727272727" type="line" smooth="yes"/>
      <point x="1516.3636363636363" y="931.0"/>
      <point x="1359.3636363636365" y="1108.6818181818182"/>
      <point x="1105.5454545454545" y="1108.6818181818182" type="curve" smooth="yes"/>
      <point x="849.1363636363636" y="1108.6818181818182"/>
      <point x="699.5" y="922.0"/>
      <point x="699.5" y="570.6818181818181" type="curve"/>
      <point x="658.3181818181819" y="547.8181818181819" type="line"/>
      <point x="658.3181818181819" y="143.3181818181818"/>
      <point x="819.8181818181819" y="-20.18181818181818"/>
    </contour>
    <contour>
      <point x="409.0909090909091" y="-19.272727272727273" type="curve" smooth="yes"/>
      <point x="545.0454545454545" y="-19.272727272727273"/>
      <point x="673.7727272727273" y="26.954545454545453"/>
      <point x="775.9090909090909" y="181.0" type="curve"/>
      <point x="703.0454545454545" y="308.6363636363636" type="line"/>
      <point x="636.9090909090909" y="200.36363636363637"/>
      <point x="554.6818181818182" y="167.0"/>
      <point x="470.8636363636364" y="167.0" type="curve" smooth="yes"/>
      <point x="369.77272727272725" y="167.0"/>
      <point x="312.45454545454544" y="216.5"/>
      <point x="312.45454545454544" y="312.1818181818182" type="curve" smooth="yes"/>
      <point x="312.45454545454544" y="407.3181818181818"/>
      <point x="366.8181818181818" y="474.0"/>
      <point x="513.0454545454545" y="474.0" type="curve" smooth="yes"/>
      <point x="710.1363636363636" y="474.0" type="line"/>
      <point x="710.1363636363636" y="623.7272727272727" type="line"/>
      <point x="489.0" y="623.7272727272727" type="line" smooth="yes"/>
      <point x="185.22727272727272" y="623.7272727272727"/>
      <point x="63.36363636363637" y="487.1818181818182"/>
      <point x="63.36363636363637" y="290.45454545454544" type="curve" smooth="yes"/>
      <point x="63.36363636363637" y="96.95454545454545"/>
      <point x="191.0" y="-19.272727272727273"/>
    </contour>
    <contour>
      <point x="658.3181818181819" y="547.8181818181819" type="line"/>
      <point x="860.5" y="541.0" type="line"/>
      <point x="860.5" y="695.3181818181819" type="line" smooth="yes"/>
      <point x="860.5" y="986.9090909090909"/>
      <point x="733.9090909090909" y="1108.0"/>
      <point x="448.5909090909091" y="1108.0" type="curve" smooth="yes"/>
      <point x="351.8181818181818" y="1108.0"/>
      <point x="242.4090909090909" y="1094.2272727272727"/>
      <point x="140.36363636363637" y="1064.2272727272727" type="curve"/>
      <point x="140.36363636363637" y="865.0454545454545" type="line"/>
      <point x="233.54545454545456" y="894.6363636363636"/>
      <point x="336.40909090909093" y="908.0909090909091"/>
      <point x="413.22727272727275" y="908.0909090909091" type="curve" smooth="yes"/>
      <point x="580.2272727272727" y="908.0909090909091"/>
      <point x="658.3181818181819" y="859.6363636363636"/>
      <point x="658.3181818181819" y="696.3181818181819" type="curve" smooth="yes"/>
    </contour>
  </outline>
</glyph>
<glyph name="ccedilla" format="2">
  <advance width="855.3636363636364"/>
  <unicode hex="00E7"/>
  <anchor x="497.5" y="0.0" name="_bottom"/>
  <anchor x="497.5" y="0.0" name="bottom"/>
  <anchor x="486.1818181818182" y="1200.0" name="top"/>
  <outline>
    <contour>
      <point x="568.1818181818182" y="-20.18181818181818" type="curve" smooth="yes"/>
      <point x="653.1363636363636" y="-20.18181818181818"/>
      <point x="740.4545454545455" y="-6.681818181818182"/>
      <point x="819.4090909090909" y="20.045454545454547" type="curve"/>
      <point x="819.4090909090909" y="226.04545454545453" type="line"/>
      <point x="738.2272727272727" y="200.63636363636363"/>
      <point x="674.3181818181818" y="189.27272727272725"/>
      <point x="614.1363636363636" y="189.27272727272725" type="curve" smooth="yes"/>
      <point x="427.4090909090909" y="189.27272727272725"/>
      <point x="331.45454545454544" y="279.4090909090909"/>
      <point x="331.45454545454544" y="548.3636363636364" type="curve" smooth="yes"/>
      <point x="331.45454545454544" y="807.1363636363636"/>
      <point x="429.6818181818182" y="898.5454545454545"/>
      <point x="645.3181818181818" y="898.5454545454545" type="curve" smooth="yes"/>
      <point x="698.4545454545455" y="898.5454545454545"/>
      <point x="758.3181818181818" y="892.1818181818182"/>
      <point x="819.4090909090909" y="878.9545454545455" type="curve"/>
      <point x="819.4090909090909" y="1084.9545454545455" type="line"/>
      <point x="752.5" y="1100.7727272727273"/>
      <point x="680.2272727272727" y="1108.0"/>
      <point x="606.3181818181818" y="1108.0" type="curve" smooth="yes"/>
      <point x="267.5" y="1108.0"/>
      <point x="69.9090909090909" y="943.0"/>
      <point x="69.9090909090909" y="544.0909090909091" type="curve" smooth="yes"/>
      <point x="69.9090909090909" y="150.6818181818182"/>
      <point x="248.36363636363637" y="-20.18181818181818"/>
    </contour>
    <contour>
      <point x="492.0" y="-432.72727272727275" type="curve" smooth="yes"/>
      <point x="648.2272727272727" y="-432.72727272727275"/>
      <point x="723.2727272727273" y="-365.27272727272725"/>
      <point x="723.2727272727273" y="-260.5" type="curve" smooth="yes"/>
      <point x="723.2727272727273" y="-152.72727272727272"/>
      <point x="646.4545454545455" y="-90.04545454545455"/>
      <point x="508.9090909090909" y="-90.04545454545455" type="curve"/>
      <point x="570.0454545454545" y="-131.0909090909091" type="line"/>
      <point x="570.0454545454545" y="20.0" type="line"/>
      <point x="440.95454545454544" y="20.0" type="line"/>
      <point x="440.95454545454544" y="-172.45454545454544" type="line"/>
      <point x="479.77272727272725" y="-172.45454545454544" type="line" smooth="yes"/>
      <point x="547.1818181818181" y="-172.45454545454544"/>
      <point x="583.6818181818182" y="-197.04545454545453"/>
      <point x="583.6818181818182" y="-250.95454545454547" type="curve" smooth="yes"/>
      <point x="583.6818181818182" y="-303.6363636363636"/>
      <point x="550.1818181818181" y="-326.45454545454544"/>
      <point x="482.04545454545456" y="-326.45454545454544" type="curve" smooth="yes"/>
      <point x="437.1363636363636" y="-326.45454545454544"/>
      <point x="378.3636363636364" y="-317.72727272727275"/>
      <point x="324.3181818181818" y="-293.77272727272725" type="curve"/>
      <point x="324.3181818181818" y="-401.59090909090907" type="line"/>
      <point x="371.6818181818182" y="-421.3181818181818"/>
      <point x="430.95454545454544" y="-432.72727272727275"/>
    </contour>
  </outline>
</glyph>
